mtllib bridge_post.mtl
o object1
g object1
v -0.10000000 0.75000000 -0.45857864
v -0.10000000 0.75000000 -0.54142136
v -0.15857864 0.75000000 -0.60000000
v -0.24142136 0.75000000 -0.60000000
v -0.30000000 0.75000000 -0.54142136
v -0.30000000 0.75000000 -0.45857864
v -0.24142136 0.75000000 -0.40000000
v -0.15857864 0.75000000 -0.40000000
v -0.20000000 0.75000000 -0.50000000
v -0.10000000 0.17928932 -0.45857864
v -0.10000000 0.17928932 -0.54142136
v -0.15857864 0.17928932 -0.60000000
v -0.24142136 0.17928932 -0.60000000
v -0.30000000 0.17928932 -0.54142136
v -0.30000000 0.17928932 -0.45857864
v -0.24142136 0.17928932 -0.40000000
v -0.15857864 0.17928932 -0.40000000
v -0.20000000 0.17928932 -0.50000000
vt 0.29289322 0.00000000
vt 0.70710678 0.00000000
vt 1.00000000 0.29289322
vt 1.00000000 0.70710678
vt 0.70710678 1.00000000
vt 0.29289322 1.00000000
vt 0.00000000 0.70710678
vt 0.00000000 0.29289322
vt 0.50000000 0.50000000
vt 0.29289322 0.00000000
vt 0.70710678 0.00000000
vt 1.00000000 0.29289322
vt 1.00000000 0.70710678
vt 0.70710678 1.00000000
vt 0.29289322 1.00000000
vt 0.00000000 0.70710678
vt 0.00000000 0.29289322
vt 0.50000000 0.50000000
vt 0.00000000 1.00000000
vt 0.00000000 0.00000000
vt 1.00000000 0.00000000
vt 1.00000000 1.00000000
vt 0.00000000 1.00000000
vt 0.00000000 0.00000000
vt 1.00000000 0.00000000
vt 1.00000000 1.00000000
vt 0.00000000 1.00000000
vt 0.00000000 0.00000000
vt 1.00000000 0.00000000
vt 1.00000000 1.00000000
vt 0.00000000 1.00000000
vt 0.00000000 0.00000000
vt 1.00000000 0.00000000
vt 1.00000000 1.00000000
vt 0.00000000 1.00000000
vt 0.00000000 0.00000000
vt 1.00000000 0.00000000
vt 1.00000000 1.00000000
vt 0.00000000 1.00000000
vt 0.00000000 0.00000000
vt 1.00000000 0.00000000
vt 1.00000000 1.00000000
vt 0.00000000 1.00000000
vt 0.00000000 0.00000000
vt 1.00000000 0.00000000
vt 1.00000000 1.00000000
vt 0.00000000 1.00000000
vt 0.00000000 0.00000000
vt 1.00000000 0.00000000
vt 1.00000000 1.00000000
vn -0.00000000 1.00000000 -0.00000000
vn -0.00000000 1.00000000 -0.00000000
vn -0.00000000 1.00000000 -0.00000000
vn -0.00000000 1.00000000 -0.00000000
vn -0.00000000 1.00000000 -0.00000000
vn -0.00000000 1.00000000 -0.00000000
vn -0.00000000 1.00000000 -0.00000000
vn -0.00000000 1.00000000 -0.00000000
vn -0.00000000 1.00000000 -0.00000000
vn 0.00000000 -1.00000000 0.00000000
vn 0.00000000 -1.00000000 0.00000000
vn 0.00000000 -1.00000000 0.00000000
vn 0.00000000 -1.00000000 0.00000000
vn 0.00000000 -1.00000000 0.00000000
vn 0.00000000 -1.00000000 0.00000000
vn 0.00000000 -1.00000000 0.00000000
vn 0.00000000 -1.00000000 0.00000000
vn 0.00000000 -1.00000000 0.00000000
vn 1.00000000 0.00000000 -0.00000000
vn 1.00000000 0.00000000 -0.00000000
vn 1.00000000 0.00000000 -0.00000000
vn 1.00000000 0.00000000 -0.00000000
vn 0.70710678 -0.00000000 -0.70710678
vn 0.70710678 -0.00000000 -0.70710678
vn 0.70710678 -0.00000000 -0.70710678
vn 0.70710678 -0.00000000 -0.70710678
vn 0.00000000 -0.00000000 -1.00000000
vn 0.00000000 -0.00000000 -1.00000000
vn 0.00000000 -0.00000000 -1.00000000
vn 0.00000000 -0.00000000 -1.00000000
vn -0.70710678 -0.00000000 -0.70710678
vn -0.70710678 -0.00000000 -0.70710678
vn -0.70710678 -0.00000000 -0.70710678
vn -0.70710678 -0.00000000 -0.70710678
vn -1.00000000 -0.00000000 0.00000000
vn -1.00000000 -0.00000000 0.00000000
vn -1.00000000 -0.00000000 0.00000000
vn -1.00000000 -0.00000000 0.00000000
vn -0.70710678 0.00000000 0.70710678
vn -0.70710678 0.00000000 0.70710678
vn -0.70710678 0.00000000 0.70710678
vn -0.70710678 0.00000000 0.70710678
vn -0.00000000 0.00000000 1.00000000
vn -0.00000000 0.00000000 1.00000000
vn -0.00000000 0.00000000 1.00000000
vn -0.00000000 0.00000000 1.00000000
vn 0.70710678 0.00000000 0.70710678
vn 0.70710678 0.00000000 0.70710678
vn 0.70710678 0.00000000 0.70710678
vn 0.70710678 0.00000000 0.70710678
s 1
usemtl Wood_Light
f 1/1/1 2/2/2 9/9/9
f 7/7/7 8/8/8 9/9/9
f 6/6/6 7/7/7 9/9/9
f 5/5/5 6/6/6 9/9/9
f 4/4/4 5/5/5 9/9/9
f 3/3/3 4/4/4 9/9/9
f 2/2/2 3/3/3 9/9/9
f 8/8/8 1/1/1 9/9/9
s 2
f 17/17/17 16/16/16 18/18/18
f 11/11/11 10/10/10 18/18/18
f 12/12/12 11/11/11 18/18/18
f 13/13/13 12/12/12 18/18/18
f 14/14/14 13/13/13 18/18/18
f 15/15/15 14/14/14 18/18/18
f 16/16/16 15/15/15 18/18/18
f 10/10/10 17/17/17 18/18/18
s 3
usemtl Wood_Dark
f 2/19/19 1/20/20 10/21/21
f 2/19/19 10/21/21 11/22/22
s 4
f 3/23/23 2/24/24 12/26/26
f 2/24/24 11/25/25 12/26/26
s 5
f 4/27/27 3/28/28 12/29/29
f 4/27/27 12/29/29 13/30/30
s 6
f 5/31/31 4/32/32 13/33/33
f 5/31/31 13/33/33 14/34/34
s 7
f 6/35/35 5/36/36 14/37/37
f 6/35/35 14/37/37 15/38/38
s 8
f 7/39/39 6/40/40 16/42/42
f 6/40/40 15/41/41 16/42/42
s 9
f 8/43/43 7/44/44 17/46/46
f 7/44/44 16/45/45 17/46/46
s 10
f 1/47/47 8/48/48 17/49/49
f 1/47/47 17/49/49 10/50/50
