mtllib bridge_mid.mtl
o object1
g object1
v -0.50000000 0.40574809 -0.10430216
v -0.50000000 0.40574809 0.10430869
v -0.50000000 0.38658828 0.13889216
v -0.50000000 0.23269482 0.13889216
v -0.50000000 0.15574809 0.00000327
v -0.50000000 0.23269482 -0.13888562
v -0.50000000 0.38658828 -0.13888562
v 0.50000000 0.40574809 -0.10430216
v 0.50000000 0.40574809 0.10430869
v 0.50000000 0.38658828 0.13889216
v 0.50000000 0.23269482 0.13889216
v 0.50000000 0.15574809 0.00000327
v 0.50000000 0.23269482 -0.13888562
v 0.50000000 0.38658828 -0.13888562
vt 0.12450047 0.00000000
vt 0.87549953 0.00000000
vt 1.00000000 0.07663923
vt 1.00000000 0.69221308
vt 0.50000000 1.00000000
vt 0.00000000 0.69221308
vt 0.00000000 0.07663923
vt 0.12450047 0.00000000
vt 0.87549953 0.00000000
vt 1.00000000 0.07663923
vt 1.00000000 0.69221308
vt 0.50000000 1.00000000
vt 0.00000000 0.69221308
vt 0.00000000 0.07663923
vt 0.00000000 1.00000000
vt 0.00000000 0.00000000
vt 1.00000000 0.00000000
vt 1.00000000 1.00000000
vt 0.00000000 1.00000000
vt 0.00000000 0.00000000
vt 1.00000000 0.00000000
vt 1.00000000 1.00000000
vt 0.00000000 1.00000000
vt 0.00000000 0.00000000
vt 1.00000000 0.00000000
vt 1.00000000 1.00000000
vt 0.00000000 1.00000000
vt 0.00000000 0.00000000
vt 1.00000000 0.00000000
vt 1.00000000 1.00000000
vt 0.00000000 0.00000000
vt 1.00000000 0.00000000
vt 1.00000000 1.00000000
vt 0.00000000 1.00000000
vt 1.00000000 1.00000000
vt 0.00000000 1.00000000
vt 0.00000000 0.00000000
vt 1.00000000 0.00000000
vt 0.00000000 1.00000000
vt 0.00000000 0.00000000
vt 1.00000000 0.00000000
vt 1.00000000 1.00000000
vn -1.00000000 -0.00000000 0.00000000
vn -1.00000000 -0.00000000 0.00000000
vn -1.00000000 -0.00000000 0.00000000
vn -1.00000000 -0.00000000 0.00000000
vn -1.00000000 -0.00000000 0.00000000
vn -1.00000000 -0.00000000 0.00000000
vn -1.00000000 -0.00000000 0.00000000
vn 1.00000000 0.00000000 -0.00000000
vn 1.00000000 0.00000000 -0.00000000
vn 1.00000000 0.00000000 -0.00000000
vn 1.00000000 0.00000000 -0.00000000
vn 1.00000000 0.00000000 -0.00000000
vn 1.00000000 0.00000000 -0.00000000
vn 1.00000000 0.00000000 -0.00000000
vn 0.00000000 -0.00000000 -1.00000000
vn 0.00000000 -0.00000000 -1.00000000
vn 0.00000000 -0.00000000 -1.00000000
vn 0.00000000 -0.00000000 -1.00000000
vn -0.00000000 0.00000000 1.00000000
vn -0.00000000 0.00000000 1.00000000
vn -0.00000000 0.00000000 1.00000000
vn -0.00000000 0.00000000 1.00000000
vn -0.00000000 -0.87472821 0.48461383
vn -0.00000000 -0.87472821 0.48461383
vn -0.00000000 -0.87472821 0.48461383
vn -0.00000000 -0.87472821 0.48461383
vn -0.00000000 -0.87472821 -0.48461383
vn -0.00000000 -0.87472821 -0.48461383
vn -0.00000000 -0.87472821 -0.48461383
vn -0.00000000 -0.87472821 -0.48461383
vn 0.00000000 0.87472821 0.48461383
vn 0.00000000 0.87472821 0.48461383
vn 0.00000000 0.87472821 0.48461383
vn 0.00000000 0.87472821 0.48461383
vn 0.00000000 0.87472821 -0.48461383
vn 0.00000000 0.87472821 -0.48461383
vn 0.00000000 0.87472821 -0.48461383
vn 0.00000000 0.87472821 -0.48461383
vn 0.00000000 1.00000000 -0.00000000
vn 0.00000000 1.00000000 -0.00000000
vn 0.00000000 1.00000000 -0.00000000
vn 0.00000000 1.00000000 -0.00000000
s 1
usemtl Wood_Light
f 4/4/4 3/3/3 2/2/2
f 6/6/6 4/4/4 1/1/1
f 1/1/1 7/7/7 6/6/6
f 4/4/4 2/2/2 1/1/1
f 6/6/6 5/5/5 4/4/4
s 2
f 9/9/9 10/10/10 11/11/11
f 8/8/8 11/11/11 13/13/13
f 13/13/13 14/14/14 8/8/8
f 11/11/11 12/12/12 13/13/13
f 8/8/8 9/9/9 11/11/11
s 3
usemtl Wood_Dark
f 14/18/18 13/17/17 6/16/16
f 14/18/18 6/16/16 7/15/15
s 4
f 11/22/22 10/21/21 4/19/19
f 10/21/21 3/20/20 4/19/19
s 5
f 12/26/26 11/25/25 5/23/23
f 11/25/25 4/24/24 5/23/23
s 6
f 13/30/30 12/29/29 5/28/28
f 13/30/30 5/28/28 6/27/27
s 7
f 3/34/34 10/33/33 9/32/32
f 3/34/34 9/32/32 2/31/31
s 8
f 14/38/38 7/37/37 8/35/35
f 7/37/37 1/36/36 8/35/35
s 9
usemtl Wood_Light
f 2/42/42 9/41/41 8/40/40
f 2/42/42 8/40/40 1/39/39
o object2
g object2
v -0.50000000 0.40574809 -0.43763767
v -0.50000000 0.40574809 -0.22902682
v -0.50000000 0.38658828 -0.19444336
v -0.50000000 0.23269482 -0.19444336
v -0.50000000 0.15574809 -0.33333224
v -0.50000000 0.23269482 -0.47222113
v -0.50000000 0.38658828 -0.47222113
v 0.50000000 0.40574809 -0.43763767
v 0.50000000 0.40574809 -0.22902682
v 0.50000000 0.38658828 -0.19444336
v 0.50000000 0.23269482 -0.19444336
v 0.50000000 0.15574809 -0.33333224
v 0.50000000 0.23269482 -0.47222113
v 0.50000000 0.38658828 -0.47222113
vt 0.12450047 0.00000000
vt 0.87549953 0.00000000
vt 1.00000000 0.07663923
vt 1.00000000 0.69221308
vt 0.50000000 1.00000000
vt 0.00000000 0.69221308
vt 0.00000000 0.07663923
vt 0.12450047 0.00000000
vt 0.87549953 0.00000000
vt 1.00000000 0.07663923
vt 1.00000000 0.69221308
vt 0.50000000 1.00000000
vt 0.00000000 0.69221308
vt 0.00000000 0.07663923
vt 0.00000000 1.00000000
vt 0.00000000 0.00000000
vt 1.00000000 0.00000000
vt 1.00000000 1.00000000
vt 0.00000000 1.00000000
vt 0.00000000 0.00000000
vt 1.00000000 0.00000000
vt 1.00000000 1.00000000
vt 0.00000000 1.00000000
vt 0.00000000 0.00000000
vt 1.00000000 0.00000000
vt 1.00000000 1.00000000
vt 0.00000000 1.00000000
vt 0.00000000 0.00000000
vt 1.00000000 0.00000000
vt 1.00000000 1.00000000
vt 0.00000000 0.00000000
vt 1.00000000 0.00000000
vt 1.00000000 1.00000000
vt 0.00000000 1.00000000
vt 1.00000000 1.00000000
vt 0.00000000 1.00000000
vt 0.00000000 0.00000000
vt 1.00000000 0.00000000
vt 0.00000000 1.00000000
vt 0.00000000 0.00000000
vt 1.00000000 0.00000000
vt 1.00000000 1.00000000
vn -1.00000000 -0.00000000 0.00000000
vn -1.00000000 -0.00000000 0.00000000
vn -1.00000000 -0.00000000 0.00000000
vn -1.00000000 -0.00000000 0.00000000
vn -1.00000000 -0.00000000 0.00000000
vn -1.00000000 -0.00000000 0.00000000
vn -1.00000000 -0.00000000 0.00000000
vn 1.00000000 0.00000000 -0.00000000
vn 1.00000000 0.00000000 -0.00000000
vn 1.00000000 0.00000000 -0.00000000
vn 1.00000000 0.00000000 -0.00000000
vn 1.00000000 0.00000000 -0.00000000
vn 1.00000000 0.00000000 -0.00000000
vn 1.00000000 0.00000000 -0.00000000
vn 0.00000000 -0.00000000 -1.00000000
vn 0.00000000 -0.00000000 -1.00000000
vn 0.00000000 -0.00000000 -1.00000000
vn 0.00000000 -0.00000000 -1.00000000
vn -0.00000000 0.00000000 1.00000000
vn -0.00000000 0.00000000 1.00000000
vn -0.00000000 0.00000000 1.00000000
vn -0.00000000 0.00000000 1.00000000
vn -0.00000000 -0.87472821 0.48461383
vn -0.00000000 -0.87472821 0.48461383
vn -0.00000000 -0.87472821 0.48461383
vn -0.00000000 -0.87472821 0.48461383
vn -0.00000000 -0.87472821 -0.48461383
vn -0.00000000 -0.87472821 -0.48461383
vn -0.00000000 -0.87472821 -0.48461383
vn -0.00000000 -0.87472821 -0.48461383
vn 0.00000000 0.87472821 0.48461383
vn 0.00000000 0.87472821 0.48461383
vn 0.00000000 0.87472821 0.48461383
vn 0.00000000 0.87472821 0.48461383
vn 0.00000000 0.87472821 -0.48461383
vn 0.00000000 0.87472821 -0.48461383
vn 0.00000000 0.87472821 -0.48461383
vn 0.00000000 0.87472821 -0.48461383
vn 0.00000000 1.00000000 -0.00000000
vn 0.00000000 1.00000000 -0.00000000
vn 0.00000000 1.00000000 -0.00000000
vn 0.00000000 1.00000000 -0.00000000
s 1
usemtl Wood_Light
f 18/46/46 17/45/45 16/44/44
f 20/48/48 18/46/46 15/43/43
f 15/43/43 21/49/49 20/48/48
f 18/46/46 16/44/44 15/43/43
f 20/48/48 19/47/47 18/46/46
s 2
f 23/51/51 24/52/52 25/53/53
f 22/50/50 25/53/53 27/55/55
f 27/55/55 28/56/56 22/50/50
f 25/53/53 26/54/54 27/55/55
f 22/50/50 23/51/51 25/53/53
s 3
usemtl Wood_Dark
f 28/60/60 27/59/59 20/58/58
f 28/60/60 20/58/58 21/57/57
s 4
f 25/64/64 24/63/63 18/61/61
f 24/63/63 17/62/62 18/61/61
s 5
f 26/68/68 25/67/67 19/65/65
f 25/67/67 18/66/66 19/65/65
s 6
f 27/72/72 26/71/71 19/70/70
f 27/72/72 19/70/70 20/69/69
s 7
f 17/76/76 24/75/75 23/74/74
f 17/76/76 23/74/74 16/73/73
s 8
f 28/80/80 21/79/79 22/77/77
f 21/79/79 15/78/78 22/77/77
s 9
usemtl Wood_Light
f 16/84/84 23/83/83 22/82/82
f 16/84/84 22/82/82 15/81/81
o object3
g object3
v -0.50000000 0.40574809 0.22903335
v -0.50000000 0.40574809 0.43764420
v -0.50000000 0.38658828 0.47222767
v -0.50000000 0.23269482 0.47222767
v -0.50000000 0.15574809 0.33333878
v -0.50000000 0.23269482 0.19444989
v -0.50000000 0.38658828 0.19444989
v 0.50000000 0.40574809 0.22903335
v 0.50000000 0.40574809 0.43764420
v 0.50000000 0.38658828 0.47222767
v 0.50000000 0.23269482 0.47222767
v 0.50000000 0.15574809 0.33333878
v 0.50000000 0.23269482 0.19444989
v 0.50000000 0.38658828 0.19444989
vt 0.12450047 0.00000000
vt 0.87549953 0.00000000
vt 1.00000000 0.07663923
vt 1.00000000 0.69221308
vt 0.50000000 1.00000000
vt 0.00000000 0.69221308
vt 0.00000000 0.07663923
vt 0.12450047 0.00000000
vt 0.87549953 0.00000000
vt 1.00000000 0.07663923
vt 1.00000000 0.69221308
vt 0.50000000 1.00000000
vt 0.00000000 0.69221308
vt 0.00000000 0.07663923
vt 0.00000000 1.00000000
vt 0.00000000 0.00000000
vt 1.00000000 0.00000000
vt 1.00000000 1.00000000
vt 0.00000000 1.00000000
vt 0.00000000 0.00000000
vt 1.00000000 0.00000000
vt 1.00000000 1.00000000
vt 0.00000000 1.00000000
vt 0.00000000 0.00000000
vt 1.00000000 0.00000000
vt 1.00000000 1.00000000
vt 0.00000000 1.00000000
vt 0.00000000 0.00000000
vt 1.00000000 0.00000000
vt 1.00000000 1.00000000
vt 0.00000000 0.00000000
vt 1.00000000 0.00000000
vt 1.00000000 1.00000000
vt 0.00000000 1.00000000
vt 1.00000000 1.00000000
vt 0.00000000 1.00000000
vt 0.00000000 0.00000000
vt 1.00000000 0.00000000
vt 0.00000000 1.00000000
vt 0.00000000 0.00000000
vt 1.00000000 0.00000000
vt 1.00000000 1.00000000
vn -1.00000000 -0.00000000 0.00000000
vn -1.00000000 -0.00000000 0.00000000
vn -1.00000000 -0.00000000 0.00000000
vn -1.00000000 -0.00000000 0.00000000
vn -1.00000000 -0.00000000 0.00000000
vn -1.00000000 -0.00000000 0.00000000
vn -1.00000000 -0.00000000 0.00000000
vn 1.00000000 0.00000000 -0.00000000
vn 1.00000000 0.00000000 -0.00000000
vn 1.00000000 0.00000000 -0.00000000
vn 1.00000000 0.00000000 -0.00000000
vn 1.00000000 0.00000000 -0.00000000
vn 1.00000000 0.00000000 -0.00000000
vn 1.00000000 0.00000000 -0.00000000
vn 0.00000000 -0.00000000 -1.00000000
vn 0.00000000 -0.00000000 -1.00000000
vn 0.00000000 -0.00000000 -1.00000000
vn 0.00000000 -0.00000000 -1.00000000
vn -0.00000000 0.00000000 1.00000000
vn -0.00000000 0.00000000 1.00000000
vn -0.00000000 0.00000000 1.00000000
vn -0.00000000 0.00000000 1.00000000
vn -0.00000000 -0.87472821 0.48461383
vn -0.00000000 -0.87472821 0.48461383
vn -0.00000000 -0.87472821 0.48461383
vn -0.00000000 -0.87472821 0.48461383
vn -0.00000000 -0.87472821 -0.48461383
vn -0.00000000 -0.87472821 -0.48461383
vn -0.00000000 -0.87472821 -0.48461383
vn -0.00000000 -0.87472821 -0.48461383
vn 0.00000000 0.87472821 0.48461383
vn 0.00000000 0.87472821 0.48461383
vn 0.00000000 0.87472821 0.48461383
vn 0.00000000 0.87472821 0.48461383
vn 0.00000000 0.87472821 -0.48461383
vn 0.00000000 0.87472821 -0.48461383
vn 0.00000000 0.87472821 -0.48461383
vn 0.00000000 0.87472821 -0.48461383
vn 0.00000000 1.00000000 -0.00000000
vn 0.00000000 1.00000000 -0.00000000
vn 0.00000000 1.00000000 -0.00000000
vn 0.00000000 1.00000000 -0.00000000
s 1
usemtl Wood_Light
f 32/88/88 31/87/87 30/86/86
f 34/90/90 32/88/88 29/85/85
f 29/85/85 35/91/91 34/90/90
f 32/88/88 30/86/86 29/85/85
f 34/90/90 33/89/89 32/88/88
s 2
f 37/93/93 38/94/94 39/95/95
f 36/92/92 39/95/95 41/97/97
f 41/97/97 42/98/98 36/92/92
f 39/95/95 40/96/96 41/97/97
f 36/92/92 37/93/93 39/95/95
s 3
usemtl Wood_Dark
f 42/102/102 41/101/101 34/100/100
f 42/102/102 34/100/100 35/99/99
s 4
f 39/106/106 38/105/105 32/103/103
f 38/105/105 31/104/104 32/103/103
s 5
f 40/110/110 39/109/109 33/107/107
f 39/109/109 32/108/108 33/107/107
s 6
f 41/114/114 40/113/113 33/112/112
f 41/114/114 33/112/112 34/111/111
s 7
f 31/118/118 38/117/117 37/116/116
f 31/118/118 37/116/116 30/115/115
s 8
f 42/122/122 35/121/121 36/119/119
f 35/121/121 29/120/120 36/119/119
s 9
usemtl Wood_Light
f 30/126/126 37/125/125 36/124/124
f 30/126/126 36/124/124 29/123/123
