mtllib 1_door_base.mtl
o object1
g object1
v 0.25000000 0.15000000 -0.65000000
v 0.25000000 0.15000000 -0.35000000
v 0.50000000 0.15000000 -0.35000000
v 0.50000000 0.15000000 -0.65000000
v 0.50000000 0.00000000 -0.30000000
v 0.25000000 0.00000000 -0.30000000
v 0.25000000 0.00000000 -0.70000000
v 0.50000000 0.00000000 -0.70000000
vt 1.00000000 1.00000000
vt 0.00000000 1.00000000
vt 0.00000000 0.00000000
vt 1.00000000 0.00000000
vt 1.00000000 0.83333333
vt 0.00000000 1.00000000
vt 0.00000000 0.09722222
vt 1.00000000 0.00000000
vt 1.00000000 0.12500000
vt 1.00000000 0.87500000
vt 0.00000000 1.00000000
vt 0.00000000 0.00000000
vt 0.00000000 0.00000000
vt 1.00000000 0.16666667
vt 1.00000000 1.00000000
vt 0.00000000 0.90277778
vt 0.00000000 0.00000000
vt 1.00000000 0.00000000
vt 1.00000000 1.00000000
vt 0.00000000 1.00000000
vt 1.00000000 0.87500000
vt 0.00000000 1.00000000
vt 0.00000000 0.00000000
vt 1.00000000 0.12500000
vn 0.00000000 1.00000000 0.00000000
vn 0.00000000 1.00000000 0.00000000
vn 0.00000000 1.00000000 0.00000000
vn 0.00000000 1.00000000 0.00000000
vn 0.00000000 0.31622777 0.94868330
vn 0.00000000 0.31622777 0.94868330
vn 0.00000000 0.31622777 0.94868330
vn 0.00000000 0.31622777 0.94868330
vn -1.00000000 0.00000000 0.00000000
vn -1.00000000 0.00000000 0.00000000
vn -1.00000000 0.00000000 0.00000000
vn -1.00000000 0.00000000 0.00000000
vn 0.00000000 0.31622777 -0.94868330
vn 0.00000000 0.31622777 -0.94868330
vn 0.00000000 0.31622777 -0.94868330
vn 0.00000000 0.31622777 -0.94868330
vn 0.00000000 -1.00000000 0.00000000
vn 0.00000000 -1.00000000 0.00000000
vn 0.00000000 -1.00000000 0.00000000
vn 0.00000000 -1.00000000 0.00000000
vn 1.00000000 0.00000000 0.00000000
vn 1.00000000 0.00000000 0.00000000
vn 1.00000000 0.00000000 0.00000000
vn 1.00000000 0.00000000 0.00000000
s 1
usemtl Sandstone_5
f 1/1/1 2/2/2 3/3/3
f 1/1/1 3/3/3 4/4/4
s 2
f 5/5/5 3/6/6 2/7/7
f 5/5/5 2/7/7 6/8/8
s 3
f 2/9/9 1/10/10 6/12/12
f 1/10/10 7/11/11 6/12/12
s 4
f 4/13/13 8/14/14 1/16/16
f 8/14/14 7/15/15 1/16/16
s 5
f 6/20/20 7/19/19 8/18/18
f 6/20/20 8/18/18 5/17/17
s 6
f 3/24/24 5/23/23 4/21/21
f 5/23/23 8/22/22 4/21/21
o object2
g object2
v -0.50000000 0.00000000 -0.70000000
v -0.50000000 0.00000000 -0.30000000
v -0.25000000 0.00000000 -0.30000000
v -0.25000000 0.00000000 -0.70000000
v -0.50000000 0.15000000 -0.65000000
v -0.25000000 0.15000000 -0.65000000
v -0.25000000 0.15000000 -0.35000000
v -0.50000000 0.15000000 -0.35000000
vt 0.00000000 0.00000000
vt 1.00000000 0.00000000
vt 1.00000000 1.00000000
vt 0.00000000 1.00000000
vt 1.00000000 0.83333333
vt 0.00000000 1.00000000
vt 0.00000000 0.09722222
vt 1.00000000 0.00000000
vt 1.00000000 1.00000000
vt 0.00000000 1.00000000
vt 0.00000000 0.00000000
vt 1.00000000 0.00000000
vt 1.00000000 0.12500000
vt 1.00000000 0.87500000
vt 0.00000000 1.00000000
vt 0.00000000 0.00000000
vt 0.00000000 0.00000000
vt 1.00000000 0.16666667
vt 1.00000000 1.00000000
vt 0.00000000 0.90277778
vt 0.00000000 0.00000000
vt 1.00000000 0.12500000
vt 1.00000000 0.87500000
vt 0.00000000 1.00000000
vn 0.00000000 -1.00000000 0.00000000
vn 0.00000000 -1.00000000 0.00000000
vn 0.00000000 -1.00000000 0.00000000
vn 0.00000000 -1.00000000 0.00000000
vn 0.00000000 0.31622777 -0.94868330
vn 0.00000000 0.31622777 -0.94868330
vn 0.00000000 0.31622777 -0.94868330
vn 0.00000000 0.31622777 -0.94868330
vn 0.00000000 1.00000000 0.00000000
vn 0.00000000 1.00000000 0.00000000
vn 0.00000000 1.00000000 0.00000000
vn 0.00000000 1.00000000 0.00000000
vn 1.00000000 0.00000000 0.00000000
vn 1.00000000 0.00000000 0.00000000
vn 1.00000000 0.00000000 0.00000000
vn 1.00000000 0.00000000 0.00000000
vn 0.00000000 0.31622777 0.94868330
vn 0.00000000 0.31622777 0.94868330
vn 0.00000000 0.31622777 0.94868330
vn 0.00000000 0.31622777 0.94868330
vn -1.00000000 0.00000000 0.00000000
vn -1.00000000 0.00000000 0.00000000
vn -1.00000000 0.00000000 0.00000000
vn -1.00000000 0.00000000 0.00000000
s 1
usemtl Sandstone_5
f 12/28/28 11/27/27 9/25/25
f 11/27/27 10/26/26 9/25/25
s 2
f 9/29/29 13/30/30 14/31/31
f 9/29/29 14/31/31 12/32/32
s 3
f 15/33/33 14/34/34 16/36/36
f 14/34/34 13/35/35 16/36/36
s 4
f 11/40/40 12/39/39 15/37/37
f 12/39/39 14/38/38 15/37/37
s 5
f 16/41/41 10/42/42 11/43/43
f 16/41/41 11/43/43 15/44/44
s 6
f 10/45/45 16/46/46 13/47/47
f 10/45/45 13/47/47 9/48/48
