mtllib 1_floor_steps_curved.mtl
o object1
g object1
v -0.50000000 0.00000000 -1.00000000
v -0.50000000 1.02500000 -1.00000000
v -0.35226289 1.02500000 -1.00000000
v -0.35226289 0.90000000 -1.00000000
v -0.35226289 0.00000000 -1.00000000
v -0.06246614 0.00000000 -0.94235584
v -0.06246614 0.90000000 -0.94235584
v -0.06246614 0.75000000 -0.94235584
v 0.21051644 0.00000000 -0.82928276
v 0.21051644 0.75000000 -0.82928276
v 0.21051644 0.62500000 -0.82928276
v 0.45619426 0.00000000 -0.66512608
v 0.45619426 0.62500000 -0.66512608
v 0.45619426 0.50000000 -0.66512608
v 0.66512608 0.00000000 -0.45619426
v 0.66512608 0.50000000 -0.45619426
v 0.66512608 0.37500000 -0.45619426
v 0.82928276 0.00000000 -0.21051644
v 0.82928276 0.37500000 -0.21051644
v 0.82928276 0.25000000 -0.21051644
v 0.94235584 0.00000000 0.06246614
v 0.94235584 0.25000000 0.06246614
v 0.94235584 0.12500000 0.06246614
v 1.00000000 0.00000000 0.35226289
v 1.00000000 0.12500000 0.35226289
v 1.00000000 0.02500000 0.35226289
v 1.00000000 0.00000000 0.50000000
v 1.00000000 0.02500000 0.50000000
v -0.00000000 0.00000000 0.50000000
v -0.00000000 0.02500000 0.50000000
v -0.00000000 0.00000000 0.45075430
v -0.00000000 0.02500000 0.45075430
v -0.01921472 0.00000000 0.35415538
v -0.00000000 0.12500000 0.45075430
v -0.01921472 0.12500000 0.35415538
v -0.05690575 0.00000000 0.26316119
v -0.01921472 0.25000000 0.35415538
v -0.05690575 0.25000000 0.26316119
v -0.11162464 0.00000000 0.18126858
v -0.05690575 0.37500000 0.26316119
v -0.11162464 0.37500000 0.18126858
v -0.18126858 0.00000000 0.11162464
v -0.11162464 0.50000000 0.18126858
v -0.18126858 0.50000000 0.11162464
v -0.26316119 0.00000000 0.05690575
v -0.18126858 0.62500000 0.11162464
v -0.26316119 0.62500000 0.05690575
v -0.35415538 0.00000000 0.01921472
v -0.26316119 0.75000000 0.05690575
v -0.35415538 0.75000000 0.01921472
v -0.45075430 0.00000000 -0.00000000
v -0.35415538 0.90000000 0.01921472
v -0.45075430 0.90000000 -0.00000000
v -0.45075430 1.02500000 -0.00000000
v -0.50000000 1.02500000 -0.00000000
v -0.50000000 0.00000000 -0.00000000
vt 0.00000000 0.00000000
vt 1.00000000 0.00000000
vt 1.00000000 1.00000000
vt 0.87804878 1.00000000
vt 0.00000000 1.00000000
vt 0.00000000 1.00000000
vt 0.00000000 0.00000000
vt 1.00000000 0.00000000
vt 1.00000000 1.00000000
vt 0.83333333 1.00000000
vt 0.00000000 1.00000000
vt 0.00000000 0.00000000
vt 1.00000000 0.00000000
vt 1.00000000 1.00000000
vt 0.83333333 1.00000000
vt 0.00000000 1.00000000
vt 0.00000000 0.00000000
vt 1.00000000 0.00000000
vt 1.00000000 1.00000000
vt 0.80000000 1.00000000
vt 0.00000000 1.00000000
vt 0.00000000 0.00000000
vt 1.00000000 0.00000000
vt 1.00000000 1.00000000
vt 0.75000000 1.00000000
vt 0.00000000 1.00000000
vt 0.00000000 0.00000000
vt 1.00000000 0.00000000
vt 1.00000000 1.00000000
vt 0.66666667 1.00000000
vt 0.00000000 1.00000000
vt 0.00000000 0.00000000
vt 1.00000000 0.00000000
vt 1.00000000 1.00000000
vt 0.50000000 1.00000000
vt 0.00000000 1.00000000
vt 0.00000000 0.00000000
vt 1.00000000 0.00000000
vt 1.00000000 1.00000000
vt 0.20000000 1.00000000
vt 0.00000000 1.00000000
vt 0.00000000 0.00000000
vt 1.00000000 0.00000000
vt 1.00000000 1.00000000
vt 0.00000000 1.00000000
vt 0.00000000 0.00000000
vt 1.00000000 0.00000000
vt 1.00000000 1.00000000
vt 0.00000000 1.00000000
vt 0.00000000 0.00000000
vt 1.00000000 0.00000000
vt 1.00000000 1.00000000
vt 0.00000000 1.00000000
vt 0.00000000 0.00000000
vt 0.20000000 0.00000000
vt 1.00000000 0.00000000
vt 1.00000000 1.00000000
vt 0.00000000 1.00000000
vt 0.00000000 0.00000000
vt 0.50000000 0.00000000
vt 1.00000000 0.00000000
vt 1.00000000 1.00000000
vt 0.00000000 1.00000000
vt 0.00000000 0.00000000
vt 0.66666667 0.00000000
vt 1.00000000 0.00000000
vt 1.00000000 1.00000000
vt 0.00000000 1.00000000
vt 0.00000000 0.00000000
vt 0.75000000 0.00000000
vt 1.00000000 0.00000000
vt 1.00000000 1.00000000
vt 0.00000000 1.00000000
vt 0.00000000 0.00000000
vt 0.80000000 0.00000000
vt 1.00000000 0.00000000
vt 1.00000000 1.00000000
vt 0.00000000 1.00000000
vt 0.00000000 0.00000000
vt 0.83333333 0.00000000
vt 1.00000000 0.00000000
vt 1.00000000 1.00000000
vt 0.00000000 1.00000000
vt 0.00000000 0.00000000
vt 0.83333333 0.00000000
vt 1.00000000 0.00000000
vt 1.00000000 1.00000000
vt 0.87804878 0.00000000
vt 1.00000000 0.00000000
vt 1.00000000 1.00000000
vt 0.00000000 1.00000000
vt 0.00000000 0.00000000
vt 1.00000000 1.00000000
vt 0.00000000 1.00000000
vt 0.00000000 0.00000000
vt 0.33333333 0.00000000
vt 0.00000000 1.00000000
vt 0.00000000 0.00000000
vt 1.00000000 0.00000000
vt 1.00000000 1.00000000
vt 0.25365544 1.00000000
vt 0.00000000 0.01885247
vt 0.24878152 0.00000000
vt 1.00000000 0.94344258
vt 0.00000000 1.00000000
vt 0.00000000 0.00000000
vt 1.00000000 0.00000000
vt 1.00000000 1.00000000
vt 0.51656419 1.00000000
vt 0.00000000 0.03771888
vt 0.16114527 0.00000000
vt 1.00000000 0.88684336
vt 0.00000000 1.00000000
vt 0.00000000 0.00000000
vt 1.00000000 0.00000000
vt 1.00000000 1.00000000
vt 0.65847506 1.00000000
vt 0.00000000 0.05815545
vt 0.11384165 0.00000000
vt 1.00000000 0.82553365
vt 0.00000000 1.00000000
vt 0.00000000 0.00000000
vt 1.00000000 0.00000000
vt 1.00000000 1.00000000
vt 0.75315083 1.00000000
vt 0.00000000 0.08228306
vt 0.08228306 0.00000000
vt 1.00000000 0.75315083
vt 0.00000000 1.00000000
vt 0.00000000 0.00000000
vt 1.00000000 0.00000000
vt 1.00000000 1.00000000
vt 0.82553365 1.00000000
vt 0.00000000 0.11384165
vt 0.05815545 0.00000000
vt 1.00000000 0.65847506
vt 0.00000000 1.00000000
vt 0.00000000 0.00000000
vt 1.00000000 0.00000000
vt 1.00000000 1.00000000
vt 0.88684336 1.00000000
vt 0.00000000 0.16114527
vt 0.03771888 0.00000000
vt 1.00000000 0.51656419
vt 0.00000000 1.00000000
vt 0.00000000 0.00000000
vt 1.00000000 0.00000000
vt 1.00000000 1.00000000
vt 0.94344258 1.00000000
vt 0.00000000 0.24878152
vt 0.01885247 0.00000000
vt 1.00000000 0.25365544
vt 0.00000000 0.00000000
vt 1.00000000 0.00000000
vt 1.00000000 1.00000000
vt 0.00000000 1.00000000
vt 0.00000000 0.33333333
vt 0.03283047 0.33333333
vt 0.09722975 0.32052352
vt 0.15789254 0.29539617
vt 0.21248761 0.25891691
vt 0.25891691 0.21248761
vt 0.29539617 0.15789254
vt 0.32052352 0.09722975
vt 0.33333333 0.03283047
vt 0.33333333 0.00000000
vt 1.00000000 0.00000000
vt 1.00000000 0.09849140
vt 0.96157056 0.29168924
vt 0.88618850 0.47367762
vt 0.77675072 0.63746284
vt 0.63746284 0.77675072
vt 0.47367762 0.88618850
vt 0.29168924 0.96157056
vt 0.09849140 1.00000000
vt 0.00000000 1.00000000
vt 1.00000000 1.00000000
vt 0.00000000 0.33333333
vt 0.00000000 0.00000000
vt 1.00000000 0.00000000
vt 1.00000000 0.00000000
vt 1.00000000 1.00000000
vt 0.00000000 1.00000000
vt 0.00000000 0.00000000
vn 0.00000000 0.00000000 -1.00000000
vn 0.00000000 0.00000000 -1.00000000
vn 0.00000000 0.00000000 -1.00000000
vn 0.00000000 0.00000000 -1.00000000
vn 0.00000000 0.00000000 -1.00000000
vn 0.19509032 0.00000000 -0.98078528
vn 0.19509032 0.00000000 -0.98078528
vn 0.19509032 0.00000000 -0.98078528
vn 0.19509032 0.00000000 -0.98078528
vn 0.19509032 0.00000000 -0.98078528
vn 0.38268343 0.00000000 -0.92387953
vn 0.38268343 0.00000000 -0.92387953
vn 0.38268343 0.00000000 -0.92387953
vn 0.38268343 0.00000000 -0.92387953
vn 0.38268343 0.00000000 -0.92387953
vn 0.55557023 0.00000000 -0.83146961
vn 0.55557023 0.00000000 -0.83146961
vn 0.55557023 0.00000000 -0.83146961
vn 0.55557023 0.00000000 -0.83146961
vn 0.55557023 0.00000000 -0.83146961
vn 0.70710678 0.00000000 -0.70710678
vn 0.70710678 0.00000000 -0.70710678
vn 0.70710678 0.00000000 -0.70710678
vn 0.70710678 0.00000000 -0.70710678
vn 0.70710678 0.00000000 -0.70710678
vn 0.83146961 0.00000000 -0.55557023
vn 0.83146961 0.00000000 -0.55557023
vn 0.83146961 0.00000000 -0.55557023
vn 0.83146961 0.00000000 -0.55557023
vn 0.83146961 0.00000000 -0.55557023
vn 0.92387953 0.00000000 -0.38268343
vn 0.92387953 0.00000000 -0.38268343
vn 0.92387953 0.00000000 -0.38268343
vn 0.92387953 0.00000000 -0.38268343
vn 0.92387953 0.00000000 -0.38268343
vn 0.98078528 0.00000000 -0.19509032
vn 0.98078528 0.00000000 -0.19509032
vn 0.98078528 0.00000000 -0.19509032
vn 0.98078528 0.00000000 -0.19509032
vn 0.98078528 0.00000000 -0.19509032
vn 1.00000000 0.00000000 -0.00000000
vn 1.00000000 0.00000000 -0.00000000
vn 1.00000000 0.00000000 -0.00000000
vn 1.00000000 0.00000000 -0.00000000
vn 0.00000000 0.00000000 1.00000000
vn 0.00000000 0.00000000 1.00000000
vn 0.00000000 0.00000000 1.00000000
vn 0.00000000 0.00000000 1.00000000
vn -1.00000000 0.00000000 0.00000000
vn -1.00000000 0.00000000 0.00000000
vn -1.00000000 0.00000000 0.00000000
vn -1.00000000 0.00000000 0.00000000
vn -0.98078528 0.00000000 0.19509032
vn -0.98078528 0.00000000 0.19509032
vn -0.98078528 0.00000000 0.19509032
vn -0.98078528 0.00000000 0.19509032
vn -0.98078528 0.00000000 0.19509032
vn -0.92387953 0.00000000 0.38268343
vn -0.92387953 0.00000000 0.38268343
vn -0.92387953 0.00000000 0.38268343
vn -0.92387953 0.00000000 0.38268343
vn -0.92387953 0.00000000 0.38268343
vn -0.83146961 0.00000000 0.55557023
vn -0.83146961 0.00000000 0.55557023
vn -0.83146961 0.00000000 0.55557023
vn -0.83146961 0.00000000 0.55557023
vn -0.83146961 0.00000000 0.55557023
vn -0.70710678 0.00000000 0.70710678
vn -0.70710678 0.00000000 0.70710678
vn -0.70710678 0.00000000 0.70710678
vn -0.70710678 0.00000000 0.70710678
vn -0.70710678 0.00000000 0.70710678
vn -0.55557023 0.00000000 0.83146961
vn -0.55557023 0.00000000 0.83146961
vn -0.55557023 0.00000000 0.83146961
vn -0.55557023 0.00000000 0.83146961
vn -0.55557023 0.00000000 0.83146961
vn -0.38268343 0.00000000 0.92387953
vn -0.38268343 0.00000000 0.92387953
vn -0.38268343 0.00000000 0.92387953
vn -0.38268343 0.00000000 0.92387953
vn -0.38268343 0.00000000 0.92387953
vn -0.19509032 0.00000000 0.98078528
vn -0.19509032 0.00000000 0.98078528
vn -0.19509032 0.00000000 0.98078528
vn -0.19509032 0.00000000 0.98078528
vn -0.19509032 0.00000000 0.98078528
vn -0.00000000 0.00000000 1.00000000
vn -0.00000000 0.00000000 1.00000000
vn -0.00000000 0.00000000 1.00000000
vn -0.00000000 0.00000000 1.00000000
vn -0.00000000 0.00000000 1.00000000
vn 0.00000000 1.00000000 0.00000000
vn 0.00000000 1.00000000 0.00000000
vn 0.00000000 1.00000000 0.00000000
vn 0.00000000 1.00000000 0.00000000
vn 0.09801714 0.00000000 0.99518473
vn 0.09801714 0.00000000 0.99518473
vn 0.09801714 0.00000000 0.99518473
vn 0.09801714 0.00000000 0.99518473
vn 0.00000000 1.00000000 0.00000000
vn 0.00000000 1.00000000 0.00000000
vn 0.00000000 1.00000000 0.00000000
vn 0.00000000 1.00000000 0.00000000
vn 0.29028468 0.00000000 0.95694034
vn 0.29028468 0.00000000 0.95694034
vn 0.29028468 0.00000000 0.95694034
vn 0.29028468 0.00000000 0.95694034
vn 0.00000000 1.00000000 0.00000000
vn 0.00000000 1.00000000 0.00000000
vn 0.00000000 1.00000000 0.00000000
vn 0.00000000 1.00000000 0.00000000
vn 0.47139674 0.00000000 0.88192126
vn 0.47139674 0.00000000 0.88192126
vn 0.47139674 0.00000000 0.88192126
vn 0.47139674 0.00000000 0.88192126
vn 0.00000000 1.00000000 0.00000000
vn 0.00000000 1.00000000 0.00000000
vn 0.00000000 1.00000000 0.00000000
vn 0.00000000 1.00000000 0.00000000
vn 0.63439328 0.00000000 0.77301045
vn 0.63439328 0.00000000 0.77301045
vn 0.63439328 0.00000000 0.77301045
vn 0.63439328 0.00000000 0.77301045
vn 0.00000000 1.00000000 0.00000000
vn 0.00000000 1.00000000 0.00000000
vn 0.00000000 1.00000000 0.00000000
vn 0.00000000 1.00000000 0.00000000
vn 0.77301045 0.00000000 0.63439328
vn 0.77301045 0.00000000 0.63439328
vn 0.77301045 0.00000000 0.63439328
vn 0.77301045 0.00000000 0.63439328
vn 0.00000000 1.00000000 0.00000000
vn 0.00000000 1.00000000 0.00000000
vn 0.00000000 1.00000000 0.00000000
vn 0.00000000 1.00000000 0.00000000
vn 0.88192126 0.00000000 0.47139674
vn 0.88192126 0.00000000 0.47139674
vn 0.88192126 0.00000000 0.47139674
vn 0.88192126 0.00000000 0.47139674
vn 0.00000000 1.00000000 0.00000000
vn 0.00000000 1.00000000 0.00000000
vn 0.00000000 1.00000000 0.00000000
vn 0.00000000 1.00000000 0.00000000
vn 0.95694034 0.00000000 0.29028468
vn 0.95694034 0.00000000 0.29028468
vn 0.95694034 0.00000000 0.29028468
vn 0.95694034 0.00000000 0.29028468
vn 0.00000000 1.00000000 0.00000000
vn 0.00000000 1.00000000 0.00000000
vn 0.00000000 1.00000000 0.00000000
vn 0.00000000 1.00000000 0.00000000
vn 0.99518473 0.00000000 0.09801714
vn 0.99518473 0.00000000 0.09801714
vn 0.99518473 0.00000000 0.09801714
vn 0.99518473 0.00000000 0.09801714
vn 0.00000000 -1.00000000 0.00000000
vn 0.00000000 -1.00000000 0.00000000
vn 0.00000000 -1.00000000 0.00000000
vn 0.00000000 -1.00000000 0.00000000
vn 0.00000000 -1.00000000 0.00000000
vn 0.00000000 -1.00000000 0.00000000
vn 0.00000000 -1.00000000 0.00000000
vn 0.00000000 -1.00000000 0.00000000
vn 0.00000000 -1.00000000 0.00000000
vn 0.00000000 -1.00000000 0.00000000
vn 0.00000000 -1.00000000 0.00000000
vn 0.00000000 -1.00000000 0.00000000
vn 0.00000000 -1.00000000 0.00000000
vn 0.00000000 -1.00000000 0.00000000
vn 0.00000000 -1.00000000 0.00000000
vn 0.00000000 -1.00000000 0.00000000
vn 0.00000000 -1.00000000 0.00000000
vn 0.00000000 -1.00000000 0.00000000
vn 0.00000000 -1.00000000 0.00000000
vn 0.00000000 -1.00000000 0.00000000
vn 0.00000000 1.00000000 0.00000000
vn 0.00000000 1.00000000 0.00000000
vn 0.00000000 1.00000000 0.00000000
vn 0.00000000 1.00000000 0.00000000
vn -1.00000000 0.00000000 0.00000000
vn -1.00000000 0.00000000 0.00000000
vn -1.00000000 0.00000000 0.00000000
vn -1.00000000 0.00000000 0.00000000
s 1
usemtl Sandstone_Floor
f 2/2/2 3/3/3 4/4/4
f 4/4/4 5/5/5 1/1/1
f 1/1/1 2/2/2 4/4/4
s 2
f 4/8/8 7/9/9 8/10/10
f 8/10/10 6/6/6 5/7/7
f 5/7/7 4/8/8 8/10/10
s 3
f 8/13/13 10/14/14 11/15/15
f 11/15/15 9/11/11 6/12/12
f 6/12/12 8/13/13 11/15/15
s 4
f 11/18/18 13/19/19 14/20/20
f 14/20/20 12/16/16 9/17/17
f 9/17/17 11/18/18 14/20/20
s 5
f 14/23/23 16/24/24 17/25/25
f 17/25/25 15/21/21 12/22/22
f 12/22/22 14/23/23 17/25/25
s 6
f 17/28/28 19/29/29 20/30/30
f 20/30/30 18/26/26 15/27/27
f 15/27/27 17/28/28 20/30/30
s 7
f 23/35/35 21/31/31 18/32/32
f 18/32/32 20/33/33 23/35/35
f 20/33/33 22/34/34 23/35/35
s 8
f 23/38/38 25/39/39 26/40/40
f 24/36/36 21/37/37 26/40/40
f 21/37/37 23/38/38 26/40/40
s 9
f 27/41/41 24/42/42 28/44/44
f 24/42/42 26/43/43 28/44/44
s 10
f 29/45/45 27/46/46 30/48/48
f 27/46/46 28/47/47 30/48/48
s 11
f 31/49/49 29/50/50 32/52/52
f 29/50/50 30/51/51 32/52/52
s 12
f 33/53/53 31/54/54 32/55/55
f 32/55/55 34/56/56 35/57/57
f 33/53/53 32/55/55 35/57/57
s 13
f 35/60/60 37/61/61 38/62/62
f 36/58/58 35/60/60 38/62/62
f 36/58/58 33/59/59 35/60/60
s 14
f 38/65/65 40/66/66 41/67/67
f 39/63/63 38/65/65 41/67/67
f 39/63/63 36/64/64 38/65/65
s 15
f 41/70/70 43/71/71 44/72/72
f 42/68/68 41/70/70 44/72/72
f 42/68/68 39/69/69 41/70/70
s 16
f 44/75/75 46/76/76 47/77/77
f 45/73/73 44/75/75 47/77/77
f 45/73/73 42/74/74 44/75/75
s 17
f 47/80/80 49/81/81 50/82/82
f 48/78/78 47/80/80 50/82/82
f 48/78/78 45/79/79 47/80/80
s 18
f 50/85/85 52/86/86 53/87/87
f 51/83/83 50/85/85 53/87/87
f 51/83/83 48/84/84 50/85/85
s 19
f 53/88/88 54/89/89 55/90/90
f 53/88/88 55/90/90 56/91/91
f 56/91/91 51/92/92 53/88/88
s 20
f 32/96/96 30/95/95 28/94/94
f 32/96/96 28/94/94 26/93/93
s 21
f 32/97/97 26/98/98 34/100/100
f 26/98/98 25/99/99 34/100/100
s 22
f 34/102/102 25/101/101 23/104/104
f 23/104/104 35/103/103 34/102/102
s 23
f 35/105/105 23/106/106 22/107/107
f 35/105/105 22/107/107 37/108/108
s 24
f 37/110/110 22/109/109 20/112/112
f 20/112/112 38/111/111 37/110/110
s 25
f 38/113/113 20/114/114 40/116/116
f 20/114/114 19/115/115 40/116/116
s 26
f 19/117/117 17/120/120 41/119/119
f 41/119/119 40/118/118 19/117/117
s 27
f 41/121/121 17/122/122 43/124/124
f 17/122/122 16/123/123 43/124/124
s 28
f 43/126/126 16/125/125 14/128/128
f 14/128/128 44/127/127 43/126/126
s 29
f 44/129/129 14/130/130 13/131/131
f 44/129/129 13/131/131 46/132/132
s 30
f 46/134/134 13/133/133 11/136/136
f 11/136/136 47/135/135 46/134/134
s 31
f 47/137/137 11/138/138 49/140/140
f 11/138/138 10/139/139 49/140/140
s 32
f 10/141/141 8/144/144 50/143/143
f 50/143/143 49/142/142 10/141/141
s 33
f 50/145/145 8/146/146 52/148/148
f 8/146/146 7/147/147 52/148/148
s 34
f 52/150/150 7/149/149 4/152/152
f 4/152/152 53/151/151 52/150/150
s 35
f 4/153/153 3/154/154 53/156/156
f 3/154/154 54/155/155 53/156/156
s 36
f 21/174/174 24/175/175 27/176/176
f 18/173/173 21/174/174 29/157/157
f 29/157/157 31/158/158 9/170/170
f 33/159/159 36/160/160 9/170/170
f 36/160/160 39/161/161 9/170/170
f 39/161/161 42/162/162 9/170/170
f 42/162/162 45/163/163 9/170/170
f 45/163/163 48/164/164 9/170/170
f 48/164/164 51/165/165 9/170/170
f 51/165/165 56/166/166 9/170/170
f 56/166/166 1/167/167 6/169/169
f 1/167/167 5/168/168 6/169/169
f 56/166/166 6/169/169 9/170/170
f 31/158/158 33/159/159 9/170/170
f 9/170/170 12/171/171 29/157/157
f 12/171/171 15/172/172 29/157/157
f 15/172/172 18/173/173 29/157/157
f 21/174/174 27/176/176 29/157/157
s 37
f 2/180/180 55/179/179 54/178/178
f 2/180/180 54/178/178 3/177/177
s 38
f 55/181/181 2/182/182 56/184/184
f 2/182/182 1/183/183 56/184/184
