mtllib 1_pillar_side_base.mtl
o object1
g object1
v -0.25000000 0.00000000 -0.25000000
v 0.25000000 0.00000000 -0.25000000
v 0.25000000 0.00000000 -0.75000000
v -0.25000000 0.00000000 -0.75000000
v -0.20000000 0.20000000 -0.70000000
v 0.20000000 0.20000000 -0.70000000
v -0.20000000 0.20000000 -0.30000000
v 0.20000000 0.20000000 -0.30000000
vt 0.00000000 1.00000000
vt 0.00000000 0.00000000
vt 1.00000000 0.00000000
vt 1.00000000 1.00000000
vt 1.00000000 0.00000000
vt 1.00000000 1.00000000
vt 0.00000000 1.00000000
vt 0.00000000 0.00000000
vt 0.00000000 1.00000000
vt 0.00000000 0.00000000
vt 1.00000000 0.00000000
vt 1.00000000 1.00000000
vt 1.00000000 0.00000000
vt 1.00000000 1.00000000
vt 0.00000000 1.00000000
vt 0.00000000 0.00000000
vt 1.00000000 0.00000000
vt 1.00000000 1.00000000
vt 0.00000000 1.00000000
vt 0.00000000 0.00000000
vt 1.00000000 0.00000000
vt 1.00000000 1.00000000
vt 0.00000000 1.00000000
vt 0.00000000 0.00000000
vn 0.00000000 -1.00000000 0.00000000
vn 0.00000000 -1.00000000 0.00000000
vn 0.00000000 -1.00000000 0.00000000
vn 0.00000000 -1.00000000 0.00000000
vn 0.00000000 0.24253563 -0.97014250
vn 0.00000000 0.24253563 -0.97014250
vn 0.00000000 0.24253563 -0.97014250
vn 0.00000000 0.24253563 -0.97014250
vn 0.00000000 1.00000000 0.00000000
vn 0.00000000 1.00000000 0.00000000
vn 0.00000000 1.00000000 0.00000000
vn 0.00000000 1.00000000 0.00000000
vn -0.97014250 0.24253563 0.00000000
vn -0.97014250 0.24253563 0.00000000
vn -0.97014250 0.24253563 0.00000000
vn -0.97014250 0.24253563 0.00000000
vn 0.00000000 0.24253563 0.97014250
vn 0.00000000 0.24253563 0.97014250
vn 0.00000000 0.24253563 0.97014250
vn 0.00000000 0.24253563 0.97014250
vn 0.97014250 0.24253563 0.00000000
vn 0.97014250 0.24253563 0.00000000
vn 0.97014250 0.24253563 0.00000000
vn 0.97014250 0.24253563 0.00000000
s 1
usemtl Sandstone_5
f 4/4/4 3/3/3 2/2/2
f 4/4/4 2/2/2 1/1/1
s 2
f 3/5/5 4/6/6 6/8/8
f 4/6/6 5/7/7 6/8/8
s 3
f 7/9/9 8/10/10 6/11/11
f 7/9/9 6/11/11 5/12/12
s 4
f 4/13/13 1/14/14 7/15/15
f 4/13/13 7/15/15 5/16/16
s 5
f 1/17/17 2/18/18 8/19/19
f 1/17/17 8/19/19 7/20/20
s 6
f 2/21/21 3/22/22 8/24/24
f 3/22/22 6/23/23 8/24/24
