mtllib 1_pillar_corner_base.mtl
o object1
g object1
v 0.50000000 0.00000000 -0.14644661
v 0.85355339 0.00000000 -0.50000000
v 0.78284271 0.20000000 -0.50000000
v 0.50000000 0.20000000 -0.21715729
v 0.14644661 0.00000000 -0.50000000
v 0.50000000 0.00000000 -0.85355339
v 0.21715729 0.20000000 -0.50000000
v 0.50000000 0.20000000 -0.78284271
vt 1.00000000 0.00000000
vt 1.00000000 1.00000000
vt 0.00000000 1.00000000
vt 0.00000000 0.00000000
vt 0.00000000 1.00000000
vt 0.00000000 0.00000000
vt 1.00000000 0.00000000
vt 1.00000000 1.00000000
vt 1.00000000 0.00000000
vt 1.00000000 1.00000000
vt 0.00000000 1.00000000
vt 0.00000000 0.00000000
vt 1.00000000 0.00000000
vt 1.00000000 1.00000000
vt 0.00000000 1.00000000
vt 0.00000000 0.00000000
vt 0.00000000 1.00000000
vt 0.00000000 0.00000000
vt 1.00000000 0.00000000
vt 1.00000000 1.00000000
vt 1.00000000 0.00000000
vt 1.00000000 1.00000000
vt 0.00000000 1.00000000
vt 0.00000000 0.00000000
vn 0.68599434 0.24253563 0.68599434
vn 0.68599434 0.24253563 0.68599434
vn 0.68599434 0.24253563 0.68599434
vn 0.68599434 0.24253563 0.68599434
vn 0.00000000 -1.00000000 0.00000000
vn 0.00000000 -1.00000000 0.00000000
vn 0.00000000 -1.00000000 0.00000000
vn 0.00000000 -1.00000000 0.00000000
vn -0.68599434 0.24253563 -0.68599434
vn -0.68599434 0.24253563 -0.68599434
vn -0.68599434 0.24253563 -0.68599434
vn -0.68599434 0.24253563 -0.68599434
vn -0.68599434 0.24253563 0.68599434
vn -0.68599434 0.24253563 0.68599434
vn -0.68599434 0.24253563 0.68599434
vn -0.68599434 0.24253563 0.68599434
vn 0.00000000 1.00000000 0.00000000
vn 0.00000000 1.00000000 0.00000000
vn 0.00000000 1.00000000 0.00000000
vn 0.00000000 1.00000000 0.00000000
vn 0.68599434 0.24253563 -0.68599434
vn 0.68599434 0.24253563 -0.68599434
vn 0.68599434 0.24253563 -0.68599434
vn 0.68599434 0.24253563 -0.68599434
s 1
usemtl Sandstone_5
f 1/1/1 2/2/2 4/4/4
f 2/2/2 3/3/3 4/4/4
s 2
f 6/8/8 2/7/7 5/5/5
f 2/7/7 1/6/6 5/5/5
s 3
f 6/9/9 5/10/10 7/11/11
f 6/9/9 7/11/11 8/12/12
s 4
f 5/13/13 1/14/14 4/15/15
f 5/13/13 4/15/15 7/16/16
s 5
f 7/17/17 4/18/18 8/20/20
f 4/18/18 3/19/19 8/20/20
s 6
f 2/21/21 6/22/22 3/24/24
f 6/22/22 8/23/23 3/24/24
