mtllib 2_big_pillar_ceiling.mtl
o object1
g object1
v 0.50000000 0.85000000 -0.20000000
v 0.50000000 0.85000000 -0.25000000
v -0.50000000 0.85000000 -0.25000000
v -0.50000000 0.85000000 -0.20000000
v 0.50000000 1.00000000 -0.25000000
v 0.50000000 1.00000000 -0.35000000
v 0.50000000 1.00000000 -0.65000000
v 0.50000000 1.00000000 -0.75000000
v 0.50000000 0.85000000 -0.75000000
v 0.50000000 0.85000000 -0.80000000
v 0.50000000 0.70000000 -0.80000000
v 0.50000000 0.70000000 -0.65000000
v 0.50000000 0.75000000 -0.65000000
v 0.50000000 0.75000000 -0.35000000
v 0.50000000 0.70000000 -0.35000000
v 0.50000000 0.70000000 -0.20000000
v -0.50000000 1.00000000 -0.75000000
v -0.50000000 0.85000000 -0.75000000
v -0.50000000 0.85000000 -0.80000000
v -0.50000000 0.70000000 -0.80000000
v -0.50000000 0.70000000 -0.65000000
v -0.50000000 0.75000000 -0.65000000
v -0.50000000 0.75000000 -0.35000000
v -0.50000000 0.70000000 -0.35000000
v -0.50000000 0.70000000 -0.20000000
v -0.50000000 1.00000000 -0.25000000
v -0.50000000 1.00000000 -0.35000000
vt 1.00000000 0.00000000
vt 1.00000000 1.00000000
vt 0.00000000 1.00000000
vt 0.00000000 0.00000000
vt 0.08333333 0.50000000
vt 0.08333333 0.00000000
vt 0.25000000 0.00000000
vt 0.75000000 0.00000000
vt 0.91666667 0.00000000
vt 0.91666667 0.50000000
vt 1.00000000 0.50000000
vt 1.00000000 1.00000000
vt 0.75000000 1.00000000
vt 0.75000000 0.83333333
vt 0.25000000 0.83333333
vt 0.25000000 1.00000000
vt 0.00000000 1.00000000
vt 0.00000000 0.50000000
vt 1.00000000 0.00000000
vt 1.00000000 1.00000000
vt 0.00000000 1.00000000
vt 0.00000000 0.00000000
vt 1.00000000 0.00000000
vt 1.00000000 1.00000000
vt 0.00000000 1.00000000
vt 0.00000000 0.00000000
vt 1.00000000 0.00000000
vt 1.00000000 1.00000000
vt 0.00000000 1.00000000
vt 0.00000000 0.00000000
vt 1.00000000 0.00000000
vt 1.00000000 1.00000000
vt 0.00000000 1.00000000
vt 0.00000000 0.00000000
vt 1.00000000 1.00000000
vt 0.00000000 1.00000000
vt 0.00000000 0.00000000
vt 1.00000000 0.00000000
vt 1.00000000 1.00000000
vt 0.00000000 1.00000000
vt 0.00000000 0.00000000
vt 1.00000000 0.00000000
vt 1.00000000 0.00000000
vt 1.00000000 1.00000000
vt 0.00000000 1.00000000
vt 0.00000000 0.00000000
vt 1.00000000 0.00000000
vt 1.00000000 1.00000000
vt 0.00000000 1.00000000
vt 0.00000000 0.00000000
vt 0.00000000 1.00000000
vt 0.00000000 0.00000000
vt 0.20000000 0.00000000
vt 1.00000000 0.00000000
vt 1.00000000 1.00000000
vt 0.80000000 1.00000000
vt 0.20000000 1.00000000
vt 1.00000000 0.00000000
vt 1.00000000 1.00000000
vt 0.00000000 1.00000000
vt 0.00000000 0.00000000
vt 0.08333333 0.50000000
vt 0.08333333 0.00000000
vt 0.25000000 0.00000000
vt 0.91666667 0.00000000
vt 0.91666667 0.50000000
vt 1.00000000 0.50000000
vt 1.00000000 1.00000000
vt 0.75000000 1.00000000
vt 0.75000000 0.83333333
vt 0.25000000 0.83333333
vt 0.25000000 1.00000000
vt 0.00000000 1.00000000
vt 0.00000000 0.50000000
vt 1.00000000 0.00000000
vt 1.00000000 1.00000000
vt 0.00000000 1.00000000
vt 0.00000000 0.00000000
vn -0.00000000 1.00000000 0.00000000
vn -0.00000000 1.00000000 0.00000000
vn -0.00000000 1.00000000 0.00000000
vn -0.00000000 1.00000000 0.00000000
vn 1.00000000 0.00000000 0.00000000
vn 1.00000000 0.00000000 0.00000000
vn 1.00000000 0.00000000 0.00000000
vn 1.00000000 0.00000000 0.00000000
vn 1.00000000 0.00000000 0.00000000
vn 1.00000000 0.00000000 0.00000000
vn 1.00000000 0.00000000 0.00000000
vn 1.00000000 0.00000000 0.00000000
vn 1.00000000 0.00000000 0.00000000
vn 1.00000000 0.00000000 0.00000000
vn 1.00000000 0.00000000 0.00000000
vn 1.00000000 0.00000000 0.00000000
vn 1.00000000 0.00000000 0.00000000
vn 1.00000000 0.00000000 0.00000000
vn 0.00000000 0.00000000 -1.00000000
vn 0.00000000 0.00000000 -1.00000000
vn 0.00000000 0.00000000 -1.00000000
vn 0.00000000 0.00000000 -1.00000000
vn -0.00000000 1.00000000 0.00000000
vn -0.00000000 1.00000000 0.00000000
vn -0.00000000 1.00000000 0.00000000
vn -0.00000000 1.00000000 0.00000000
vn 0.00000000 0.00000000 -1.00000000
vn 0.00000000 0.00000000 -1.00000000
vn 0.00000000 0.00000000 -1.00000000
vn 0.00000000 0.00000000 -1.00000000
vn 0.00000000 -1.00000000 0.00000000
vn 0.00000000 -1.00000000 0.00000000
vn 0.00000000 -1.00000000 0.00000000
vn 0.00000000 -1.00000000 0.00000000
vn -0.00000000 0.00000000 1.00000000
vn -0.00000000 0.00000000 1.00000000
vn -0.00000000 0.00000000 1.00000000
vn -0.00000000 0.00000000 1.00000000
vn 0.00000000 -1.00000000 0.00000000
vn 0.00000000 -1.00000000 0.00000000
vn 0.00000000 -1.00000000 0.00000000
vn 0.00000000 -1.00000000 0.00000000
vn 0.00000000 0.00000000 -1.00000000
vn 0.00000000 0.00000000 -1.00000000
vn 0.00000000 0.00000000 -1.00000000
vn 0.00000000 0.00000000 -1.00000000
vn 0.00000000 -1.00000000 0.00000000
vn 0.00000000 -1.00000000 0.00000000
vn 0.00000000 -1.00000000 0.00000000
vn 0.00000000 -1.00000000 0.00000000
vn -0.00000000 1.00000000 -0.00000000
vn -0.00000000 1.00000000 -0.00000000
vn -0.00000000 1.00000000 -0.00000000
vn -0.00000000 1.00000000 -0.00000000
vn -0.00000000 1.00000000 -0.00000000
vn -0.00000000 1.00000000 -0.00000000
vn -0.00000000 1.00000000 -0.00000000
vn 0.00000000 0.00000000 1.00000000
vn 0.00000000 0.00000000 1.00000000
vn 0.00000000 0.00000000 1.00000000
vn 0.00000000 0.00000000 1.00000000
vn -1.00000000 -0.00000000 -0.00000000
vn -1.00000000 -0.00000000 -0.00000000
vn -1.00000000 -0.00000000 -0.00000000
vn -1.00000000 -0.00000000 -0.00000000
vn -1.00000000 -0.00000000 -0.00000000
vn -1.00000000 -0.00000000 -0.00000000
vn -1.00000000 -0.00000000 -0.00000000
vn -1.00000000 -0.00000000 -0.00000000
vn -1.00000000 -0.00000000 -0.00000000
vn -1.00000000 -0.00000000 -0.00000000
vn -1.00000000 -0.00000000 -0.00000000
vn -1.00000000 -0.00000000 -0.00000000
vn -1.00000000 -0.00000000 -0.00000000
vn 0.00000000 0.00000000 1.00000000
vn 0.00000000 0.00000000 1.00000000
vn 0.00000000 0.00000000 1.00000000
vn 0.00000000 0.00000000 1.00000000
s 1
usemtl Sandstone_4
f 1/1/1 2/2/2 4/4/4
f 2/2/2 3/3/3 4/4/4
s 2
f 16/17/17 15/16/16 14/15/15
f 14/15/15 7/8/8 6/7/7
f 6/7/7 5/6/6 2/5/5
f 13/14/14 9/10/10 7/8/8
f 11/12/12 10/11/11 9/10/10
f 13/14/14 11/12/12 9/10/10
f 13/14/14 12/13/13 11/12/12
f 9/10/10 8/9/9 7/8/8
f 14/15/15 13/14/14 7/8/8
f 6/7/7 2/5/5 14/15/15
f 2/5/5 16/17/17 14/15/15
f 2/5/5 1/18/18 16/17/17
s 3
usemtl Sandstone_6
f 18/22/22 17/21/21 9/19/19
f 17/21/21 8/20/20 9/19/19
s 4
usemtl Sandstone_4
f 9/23/23 10/24/24 18/26/26
f 10/24/24 19/25/25 18/26/26
s 5
f 10/27/27 11/28/28 19/30/30
f 11/28/28 20/29/29 19/30/30
s 6
f 11/31/31 12/32/32 20/34/34
f 12/32/32 21/33/33 20/34/34
s 7
f 13/38/38 22/37/37 12/35/35
f 22/37/37 21/36/36 12/35/35
s 8
usemtl Sandstone_6
f 14/39/39 23/40/40 13/42/42
f 23/40/40 22/41/41 13/42/42
s 9
usemtl Sandstone_4
f 14/43/43 15/44/44 23/46/46
f 15/44/44 24/45/45 23/46/46
s 10
f 15/47/47 16/48/48 24/50/50
f 16/48/48 25/49/49 24/50/50
s 11
usemtl Sandstone_6
f 8/55/55 17/54/54 27/53/53
f 27/53/53 26/52/52 7/56/56
f 26/52/52 6/57/57 7/56/56
f 26/52/52 5/51/51 6/57/57
f 7/56/56 8/55/55 27/53/53
s 12
usemtl Sandstone_4
f 4/61/61 25/60/60 1/58/58
f 25/60/60 16/59/59 1/58/58
s 13
f 23/71/71 24/72/72 25/73/73
f 25/73/73 4/74/74 3/62/62
f 3/62/62 26/63/63 27/64/64
f 27/64/64 17/65/65 22/70/70
f 18/66/66 20/68/68 22/70/70
f 18/66/66 19/67/67 20/68/68
f 20/68/68 21/69/69 22/70/70
f 17/65/65 18/66/66 22/70/70
f 22/70/70 23/71/71 27/64/64
f 23/71/71 3/62/62 27/64/64
f 23/71/71 25/73/73 3/62/62
s 14
usemtl Sandstone_6
f 2/75/75 5/76/76 3/78/78
f 5/76/76 26/77/77 3/78/78
