mtllib 2_big_pillar_wall_to_ceiling.mtl
o object1
g object1
v 0.14671567 0.26787840 -0.80000000
v 0.20000000 0.00000000 -0.80000000
v 0.20000000 0.00000000 -0.65000000
v 0.14671567 0.26787840 -0.65000000
v -0.23212160 0.64671567 -0.80000000
v -0.50000000 0.70000000 -0.80000000
v -0.50000000 0.85000000 -0.80000000
v -0.17471908 0.78529760 -0.80000000
v 0.10104076 0.60104076 -0.80000000
v 0.28529760 0.32528092 -0.80000000
v 0.35000000 0.00000000 -0.80000000
v -0.00502525 0.49497475 -0.80000000
v -0.23212160 0.64671567 -0.65000000
v -0.50000000 0.70000000 -0.65000000
v -0.00502525 0.49497475 -0.65000000
v 0.35000000 0.00000000 -0.75000000
v 0.28529760 0.32528092 -0.75000000
v -0.17471908 0.78529760 -0.75000000
v -0.50000000 0.85000000 -0.75000000
v -0.50000000 1.00000000 -0.75000000
v 0.50000000 1.00000000 -0.75000000
v 0.65000000 1.00000000 -0.75000000
v 0.65000000 0.00000000 -0.75000000
v 0.10104076 0.60104076 -0.75000000
v 0.65000000 -0.00000000 -0.80000000
v 0.65000000 1.00000000 -0.80000000
v 0.80000000 -0.00000000 -0.80000000
v 0.80000000 1.00000000 -0.80000000
v 0.80000000 0.00000000 -0.65000000
v 0.80000000 1.00000000 -0.65000000
v 0.75000000 -0.00000000 -0.65000000
v 0.75000000 1.00000000 -0.65000000
v 0.75000000 1.00000000 -0.35000000
v 0.75000000 -0.00000000 -0.35000000
v 0.80000000 1.00000000 -0.35000000
v 0.80000000 0.00000000 -0.35000000
v 0.80000000 0.00000000 -0.20000000
v 0.80000000 1.00000000 -0.20000000
v 0.65000000 0.00000000 -0.20000000
v 0.65000000 1.00000000 -0.20000000
v 0.65000000 0.00000000 -0.25000000
v 0.65000000 1.00000000 -0.25000000
v -0.17471908 0.78529760 -0.25000000
v -0.50000000 0.85000000 -0.25000000
v -0.50000000 1.00000000 -0.25000000
v 0.50000000 1.00000000 -0.25000000
v 0.35000000 0.00000000 -0.25000000
v 0.28529760 0.32528092 -0.25000000
v 0.10104076 0.60104076 -0.25000000
v 0.35000000 0.00000000 -0.20000000
v 0.28529760 0.32528092 -0.20000000
v -0.23212160 0.64671567 -0.20000000
v -0.50000000 0.70000000 -0.20000000
v -0.50000000 0.85000000 -0.20000000
v -0.17471908 0.78529760 -0.20000000
v 0.10104076 0.60104076 -0.20000000
v 0.20000000 0.00000000 -0.20000000
v 0.14671567 0.26787840 -0.20000000
v -0.00502525 0.49497475 -0.20000000
v 0.14671567 0.26787840 -0.35000000
v 0.20000000 0.00000000 -0.35000000
v -0.21298743 0.69290965 -0.35000000
v 0.03033009 0.53033009 -0.35000000
v 0.19290965 0.28701257 -0.35000000
v 0.25000000 0.00000000 -0.35000000
v -0.00502525 0.49497475 -0.35000000
v -0.23212160 0.64671567 -0.35000000
v -0.50000000 0.70000000 -0.35000000
v -0.50000000 0.75000000 -0.35000000
v -0.21298743 0.69290965 -0.65000000
v 0.03033009 0.53033009 -0.65000000
v -0.50000000 0.75000000 -0.65000000
v 0.19290965 0.28701257 -0.65000000
v 0.25000000 0.00000000 -0.65000000
v -0.50000000 1.00000000 -0.65000000
vt 1.00000000 0.00000000
vt 1.00000000 1.00000000
vt 0.00000000 1.00000000
vt 0.00000000 0.00000000
vt 0.76084197 0.31515106
vt 0.82352941 0.00000000
vt 1.00000000 0.00000000
vt 0.92387953 0.38268343
vt 0.70710678 0.70710678
vt 0.38268343 0.92387953
vt 0.00000000 1.00000000
vt 0.00000000 0.82352941
vt 0.31515106 0.76084197
vt 0.58232323 0.58232323
vt 1.00000000 0.00000000
vt 1.00000000 1.00000000
vt 0.00000000 1.00000000
vt 0.00000000 0.00000000
vt 1.00000000 0.00000000
vt 1.00000000 1.00000000
vt 0.00000000 1.00000000
vt 0.00000000 0.00000000
vt 1.00000000 0.00000000
vt 1.00000000 1.00000000
vt 0.00000000 1.00000000
vt 0.00000000 0.00000000
vt 0.78529760 0.28285297
vt 0.85000000 0.00000000
vt 1.00000000 0.00000000
vt 1.00000000 0.86956522
vt 1.00000000 1.00000000
vt 0.00000000 1.00000000
vt 0.00000000 0.73913043
vt 0.32528092 0.68286748
vt 0.60104076 0.52264414
vt 1.00000000 0.00000000
vt 1.00000000 1.00000000
vt 0.00000000 1.00000000
vt 0.00000000 0.00000000
vt 1.00000000 0.00000000
vt 1.00000000 1.00000000
vt 0.00000000 1.00000000
vt 0.00000000 0.00000000
vt 1.00000000 0.00000000
vt 1.00000000 1.00000000
vt 0.00000000 1.00000000
vt 0.00000000 0.00000000
vt 1.00000000 0.00000000
vt 1.00000000 1.00000000
vt 0.00000000 1.00000000
vt 0.00000000 0.00000000
vt 1.00000000 1.00000000
vt 0.00000000 1.00000000
vt 0.00000000 0.00000000
vt 1.00000000 0.00000000
vt 1.00000000 1.00000000
vt 0.00000000 1.00000000
vt 0.00000000 0.00000000
vt 1.00000000 0.00000000
vt 1.00000000 0.00000000
vt 1.00000000 1.00000000
vt 0.00000000 1.00000000
vt 0.00000000 0.00000000
vt 1.00000000 0.00000000
vt 1.00000000 1.00000000
vt 0.00000000 1.00000000
vt 0.00000000 0.00000000
vt 1.00000000 0.00000000
vt 1.00000000 1.00000000
vt 0.00000000 1.00000000
vt 0.00000000 0.00000000
vt 0.78529760 0.28285297
vt 0.85000000 0.00000000
vt 1.00000000 0.00000000
vt 1.00000000 0.86956522
vt 1.00000000 1.00000000
vt 0.00000000 1.00000000
vt 0.00000000 0.73913043
vt 0.32528092 0.68286748
vt 0.60104076 0.52264414
vt 1.00000000 0.00000000
vt 1.00000000 1.00000000
vt 0.00000000 1.00000000
vt 0.00000000 0.00000000
vt 0.76084197 0.31515106
vt 0.82352941 0.00000000
vt 1.00000000 0.00000000
vt 0.92387953 0.38268343
vt 0.70710678 0.70710678
vt 0.38268343 0.92387953
vt 0.00000000 1.00000000
vt 0.00000000 0.82352941
vt 0.31515106 0.76084197
vt 0.58232323 0.58232323
vt 1.00000000 0.00000000
vt 1.00000000 1.00000000
vt 0.00000000 1.00000000
vt 0.00000000 0.00000000
vt 0.92387953 0.38268343
vt 0.70710678 0.70710678
vt 0.38268343 0.92387953
vt 0.00000000 1.00000000
vt 0.00000000 0.93333333
vt 0.35717120 0.86228756
vt 0.65996633 0.65996633
vt 0.86228756 0.35717120
vt 0.93333333 0.00000000
vt 1.00000000 0.00000000
vt 1.00000000 0.00000000
vt 1.00000000 1.00000000
vt 0.00000000 1.00000000
vt 0.00000000 0.00000000
vt 1.00000000 0.00000000
vt 1.00000000 1.00000000
vt 0.00000000 1.00000000
vt 0.00000000 0.00000000
vt 1.00000000 0.00000000
vt 1.00000000 1.00000000
vt 0.00000000 1.00000000
vt 0.00000000 0.00000000
vt 1.00000000 0.00000000
vt 1.00000000 1.00000000
vt 0.00000000 1.00000000
vt 0.00000000 0.00000000
vt 1.00000000 0.00000000
vt 1.00000000 1.00000000
vt 0.00000000 1.00000000
vt 0.00000000 0.00000000
vt 1.00000000 0.00000000
vt 1.00000000 1.00000000
vt 0.00000000 1.00000000
vt 0.00000000 0.00000000
vt 1.00000000 0.00000000
vt 1.00000000 1.00000000
vt 0.00000000 1.00000000
vt 0.00000000 0.00000000
vt 1.00000000 0.00000000
vt 1.00000000 1.00000000
vt 0.00000000 1.00000000
vt 0.00000000 0.00000000
vt 1.00000000 0.00000000
vt 1.00000000 1.00000000
vt 0.00000000 1.00000000
vt 0.00000000 0.00000000
vt 1.00000000 0.00000000
vt 1.00000000 1.00000000
vt 0.00000000 1.00000000
vt 0.00000000 0.00000000
vt 0.00000000 0.00000000
vt 0.25000000 0.00000000
vt 0.25000000 0.03846154
vt 0.75000000 0.03846154
vt 0.75000000 0.00000000
vt 1.00000000 0.00000000
vt 1.00000000 0.11538462
vt 0.91666667 0.11538462
vt 0.91666667 0.23076923
vt 0.91666667 1.00000000
vt 0.25000000 1.00000000
vt 0.08333333 1.00000000
vt 0.08333333 0.23076923
vt 0.08333333 0.11538462
vt 0.00000000 0.11538462
vt 1.00000000 0.00000000
vt 1.00000000 1.00000000
vt 0.00000000 1.00000000
vt 0.00000000 0.00000000
vt 1.00000000 0.00000000
vt 1.00000000 1.00000000
vt 0.00000000 1.00000000
vt 0.00000000 0.00000000
vt 1.00000000 0.00000000
vt 1.00000000 1.00000000
vt 0.00000000 1.00000000
vt 0.00000000 0.00000000
vt 0.08333333 0.50000000
vt 0.08333333 0.00000000
vt 0.25000000 0.00000000
vt 0.91666667 0.00000000
vt 0.91666667 0.50000000
vt 1.00000000 0.50000000
vt 1.00000000 1.00000000
vt 0.75000000 1.00000000
vt 0.75000000 0.83333333
vt 0.25000000 0.83333333
vt 0.25000000 1.00000000
vt 0.00000000 1.00000000
vt 0.00000000 0.50000000
vt 1.00000000 0.00000000
vt 1.00000000 1.00000000
vt 0.00000000 1.00000000
vt 0.00000000 0.00000000
vt 0.86228756 0.35717120
vt 0.93333333 0.00000000
vt 1.00000000 0.00000000
vt 0.92387953 0.38268343
vt 0.70710678 0.70710678
vt 0.38268343 0.92387953
vt 0.00000000 1.00000000
vt 0.00000000 0.93333333
vt 0.35717120 0.86228756
vt 0.65996633 0.65996633
vt 0.00000000 0.00000000
vt 0.25000000 0.00000000
vt 0.25000000 0.08333333
vt 0.75000000 0.08333333
vt 0.75000000 0.00000000
vt 1.00000000 0.00000000
vt 1.00000000 0.25000000
vt 0.91666667 0.25000000
vt 0.91666667 0.75000000
vt 1.00000000 0.75000000
vt 1.00000000 1.00000000
vt 0.75000000 1.00000000
vt 0.75000000 0.91666667
vt 0.25000000 0.91666667
vt 0.25000000 1.00000000
vt 0.00000000 1.00000000
vt 0.00000000 0.75000000
vt 0.08333333 0.75000000
vt 0.08333333 0.25000000
vt 0.00000000 0.25000000
vn -0.98078528 -0.19509032 0.00000000
vn -0.98078528 -0.19509032 0.00000000
vn -0.98078528 -0.19509032 0.00000000
vn -0.98078528 -0.19509032 0.00000000
vn 0.00000000 0.00000000 -1.00000000
vn 0.00000000 0.00000000 -1.00000000
vn 0.00000000 0.00000000 -1.00000000
vn 0.00000000 0.00000000 -1.00000000
vn 0.00000000 0.00000000 -1.00000000
vn 0.00000000 0.00000000 -1.00000000
vn 0.00000000 0.00000000 -1.00000000
vn 0.00000000 0.00000000 -1.00000000
vn 0.00000000 0.00000000 -1.00000000
vn 0.00000000 0.00000000 -1.00000000
vn -0.19509032 -0.98078528 0.00000000
vn -0.19509032 -0.98078528 0.00000000
vn -0.19509032 -0.98078528 0.00000000
vn -0.19509032 -0.98078528 0.00000000
vn -0.55557023 -0.83146961 0.00000000
vn -0.55557023 -0.83146961 0.00000000
vn -0.55557023 -0.83146961 0.00000000
vn -0.55557023 -0.83146961 0.00000000
vn 0.98078528 0.19509032 0.00000000
vn 0.98078528 0.19509032 0.00000000
vn 0.98078528 0.19509032 0.00000000
vn 0.98078528 0.19509032 0.00000000
vn 0.00000000 0.00000000 -1.00000000
vn 0.00000000 0.00000000 -1.00000000
vn 0.00000000 0.00000000 -1.00000000
vn 0.00000000 0.00000000 -1.00000000
vn 0.00000000 0.00000000 -1.00000000
vn 0.00000000 0.00000000 -1.00000000
vn 0.00000000 0.00000000 -1.00000000
vn 0.00000000 0.00000000 -1.00000000
vn 0.00000000 0.00000000 -1.00000000
vn -1.00000000 0.00000000 0.00000000
vn -1.00000000 0.00000000 0.00000000
vn -1.00000000 0.00000000 0.00000000
vn -1.00000000 0.00000000 0.00000000
vn 0.00000000 -0.00000000 -1.00000000
vn 0.00000000 -0.00000000 -1.00000000
vn 0.00000000 -0.00000000 -1.00000000
vn 0.00000000 -0.00000000 -1.00000000
vn 1.00000000 -0.00000000 0.00000000
vn 1.00000000 -0.00000000 0.00000000
vn 1.00000000 -0.00000000 0.00000000
vn 1.00000000 -0.00000000 0.00000000
vn 0.00000000 0.00000000 1.00000000
vn 0.00000000 0.00000000 1.00000000
vn 0.00000000 0.00000000 1.00000000
vn 0.00000000 0.00000000 1.00000000
vn 1.00000000 -0.00000000 0.00000000
vn 1.00000000 -0.00000000 0.00000000
vn 1.00000000 -0.00000000 0.00000000
vn 1.00000000 -0.00000000 0.00000000
vn 0.00000000 0.00000000 -1.00000000
vn 0.00000000 0.00000000 -1.00000000
vn 0.00000000 0.00000000 -1.00000000
vn 0.00000000 0.00000000 -1.00000000
vn 1.00000000 -0.00000000 0.00000000
vn 1.00000000 -0.00000000 0.00000000
vn 1.00000000 -0.00000000 0.00000000
vn 1.00000000 -0.00000000 0.00000000
vn 0.00000000 0.00000000 1.00000000
vn 0.00000000 0.00000000 1.00000000
vn 0.00000000 0.00000000 1.00000000
vn 0.00000000 0.00000000 1.00000000
vn -1.00000000 0.00000000 0.00000000
vn -1.00000000 0.00000000 0.00000000
vn -1.00000000 0.00000000 0.00000000
vn -1.00000000 0.00000000 0.00000000
vn 0.00000000 0.00000000 1.00000000
vn 0.00000000 0.00000000 1.00000000
vn 0.00000000 0.00000000 1.00000000
vn 0.00000000 0.00000000 1.00000000
vn 0.00000000 0.00000000 1.00000000
vn 0.00000000 0.00000000 1.00000000
vn 0.00000000 0.00000000 1.00000000
vn 0.00000000 0.00000000 1.00000000
vn 0.00000000 0.00000000 1.00000000
vn 0.98078528 0.19509032 0.00000000
vn 0.98078528 0.19509032 0.00000000
vn 0.98078528 0.19509032 0.00000000
vn 0.98078528 0.19509032 0.00000000
vn 0.00000000 0.00000000 1.00000000
vn 0.00000000 0.00000000 1.00000000
vn 0.00000000 0.00000000 1.00000000
vn 0.00000000 0.00000000 1.00000000
vn 0.00000000 0.00000000 1.00000000
vn 0.00000000 0.00000000 1.00000000
vn 0.00000000 0.00000000 1.00000000
vn 0.00000000 0.00000000 1.00000000
vn 0.00000000 0.00000000 1.00000000
vn 0.00000000 0.00000000 1.00000000
vn -0.98078528 -0.19509032 0.00000000
vn -0.98078528 -0.19509032 0.00000000
vn -0.98078528 -0.19509032 0.00000000
vn -0.98078528 -0.19509032 0.00000000
vn 0.00000000 0.00000000 -1.00000000
vn 0.00000000 0.00000000 -1.00000000
vn 0.00000000 0.00000000 -1.00000000
vn 0.00000000 0.00000000 -1.00000000
vn 0.00000000 0.00000000 -1.00000000
vn 0.00000000 0.00000000 -1.00000000
vn 0.00000000 0.00000000 -1.00000000
vn 0.00000000 0.00000000 -1.00000000
vn 0.00000000 0.00000000 -1.00000000
vn 0.00000000 0.00000000 -1.00000000
vn -0.55557023 -0.83146961 0.00000000
vn -0.55557023 -0.83146961 0.00000000
vn -0.55557023 -0.83146961 0.00000000
vn -0.55557023 -0.83146961 0.00000000
vn -0.19509032 -0.98078528 0.00000000
vn -0.19509032 -0.98078528 0.00000000
vn -0.19509032 -0.98078528 0.00000000
vn -0.19509032 -0.98078528 0.00000000
vn -0.98078528 -0.19509032 0.00000000
vn -0.98078528 -0.19509032 0.00000000
vn -0.98078528 -0.19509032 0.00000000
vn -0.98078528 -0.19509032 0.00000000
vn -0.83146961 -0.55557023 0.00000000
vn -0.83146961 -0.55557023 0.00000000
vn -0.83146961 -0.55557023 0.00000000
vn -0.83146961 -0.55557023 0.00000000
vn -0.83146961 -0.55557023 0.00000000
vn -0.83146961 -0.55557023 0.00000000
vn -0.83146961 -0.55557023 0.00000000
vn -0.83146961 -0.55557023 0.00000000
vn -0.55557023 -0.83146961 0.00000000
vn -0.55557023 -0.83146961 0.00000000
vn -0.55557023 -0.83146961 0.00000000
vn -0.55557023 -0.83146961 0.00000000
vn -0.19509032 -0.98078528 0.00000000
vn -0.19509032 -0.98078528 0.00000000
vn -0.19509032 -0.98078528 0.00000000
vn -0.19509032 -0.98078528 0.00000000
vn 0.83146961 0.55557023 0.00000000
vn 0.83146961 0.55557023 0.00000000
vn 0.83146961 0.55557023 0.00000000
vn 0.83146961 0.55557023 0.00000000
vn 0.55557023 0.83146961 0.00000000
vn 0.55557023 0.83146961 0.00000000
vn 0.55557023 0.83146961 0.00000000
vn 0.55557023 0.83146961 0.00000000
vn 0.19509032 0.98078528 0.00000000
vn 0.19509032 0.98078528 0.00000000
vn 0.19509032 0.98078528 0.00000000
vn 0.19509032 0.98078528 0.00000000
vn 0.00000000 1.00000000 0.00000000
vn 0.00000000 1.00000000 0.00000000
vn 0.00000000 1.00000000 0.00000000
vn 0.00000000 1.00000000 0.00000000
vn 0.00000000 1.00000000 0.00000000
vn 0.00000000 1.00000000 0.00000000
vn 0.00000000 1.00000000 0.00000000
vn 0.00000000 1.00000000 0.00000000
vn 0.00000000 1.00000000 0.00000000
vn 0.00000000 1.00000000 0.00000000
vn 0.00000000 1.00000000 0.00000000
vn 0.00000000 1.00000000 0.00000000
vn 0.00000000 1.00000000 0.00000000
vn 0.00000000 1.00000000 0.00000000
vn 0.00000000 1.00000000 0.00000000
vn 0.83146961 0.55557023 0.00000000
vn 0.83146961 0.55557023 0.00000000
vn 0.83146961 0.55557023 0.00000000
vn 0.83146961 0.55557023 0.00000000
vn 0.55557023 0.83146961 0.00000000
vn 0.55557023 0.83146961 0.00000000
vn 0.55557023 0.83146961 0.00000000
vn 0.55557023 0.83146961 0.00000000
vn 0.19509032 0.98078528 0.00000000
vn 0.19509032 0.98078528 0.00000000
vn 0.19509032 0.98078528 0.00000000
vn 0.19509032 0.98078528 0.00000000
vn -1.00000000 0.00000000 -0.00000000
vn -1.00000000 0.00000000 -0.00000000
vn -1.00000000 0.00000000 -0.00000000
vn -1.00000000 0.00000000 -0.00000000
vn -1.00000000 0.00000000 -0.00000000
vn -1.00000000 0.00000000 -0.00000000
vn -1.00000000 0.00000000 -0.00000000
vn -1.00000000 0.00000000 -0.00000000
vn -1.00000000 0.00000000 -0.00000000
vn -1.00000000 0.00000000 -0.00000000
vn -1.00000000 0.00000000 -0.00000000
vn -1.00000000 0.00000000 -0.00000000
vn -1.00000000 0.00000000 -0.00000000
vn -0.83146961 -0.55557023 0.00000000
vn -0.83146961 -0.55557023 0.00000000
vn -0.83146961 -0.55557023 0.00000000
vn -0.83146961 -0.55557023 0.00000000
vn 0.00000000 0.00000000 1.00000000
vn 0.00000000 0.00000000 1.00000000
vn 0.00000000 0.00000000 1.00000000
vn 0.00000000 0.00000000 1.00000000
vn 0.00000000 0.00000000 1.00000000
vn 0.00000000 0.00000000 1.00000000
vn 0.00000000 0.00000000 1.00000000
vn 0.00000000 0.00000000 1.00000000
vn 0.00000000 0.00000000 1.00000000
vn 0.00000000 0.00000000 1.00000000
vn -0.00000000 -1.00000000 -0.00000000
vn -0.00000000 -1.00000000 -0.00000000
vn -0.00000000 -1.00000000 -0.00000000
vn -0.00000000 -1.00000000 -0.00000000
vn -0.00000000 -1.00000000 -0.00000000
vn -0.00000000 -1.00000000 -0.00000000
vn -0.00000000 -1.00000000 -0.00000000
vn -0.00000000 -1.00000000 -0.00000000
vn -0.00000000 -1.00000000 -0.00000000
vn -0.00000000 -1.00000000 -0.00000000
vn -0.00000000 -1.00000000 -0.00000000
vn -0.00000000 -1.00000000 -0.00000000
vn -0.00000000 -1.00000000 -0.00000000
vn -0.00000000 -1.00000000 -0.00000000
vn -0.00000000 -1.00000000 -0.00000000
vn -0.00000000 -1.00000000 -0.00000000
vn -0.00000000 -1.00000000 -0.00000000
vn -0.00000000 -1.00000000 -0.00000000
vn -0.00000000 -1.00000000 -0.00000000
vn -0.00000000 -1.00000000 -0.00000000
s 1
usemtl Sandstone_4
f 1/1/1 2/2/2 3/3/3
f 1/1/1 3/3/3 4/4/4
s 2
f 5/5/5 6/6/6 7/7/7
f 12/14/14 5/5/5 8/8/8
f 1/13/13 12/14/14 9/9/9
f 10/10/10 11/11/11 1/13/13
f 1/13/13 9/9/9 10/10/10
f 11/11/11 2/12/12 1/13/13
f 12/14/14 8/8/8 9/9/9
f 5/5/5 7/7/7 8/8/8
s 3
f 6/15/15 5/16/16 13/17/17
f 6/15/15 13/17/17 14/18/18
s 4
f 5/19/19 12/20/20 15/21/21
f 5/19/19 15/21/21 13/22/22
s 5
f 17/26/26 16/25/25 11/24/24
f 17/26/26 11/24/24 10/23/23
s 6
usemtl Sandstone_6
f 18/27/27 19/28/28 20/29/29
f 24/35/35 18/27/27 21/30/30
f 17/34/34 21/30/30 22/31/31
f 22/31/31 23/32/32 17/34/34
f 23/32/32 16/33/33 17/34/34
f 17/34/34 24/35/35 21/30/30
f 18/27/27 20/29/29 21/30/30
s 7
usemtl Sandstone_4
f 25/36/36 23/37/37 22/38/38
f 25/36/36 22/38/38 26/39/39
s 8
f 26/43/43 28/42/42 27/41/41
f 26/43/43 27/41/41 25/40/40
s 9
f 29/44/44 27/45/45 28/46/46
f 29/44/44 28/46/46 30/47/47
s 10
f 31/48/48 29/49/49 32/51/51
f 29/49/49 30/50/50 32/51/51
s 11
usemtl Sandstone_6
f 31/52/52 32/53/53 33/54/54
f 31/52/52 33/54/54 34/55/55
s 12
usemtl Sandstone_4
f 35/56/56 36/57/57 33/59/59
f 36/57/57 34/58/58 33/59/59
s 13
f 37/60/60 36/61/61 35/62/62
f 37/60/60 35/62/62 38/63/63
s 14
f 39/64/64 37/65/65 38/66/66
f 39/64/64 38/66/66 40/67/67
s 15
f 41/68/68 39/69/69 40/70/70
f 41/68/68 40/70/70 42/71/71
s 16
usemtl Sandstone_6
f 45/74/74 44/73/73 43/72/72
f 46/75/75 43/72/72 49/80/80
f 42/76/76 46/75/75 48/79/79
f 48/79/79 47/78/78 41/77/77
f 48/79/79 41/77/77 42/76/76
f 46/75/75 49/80/80 48/79/79
f 46/75/75 45/74/74 43/72/72
s 17
usemtl Sandstone_4
f 51/84/84 50/83/83 47/82/82
f 51/84/84 47/82/82 48/81/81
s 18
f 54/87/87 53/86/86 52/85/85
f 55/88/88 52/85/85 59/94/94
f 56/89/89 59/94/94 58/93/93
f 58/93/93 50/91/91 51/90/90
f 58/93/93 57/92/92 50/91/91
f 51/90/90 56/89/89 58/93/93
f 56/89/89 55/88/88 59/94/94
f 55/88/88 54/87/87 52/85/85
s 19
f 60/95/95 61/96/96 57/97/97
f 60/95/95 57/97/97 58/98/98
s 20
f 65/102/102 61/103/103 60/104/104
f 64/101/101 60/104/104 66/105/105
f 63/100/100 66/105/105 67/106/106
f 62/99/99 67/106/106 69/108/108
f 67/106/106 68/107/107 69/108/108
f 62/99/99 63/100/100 67/106/106
f 63/100/100 64/101/101 66/105/105
f 64/101/101 65/102/102 60/104/104
s 21
usemtl Sandstone_6
f 70/109/109 71/110/110 63/111/111
f 70/109/109 63/111/111 62/112/112
s 22
f 72/113/113 70/114/114 62/115/115
f 72/113/113 62/115/115 69/116/116
s 23
f 73/117/117 74/118/118 65/119/119
f 73/117/117 65/119/119 64/120/120
s 24
f 71/121/121 73/122/122 64/123/123
f 71/121/121 64/123/123 63/124/124
s 25
usemtl Sandstone_4
f 66/125/125 60/126/126 58/127/127
f 66/125/125 58/127/127 59/128/128
s 26
f 67/129/129 66/130/130 59/131/131
f 67/129/129 59/131/131 52/132/132
s 27
f 68/133/133 67/134/134 52/135/135
f 68/133/133 52/135/135 53/136/136
s 28
f 56/140/140 51/139/139 48/138/138
f 56/140/140 48/138/138 49/137/137
s 29
f 55/144/144 56/143/143 49/142/142
f 55/144/144 49/142/142 43/141/141
s 30
f 54/148/148 55/147/147 43/146/146
f 54/148/148 43/146/146 44/145/145
s 31
usemtl Sandstone_6
f 32/151/151 30/150/150 28/149/149
f 28/149/149 26/163/163 22/162/162
f 33/152/152 32/151/151 21/161/161
f 21/161/161 20/160/160 75/159/159
f 75/159/159 45/158/158 46/157/157
f 75/159/159 46/157/157 21/161/161
f 46/157/157 33/152/152 21/161/161
f 46/157/157 42/156/156 33/152/152
f 42/156/156 40/155/155 38/154/154
f 42/156/156 38/154/154 33/152/152
f 38/154/154 35/153/153 33/152/152
f 32/151/151 22/162/162 21/161/161
f 32/151/151 28/149/149 22/162/162
s 32
usemtl Sandstone_4
f 24/167/167 17/166/166 10/165/165
f 24/167/167 10/165/165 9/164/164
s 33
f 18/171/171 24/170/170 9/169/169
f 18/171/171 9/169/169 8/168/168
s 34
f 19/175/175 18/174/174 8/173/173
f 19/175/175 8/173/173 7/172/172
s 35
f 6/187/187 14/186/186 72/185/185
f 75/178/178 72/185/185 69/184/184
f 69/184/184 44/180/180 45/179/179
f 53/182/182 54/181/181 44/180/180
f 69/184/184 53/182/182 44/180/180
f 69/184/184 68/183/183 53/182/182
f 69/184/184 45/179/179 75/178/178
f 75/178/178 20/177/177 19/176/176
f 75/178/178 19/176/176 72/185/185
f 19/176/176 6/187/187 72/185/185
f 19/176/176 7/188/188 6/187/187
s 36
f 12/189/189 1/190/190 4/191/191
f 12/189/189 4/191/191 15/192/192
s 37
f 4/201/201 3/200/200 74/199/199
f 15/202/202 4/201/201 73/198/198
f 13/193/193 15/202/202 71/197/197
f 70/196/196 72/195/195 13/193/193
f 13/193/193 71/197/197 70/196/196
f 72/195/195 14/194/194 13/193/193
f 15/202/202 73/198/198 71/197/197
f 4/201/201 74/199/199 73/198/198
s 38
f 27/203/203 29/204/204 31/205/205
f 23/221/221 31/205/205 34/206/206
f 34/206/206 47/211/211 16/220/220
f 65/215/215 74/216/216 16/220/220
f 74/216/216 3/217/217 2/218/218
f 57/213/213 61/214/214 65/215/215
f 74/216/216 2/218/218 16/220/220
f 2/218/218 11/219/219 16/220/220
f 47/211/211 65/215/215 16/220/220
f 47/211/211 57/213/213 65/215/215
f 47/211/211 50/212/212 57/213/213
f 34/206/206 41/210/210 47/211/211
f 37/208/208 39/209/209 41/210/210
f 34/206/206 37/208/208 41/210/210
f 34/206/206 36/207/207 37/208/208
f 16/220/220 23/221/221 34/206/206
f 23/221/221 27/203/203 31/205/205
f 23/221/221 25/222/222 27/203/203
