mtllib 2_entrance.mtl
o object1
g object1
v -0.10000000 -0.00000000 -0.65000000
v -0.10000000 0.00000000 -0.60000000
v -0.10000000 1.00000000 -0.60000000
v -0.10000000 1.00000000 -0.65000000
v 0.05000000 -0.00000000 -0.65000000
v -0.50000000 0.00000000 -0.60000000
v -0.50000000 0.00000000 -0.40000000
v -0.10000000 0.00000000 -0.40000000
v -0.10000000 -0.00000000 -0.35000000
v 0.05000000 -0.00000000 -0.35000000
v -0.50000000 1.00000000 -0.60000000
v -0.50000000 1.00000000 -0.40000000
v -0.10000000 1.00000000 -0.40000000
v -0.10000000 1.00000000 -0.35000000
v 0.05000000 1.00000000 -0.35000000
v 0.05000000 1.00000000 -0.65000000
vt 1.00000000 0.00000000
vt 1.00000000 1.00000000
vt 0.00000000 1.00000000
vt 0.00000000 0.00000000
vt 1.00000000 0.00000000
vt 1.00000000 0.27272727
vt 0.83333333 0.27272727
vt 0.83333333 1.00000000
vt 0.16666667 1.00000000
vt 0.16666667 0.27272727
vt 0.00000000 0.27272727
vt 0.00000000 0.00000000
vt 1.00000000 0.00000000
vt 1.00000000 1.00000000
vt 0.00000000 1.00000000
vt 0.00000000 0.00000000
vt 1.00000000 0.00000000
vt 1.00000000 1.00000000
vt 0.00000000 1.00000000
vt 0.00000000 0.00000000
vt 0.00000000 1.00000000
vt 0.00000000 0.00000000
vt 1.00000000 0.00000000
vt 1.00000000 1.00000000
vt 1.00000000 0.00000000
vt 1.00000000 1.00000000
vt 0.00000000 1.00000000
vt 0.00000000 0.00000000
vt 1.00000000 0.00000000
vt 1.00000000 1.00000000
vt 0.00000000 1.00000000
vt 0.00000000 0.00000000
vt 1.00000000 0.00000000
vt 1.00000000 1.00000000
vt 0.00000000 1.00000000
vt 0.00000000 0.00000000
vt 0.00000000 1.00000000
vt 0.00000000 0.72727273
vt 0.16666667 0.72727273
vt 0.16666667 0.00000000
vt 0.83333333 0.00000000
vt 0.83333333 0.72727273
vt 1.00000000 0.72727273
vt 1.00000000 1.00000000
vt 0.00000000 1.00000000
vt 0.00000000 0.00000000
vt 1.00000000 0.00000000
vt 1.00000000 1.00000000
vn -1.00000000 0.00000000 0.00000000
vn -1.00000000 0.00000000 0.00000000
vn -1.00000000 0.00000000 0.00000000
vn -1.00000000 0.00000000 0.00000000
vn 0.00000000 -1.00000000 0.00000000
vn 0.00000000 -1.00000000 0.00000000
vn 0.00000000 -1.00000000 0.00000000
vn 0.00000000 -1.00000000 0.00000000
vn 0.00000000 -1.00000000 0.00000000
vn 0.00000000 -1.00000000 0.00000000
vn 0.00000000 -1.00000000 0.00000000
vn 0.00000000 -1.00000000 0.00000000
vn -1.00000000 0.00000000 0.00000000
vn -1.00000000 0.00000000 0.00000000
vn -1.00000000 0.00000000 0.00000000
vn -1.00000000 0.00000000 0.00000000
vn 0.00000000 0.00000000 1.00000000
vn 0.00000000 0.00000000 1.00000000
vn 0.00000000 0.00000000 1.00000000
vn 0.00000000 0.00000000 1.00000000
vn -1.00000000 0.00000000 0.00000000
vn -1.00000000 0.00000000 0.00000000
vn -1.00000000 0.00000000 0.00000000
vn -1.00000000 0.00000000 0.00000000
vn 0.00000000 0.00000000 1.00000000
vn 0.00000000 0.00000000 1.00000000
vn 0.00000000 0.00000000 1.00000000
vn 0.00000000 0.00000000 1.00000000
vn 1.00000000 0.00000000 0.00000000
vn 1.00000000 0.00000000 0.00000000
vn 1.00000000 0.00000000 0.00000000
vn 1.00000000 0.00000000 0.00000000
vn 0.00000000 0.00000000 -1.00000000
vn 0.00000000 0.00000000 -1.00000000
vn 0.00000000 0.00000000 -1.00000000
vn 0.00000000 0.00000000 -1.00000000
vn 0.00000000 1.00000000 0.00000000
vn 0.00000000 1.00000000 0.00000000
vn 0.00000000 1.00000000 0.00000000
vn 0.00000000 1.00000000 0.00000000
vn 0.00000000 1.00000000 0.00000000
vn 0.00000000 1.00000000 0.00000000
vn 0.00000000 1.00000000 0.00000000
vn 0.00000000 1.00000000 0.00000000
vn 0.00000000 0.00000000 -1.00000000
vn 0.00000000 0.00000000 -1.00000000
vn 0.00000000 0.00000000 -1.00000000
vn 0.00000000 0.00000000 -1.00000000
s 1
usemtl Sandstone_5
f 1/1/1 2/2/2 4/4/4
f 2/2/2 3/3/3 4/4/4
s 2
usemtl Sandstone_Trim
f 2/7/7 1/6/6 5/5/5
f 5/5/5 10/12/12 8/10/10
f 10/12/12 9/11/11 8/10/10
f 8/10/10 7/9/9 2/7/7
f 7/9/9 6/8/8 2/7/7
f 2/7/7 5/5/5 8/10/10
s 3
f 6/16/16 7/15/15 11/13/13
f 7/15/15 12/14/14 11/13/13
s 4
f 7/20/20 8/19/19 13/18/18
f 7/20/20 13/18/18 12/17/17
s 5
usemtl Sandstone_5
f 14/21/21 13/22/22 8/23/23
f 14/21/21 8/23/23 9/24/24
s 6
f 15/28/28 14/27/27 10/25/25
f 14/27/27 9/26/26 10/25/25
s 7
f 16/32/32 15/31/31 5/29/29
f 15/31/31 10/30/30 5/29/29
s 8
f 5/33/33 1/34/34 16/36/36
f 1/34/34 4/35/35 16/36/36
s 9
usemtl Sandstone_Trim
f 16/44/44 4/43/43 3/42/42
f 13/39/39 3/42/42 11/41/41
f 11/41/41 12/40/40 13/39/39
f 13/39/39 14/38/38 15/37/37
f 13/39/39 16/44/44 3/42/42
f 13/39/39 15/37/37 16/44/44
s 10
f 11/48/48 3/47/47 6/45/45
f 3/47/47 2/46/46 6/45/45
o object2
g object2
v 1.10000000 -0.00000000 -0.65000000
v 0.95000000 0.00000000 -0.65000000
v 0.95000000 1.00000000 -0.65000000
v 1.10000000 1.00000000 -0.65000000
v 1.50000000 0.00000000 -0.40000000
v 1.50000000 0.00000000 -0.60000000
v 1.10000000 0.00000000 -0.60000000
v 0.95000000 -0.00000000 -0.35000000
v 1.10000000 -0.00000000 -0.35000000
v 1.10000000 0.00000000 -0.40000000
v 0.95000000 1.00000000 -0.35000000
v 1.10000000 1.00000000 -0.35000000
v 1.10000000 1.00000000 -0.40000000
v 1.50000000 1.00000000 -0.40000000
v 1.50000000 1.00000000 -0.60000000
v 1.10000000 1.00000000 -0.60000000
vt 1.00000000 0.00000000
vt 1.00000000 1.00000000
vt 0.00000000 1.00000000
vt 0.00000000 0.00000000
vt 0.83333333 1.00000000
vt 0.16666667 1.00000000
vt 0.16666667 0.27272727
vt 0.00000000 0.27272727
vt 0.00000000 0.00000000
vt 1.00000000 0.00000000
vt 1.00000000 0.27272727
vt 0.83333333 0.27272727
vt 1.00000000 0.00000000
vt 1.00000000 1.00000000
vt 0.00000000 1.00000000
vt 0.00000000 0.00000000
vt 0.00000000 1.00000000
vt 0.00000000 0.00000000
vt 1.00000000 0.00000000
vt 1.00000000 1.00000000
vt 0.00000000 1.00000000
vt 0.00000000 0.00000000
vt 1.00000000 0.00000000
vt 1.00000000 1.00000000
vt 1.00000000 0.00000000
vt 1.00000000 1.00000000
vt 0.00000000 1.00000000
vt 0.00000000 0.00000000
vt 1.00000000 0.00000000
vt 1.00000000 1.00000000
vt 0.00000000 1.00000000
vt 0.00000000 0.00000000
vt 1.00000000 0.00000000
vt 1.00000000 1.00000000
vt 0.00000000 1.00000000
vt 0.00000000 0.00000000
vt 0.83333333 1.00000000
vt 0.16666667 1.00000000
vt 0.16666667 0.27272727
vt 0.00000000 0.27272727
vt 0.00000000 0.00000000
vt 1.00000000 0.00000000
vt 1.00000000 0.27272727
vt 0.83333333 0.27272727
vt 1.00000000 0.00000000
vt 1.00000000 1.00000000
vt 0.00000000 1.00000000
vt 0.00000000 0.00000000
vn 0.00000000 0.00000000 -1.00000000
vn 0.00000000 0.00000000 -1.00000000
vn 0.00000000 0.00000000 -1.00000000
vn 0.00000000 0.00000000 -1.00000000
vn 0.00000000 -1.00000000 0.00000000
vn 0.00000000 -1.00000000 0.00000000
vn 0.00000000 -1.00000000 0.00000000
vn 0.00000000 -1.00000000 0.00000000
vn 0.00000000 -1.00000000 0.00000000
vn 0.00000000 -1.00000000 0.00000000
vn 0.00000000 -1.00000000 0.00000000
vn 0.00000000 -1.00000000 0.00000000
vn 0.00000000 0.00000000 1.00000000
vn 0.00000000 0.00000000 1.00000000
vn 0.00000000 0.00000000 1.00000000
vn 0.00000000 0.00000000 1.00000000
vn 1.00000000 0.00000000 0.00000000
vn 1.00000000 0.00000000 0.00000000
vn 1.00000000 0.00000000 0.00000000
vn 1.00000000 0.00000000 0.00000000
vn 0.00000000 0.00000000 1.00000000
vn 0.00000000 0.00000000 1.00000000
vn 0.00000000 0.00000000 1.00000000
vn 0.00000000 0.00000000 1.00000000
vn 1.00000000 0.00000000 0.00000000
vn 1.00000000 0.00000000 0.00000000
vn 1.00000000 0.00000000 0.00000000
vn 1.00000000 0.00000000 0.00000000
vn 0.00000000 0.00000000 -1.00000000
vn 0.00000000 0.00000000 -1.00000000
vn 0.00000000 0.00000000 -1.00000000
vn 0.00000000 0.00000000 -1.00000000
vn 1.00000000 0.00000000 0.00000000
vn 1.00000000 0.00000000 0.00000000
vn 1.00000000 0.00000000 0.00000000
vn 1.00000000 0.00000000 0.00000000
vn 0.00000000 1.00000000 0.00000000
vn 0.00000000 1.00000000 0.00000000
vn 0.00000000 1.00000000 0.00000000
vn 0.00000000 1.00000000 0.00000000
vn 0.00000000 1.00000000 0.00000000
vn 0.00000000 1.00000000 0.00000000
vn 0.00000000 1.00000000 0.00000000
vn 0.00000000 1.00000000 0.00000000
vn -1.00000000 0.00000000 0.00000000
vn -1.00000000 0.00000000 0.00000000
vn -1.00000000 0.00000000 0.00000000
vn -1.00000000 0.00000000 0.00000000
s 1
usemtl Sandstone_5
f 17/49/49 18/50/50 19/51/51
f 17/49/49 19/51/51 20/52/52
s 2
usemtl Sandstone_Trim
f 26/60/60 25/59/59 24/58/58
f 24/58/58 18/57/57 23/55/55
f 18/57/57 17/56/56 23/55/55
f 26/60/60 23/55/55 22/54/54
f 22/54/54 21/53/53 26/60/60
f 26/60/60 24/58/58 23/55/55
s 3
usemtl Sandstone_5
f 28/64/64 27/63/63 25/61/61
f 27/63/63 24/62/62 25/61/61
s 4
f 25/68/68 26/67/67 28/65/65
f 26/67/67 29/66/66 28/65/65
s 5
usemtl Sandstone_Trim
f 30/72/72 29/71/71 21/69/69
f 29/71/71 26/70/70 21/69/69
s 6
f 21/76/76 22/75/75 30/73/73
f 22/75/75 31/74/74 30/73/73
s 7
f 22/80/80 23/79/79 31/77/77
f 23/79/79 32/78/78 31/77/77
s 8
usemtl Sandstone_5
f 20/84/84 32/83/83 17/81/81
f 32/83/83 23/82/82 17/81/81
s 9
usemtl Sandstone_Trim
f 27/90/90 28/91/91 29/92/92
f 30/85/85 32/87/87 29/92/92
f 32/87/87 20/88/88 19/89/89
f 30/85/85 31/86/86 32/87/87
f 32/87/87 19/89/89 29/92/92
f 19/89/89 27/90/90 29/92/92
s 10
usemtl Sandstone_5
f 18/93/93 24/94/94 19/96/96
f 24/94/94 27/95/95 19/96/96
