mtllib 2_steps_walls_curved.mtl
o object1
g object1
v -0.42080778 1.00000000 0.00000000
v -0.50000000 1.00000000 0.00000000
v -0.50000000 0.00000000 0.00000000
v -0.42080778 0.00000000 0.00000000
v -0.14203952 0.00000000 0.14203952
v -0.27017523 0.00000000 0.04894348
v -0.50000000 0.00000000 0.50000000
v 0.00000000 0.00000000 0.50000000
v 0.00000000 0.00000000 0.42080778
v -0.04894348 0.00000000 0.27017523
v -0.50000000 1.00000000 0.50000000
v 0.00000000 1.00000000 0.50000000
v 0.00000000 1.00000000 0.42080778
v -0.04894348 1.00000000 0.27017523
v -0.14203952 1.00000000 0.14203952
v -0.27017523 1.00000000 0.04894348
vt 1.00000000 0.00000000
vt 1.00000000 1.00000000
vt 0.00000000 1.00000000
vt 0.00000000 0.00000000
vt 0.71592096 0.28407904
vt 0.90211303 0.54035045
vt 1.00000000 0.84161556
vt 1.00000000 1.00000000
vt 0.00000000 1.00000000
vt 0.00000000 0.00000000
vt 0.15838444 0.00000000
vt 0.45964955 0.09788697
vt 1.00000000 0.00000000
vt 1.00000000 1.00000000
vt 0.00000000 1.00000000
vt 0.00000000 0.00000000
vt 1.00000000 0.00000000
vt 1.00000000 1.00000000
vt 0.00000000 1.00000000
vt 0.00000000 0.00000000
vt 1.00000000 0.00000000
vt 1.00000000 1.00000000
vt 0.00000000 1.00000000
vt 0.00000000 0.00000000
vt 1.00000000 0.00000000
vt 1.00000000 1.00000000
vt 0.00000000 1.00000000
vt 0.00000000 0.00000000
vt 1.00000000 0.00000000
vt 1.00000000 1.00000000
vt 0.00000000 1.00000000
vt 0.00000000 0.00000000
vt 1.00000000 0.00000000
vt 1.00000000 1.00000000
vt 0.00000000 1.00000000
vt 0.00000000 0.00000000
vt 0.71592096 0.28407904
vt 0.90211303 0.54035045
vt 1.00000000 0.84161556
vt 1.00000000 1.00000000
vt 0.00000000 1.00000000
vt 0.00000000 0.00000000
vt 0.15838444 0.00000000
vt 0.45964955 0.09788697
vt 1.00000000 0.00000000
vt 1.00000000 1.00000000
vt 0.00000000 1.00000000
vt 0.00000000 0.00000000
vn 0.00000000 0.00000000 -1.00000000
vn 0.00000000 0.00000000 -1.00000000
vn 0.00000000 0.00000000 -1.00000000
vn 0.00000000 0.00000000 -1.00000000
vn 0.00000000 -1.00000000 0.00000000
vn 0.00000000 -1.00000000 0.00000000
vn 0.00000000 -1.00000000 0.00000000
vn 0.00000000 -1.00000000 0.00000000
vn 0.00000000 -1.00000000 0.00000000
vn 0.00000000 -1.00000000 0.00000000
vn 0.00000000 -1.00000000 0.00000000
vn 0.00000000 -1.00000000 0.00000000
vn 0.00000000 0.00000000 1.00000000
vn 0.00000000 0.00000000 1.00000000
vn 0.00000000 0.00000000 1.00000000
vn 0.00000000 0.00000000 1.00000000
vn 1.00000000 0.00000000 0.00000000
vn 1.00000000 0.00000000 0.00000000
vn 1.00000000 0.00000000 0.00000000
vn 1.00000000 0.00000000 0.00000000
vn 0.95105652 0.00000000 -0.30901699
vn 0.95105652 0.00000000 -0.30901699
vn 0.95105652 0.00000000 -0.30901699
vn 0.95105652 0.00000000 -0.30901699
vn 0.80901699 0.00000000 -0.58778525
vn 0.80901699 0.00000000 -0.58778525
vn 0.80901699 0.00000000 -0.58778525
vn 0.80901699 0.00000000 -0.58778525
vn 0.58778525 0.00000000 -0.80901699
vn 0.58778525 0.00000000 -0.80901699
vn 0.58778525 0.00000000 -0.80901699
vn 0.58778525 0.00000000 -0.80901699
vn 0.30901699 0.00000000 -0.95105652
vn 0.30901699 0.00000000 -0.95105652
vn 0.30901699 0.00000000 -0.95105652
vn 0.30901699 0.00000000 -0.95105652
vn 0.00000000 1.00000000 0.00000000
vn 0.00000000 1.00000000 0.00000000
vn 0.00000000 1.00000000 0.00000000
vn 0.00000000 1.00000000 0.00000000
vn 0.00000000 1.00000000 0.00000000
vn 0.00000000 1.00000000 0.00000000
vn 0.00000000 1.00000000 0.00000000
vn 0.00000000 1.00000000 0.00000000
vn -1.00000000 0.00000000 0.00000000
vn -1.00000000 0.00000000 0.00000000
vn -1.00000000 0.00000000 0.00000000
vn -1.00000000 0.00000000 0.00000000
s 1
usemtl Sandstone_Trim
f 4/4/4 3/3/3 1/1/1
f 3/3/3 2/2/2 1/1/1
s 2
f 8/10/10 7/9/9 3/8/8
f 10/12/12 3/8/8 6/6/6
f 10/12/12 6/6/6 5/5/5
f 3/8/8 4/7/7 6/6/6
f 10/12/12 8/10/10 3/8/8
f 10/12/12 9/11/11 8/10/10
s 3
f 7/16/16 8/15/15 11/13/13
f 8/15/15 12/14/14 11/13/13
s 4
f 8/20/20 9/19/19 12/17/17
f 9/19/19 13/18/18 12/17/17
s 5
f 9/24/24 10/23/23 13/21/21
f 10/23/23 14/22/22 13/21/21
s 6
f 10/28/28 5/27/27 14/25/25
f 5/27/27 15/26/26 14/25/25
s 7
f 5/32/32 6/31/31 15/29/29
f 6/31/31 16/30/30 15/29/29
s 8
f 6/36/36 4/35/35 16/33/33
f 4/35/35 1/34/34 16/33/33
s 9
f 2/40/40 11/41/41 12/42/42
f 12/42/42 13/43/43 14/44/44
f 15/37/37 16/38/38 14/44/44
f 16/38/38 2/40/40 14/44/44
f 16/38/38 1/39/39 2/40/40
f 2/40/40 12/42/42 14/44/44
s 10
f 3/48/48 7/47/47 2/45/45
f 7/47/47 11/46/46 2/45/45
o object2
g object2
v 0.18947432 1.00000000 -0.85316955
v -0.26242334 1.00000000 -1.00000000
v -0.26242334 0.00000000 -1.00000000
v 0.18947432 0.00000000 -0.85316955
v -0.50000000 1.00000000 -1.00000000
v -0.50000000 1.00000000 -1.50000000
v 1.50000000 1.00000000 -1.50000000
v 1.50000000 1.00000000 0.50000000
v 1.00000000 1.00000000 0.50000000
v 1.00000000 1.00000000 0.26242334
v 0.85316955 1.00000000 -0.18947432
v 0.57388143 1.00000000 -0.57388143
v 1.50000000 0.00000000 0.50000000
v 1.50000000 0.00000000 -1.50000000
v 1.00000000 0.00000000 0.50000000
v 1.00000000 0.00000000 0.26242334
v 0.85316955 0.00000000 -0.18947432
v 0.57388143 0.00000000 -0.57388143
v -0.50000000 0.00000000 -1.50000000
v -0.50000000 0.00000000 -1.00000000
vt 1.00000000 0.00000000
vt 1.00000000 1.00000000
vt 0.00000000 1.00000000
vt 0.00000000 0.00000000
vt 0.75000000 0.00000000
vt 1.00000000 0.00000000
vt 1.00000000 1.00000000
vt 0.00000000 1.00000000
vt 0.00000000 0.75000000
vt 0.11878833 0.75000000
vt 0.34473716 0.67658477
vt 0.53694072 0.53694072
vt 0.67658477 0.34473716
vt 0.75000000 0.11878833
vt 1.00000000 0.00000000
vt 1.00000000 1.00000000
vt 0.00000000 1.00000000
vt 0.00000000 0.00000000
vt 1.00000000 0.00000000
vt 1.00000000 1.00000000
vt 0.00000000 1.00000000
vt 0.00000000 0.00000000
vt 1.00000000 0.00000000
vt 1.00000000 1.00000000
vt 0.00000000 1.00000000
vt 0.00000000 0.00000000
vt 1.00000000 0.00000000
vt 1.00000000 1.00000000
vt 0.00000000 1.00000000
vt 0.00000000 0.00000000
vt 1.00000000 0.00000000
vt 1.00000000 1.00000000
vt 0.00000000 1.00000000
vt 0.00000000 0.00000000
vt 1.00000000 0.00000000
vt 1.00000000 1.00000000
vt 0.00000000 1.00000000
vt 0.00000000 0.00000000
vt 1.00000000 0.00000000
vt 1.00000000 1.00000000
vt 0.00000000 1.00000000
vt 0.00000000 0.00000000
vt 1.00000000 0.00000000
vt 1.00000000 1.00000000
vt 0.00000000 1.00000000
vt 0.00000000 0.00000000
vt 0.75000000 0.00000000
vt 1.00000000 0.00000000
vt 1.00000000 1.00000000
vt 0.00000000 1.00000000
vt 0.00000000 0.75000000
vt 0.11878833 0.75000000
vt 0.34473716 0.67658477
vt 0.53694072 0.53694072
vt 0.67658477 0.34473716
vt 0.75000000 0.11878833
vt 1.00000000 0.00000000
vt 1.00000000 1.00000000
vt 0.00000000 1.00000000
vt 0.00000000 0.00000000
vn -0.30901699 0.00000000 0.95105652
vn -0.30901699 0.00000000 0.95105652
vn -0.30901699 0.00000000 0.95105652
vn -0.30901699 0.00000000 0.95105652
vn 0.00000000 1.00000000 0.00000000
vn 0.00000000 1.00000000 0.00000000
vn 0.00000000 1.00000000 0.00000000
vn 0.00000000 1.00000000 0.00000000
vn 0.00000000 1.00000000 0.00000000
vn 0.00000000 1.00000000 0.00000000
vn 0.00000000 1.00000000 0.00000000
vn 0.00000000 1.00000000 0.00000000
vn 0.00000000 1.00000000 0.00000000
vn 0.00000000 1.00000000 0.00000000
vn 1.00000000 0.00000000 0.00000000
vn 1.00000000 0.00000000 0.00000000
vn 1.00000000 0.00000000 0.00000000
vn 1.00000000 0.00000000 0.00000000
vn 0.00000000 0.00000000 1.00000000
vn 0.00000000 0.00000000 1.00000000
vn 0.00000000 0.00000000 1.00000000
vn 0.00000000 0.00000000 1.00000000
vn -1.00000000 0.00000000 0.00000000
vn -1.00000000 0.00000000 0.00000000
vn -1.00000000 0.00000000 0.00000000
vn -1.00000000 0.00000000 0.00000000
vn -0.95105652 0.00000000 0.30901699
vn -0.95105652 0.00000000 0.30901699
vn -0.95105652 0.00000000 0.30901699
vn -0.95105652 0.00000000 0.30901699
vn -0.80901699 0.00000000 0.58778525
vn -0.80901699 0.00000000 0.58778525
vn -0.80901699 0.00000000 0.58778525
vn -0.80901699 0.00000000 0.58778525
vn -1.00000000 0.00000000 0.00000000
vn -1.00000000 0.00000000 0.00000000
vn -1.00000000 0.00000000 0.00000000
vn -1.00000000 0.00000000 0.00000000
vn 0.00000000 0.00000000 -1.00000000
vn 0.00000000 0.00000000 -1.00000000
vn 0.00000000 0.00000000 -1.00000000
vn 0.00000000 0.00000000 -1.00000000
vn -0.58778525 0.00000000 0.80901699
vn -0.58778525 0.00000000 0.80901699
vn -0.58778525 0.00000000 0.80901699
vn -0.58778525 0.00000000 0.80901699
vn 0.00000000 -1.00000000 0.00000000
vn 0.00000000 -1.00000000 0.00000000
vn 0.00000000 -1.00000000 0.00000000
vn 0.00000000 -1.00000000 0.00000000
vn 0.00000000 -1.00000000 0.00000000
vn 0.00000000 -1.00000000 0.00000000
vn 0.00000000 -1.00000000 0.00000000
vn 0.00000000 -1.00000000 0.00000000
vn 0.00000000 -1.00000000 0.00000000
vn 0.00000000 -1.00000000 0.00000000
vn -0.00000000 0.00000000 1.00000000
vn -0.00000000 0.00000000 1.00000000
vn -0.00000000 0.00000000 1.00000000
vn -0.00000000 0.00000000 1.00000000
s 1
usemtl Sandstone_Trim
f 17/49/49 18/50/50 20/52/52
f 18/50/50 19/51/51 20/52/52
s 2
f 26/58/58 25/57/57 24/56/56
f 27/59/59 24/56/56 23/55/55
f 17/61/61 23/55/55 22/54/54
f 22/54/54 21/53/53 18/62/62
f 22/54/54 18/62/62 17/61/61
f 17/61/61 28/60/60 23/55/55
f 28/60/60 27/59/59 23/55/55
f 27/59/59 26/58/58 24/56/56
s 3
f 23/63/63 24/64/64 30/66/66
f 24/64/64 29/65/65 30/66/66
s 4
f 24/67/67 25/68/68 29/70/70
f 25/68/68 31/69/69 29/70/70
s 5
f 25/71/71 26/72/72 31/74/74
f 26/72/72 32/73/73 31/74/74
s 6
f 26/75/75 27/76/76 32/78/78
f 27/76/76 33/77/77 32/78/78
s 7
f 27/79/79 28/80/80 33/82/82
f 28/80/80 34/81/81 33/82/82
s 8
f 21/83/83 22/84/84 36/86/86
f 22/84/84 35/85/85 36/86/86
s 9
f 22/87/87 23/88/88 35/90/90
f 23/88/88 30/89/89 35/90/90
s 10
f 28/91/91 17/92/92 34/94/94
f 17/92/92 20/93/93 34/94/94
s 11
f 29/98/98 31/99/99 32/100/100
f 30/97/97 29/98/98 33/101/101
f 35/96/96 30/97/97 20/103/103
f 20/103/103 19/104/104 35/96/96
f 19/104/104 36/95/95 35/96/96
f 30/97/97 34/102/102 20/103/103
f 30/97/97 33/101/101 34/102/102
f 29/98/98 32/100/100 33/101/101
s 12
f 18/105/105 21/106/106 19/108/108
f 21/106/106 36/107/107 19/108/108
