mtllib 2_wall_corner.mtl
o object1
g object1
v 0.40000000 1.00000000 0.12720779
v -0.12720779 1.00000000 -0.40000000
v -0.12720779 0.00000000 -0.40000000
v 0.40000000 0.00000000 0.12720779
v 0.60000000 1.00000000 0.04436508
v -0.04436508 1.00000000 -0.60000000
v -0.50000000 1.00000000 -0.60000000
v -0.50000000 1.00000000 -0.40000000
v 0.40000000 1.00000000 0.50000000
v 0.60000000 1.00000000 0.50000000
v -0.04436508 0.00000000 -0.60000000
v 0.60000000 0.00000000 0.04436508
v 0.60000000 0.00000000 0.50000000
v 0.40000000 0.00000000 0.50000000
v -0.50000000 0.00000000 -0.60000000
v -0.50000000 0.00000000 -0.40000000
vt 1.00000000 0.00000000
vt 1.00000000 1.00000000
vt 0.00000000 1.00000000
vt 0.00000000 0.00000000
vt 0.41421356 0.00000000
vt 1.00000000 0.58578644
vt 1.00000000 1.00000000
vt 0.81818182 1.00000000
vt 0.81818182 0.66109799
vt 0.33890201 0.18181818
vt 0.00000000 0.18181818
vt 0.00000000 0.00000000
vt 1.00000000 0.00000000
vt 1.00000000 1.00000000
vt 0.00000000 1.00000000
vt 0.00000000 0.00000000
vt 1.00000000 1.00000000
vt 0.00000000 1.00000000
vt 0.00000000 0.00000000
vt 1.00000000 0.00000000
vt 0.00000000 0.00000000
vt 1.00000000 0.00000000
vt 1.00000000 1.00000000
vt 0.00000000 1.00000000
vt 0.00000000 1.00000000
vt 0.00000000 0.00000000
vt 1.00000000 0.00000000
vt 1.00000000 1.00000000
vt 0.00000000 0.00000000
vt 1.00000000 0.00000000
vt 1.00000000 1.00000000
vt 0.00000000 1.00000000
vt 1.00000000 1.00000000
vt 0.00000000 1.00000000
vt 0.00000000 0.00000000
vt 1.00000000 0.00000000
vt 0.41421356 0.00000000
vt 1.00000000 0.58578644
vt 1.00000000 1.00000000
vt 0.81818182 1.00000000
vt 0.81818182 0.66109799
vt 0.33890201 0.18181818
vt 0.00000000 0.18181818
vt 0.00000000 0.00000000
vt 0.00000000 0.00000000
vt 1.00000000 0.00000000
vt 1.00000000 1.00000000
vt 0.00000000 1.00000000
vn -0.70710678 0.00000000 0.70710678
vn -0.70710678 0.00000000 0.70710678
vn -0.70710678 0.00000000 0.70710678
vn -0.70710678 0.00000000 0.70710678
vn 0.00000000 1.00000000 0.00000000
vn 0.00000000 1.00000000 0.00000000
vn 0.00000000 1.00000000 0.00000000
vn 0.00000000 1.00000000 0.00000000
vn 0.00000000 1.00000000 0.00000000
vn 0.00000000 1.00000000 0.00000000
vn 0.00000000 1.00000000 0.00000000
vn 0.00000000 1.00000000 0.00000000
vn 0.70710678 0.00000000 -0.70710678
vn 0.70710678 0.00000000 -0.70710678
vn 0.70710678 0.00000000 -0.70710678
vn 0.70710678 0.00000000 -0.70710678
vn 1.00000000 0.00000000 0.00000000
vn 1.00000000 0.00000000 0.00000000
vn 1.00000000 0.00000000 0.00000000
vn 1.00000000 0.00000000 0.00000000
vn 0.00000000 0.00000000 1.00000000
vn 0.00000000 0.00000000 1.00000000
vn 0.00000000 0.00000000 1.00000000
vn 0.00000000 0.00000000 1.00000000
vn -1.00000000 0.00000000 0.00000000
vn -1.00000000 0.00000000 0.00000000
vn -1.00000000 0.00000000 0.00000000
vn -1.00000000 0.00000000 0.00000000
vn 0.00000000 0.00000000 -1.00000000
vn 0.00000000 0.00000000 -1.00000000
vn 0.00000000 0.00000000 -1.00000000
vn 0.00000000 0.00000000 -1.00000000
vn -1.00000000 0.00000000 -0.00000000
vn -1.00000000 0.00000000 -0.00000000
vn -1.00000000 0.00000000 -0.00000000
vn -1.00000000 0.00000000 -0.00000000
vn 0.00000000 -1.00000000 0.00000000
vn 0.00000000 -1.00000000 0.00000000
vn 0.00000000 -1.00000000 0.00000000
vn 0.00000000 -1.00000000 0.00000000
vn 0.00000000 -1.00000000 0.00000000
vn 0.00000000 -1.00000000 0.00000000
vn 0.00000000 -1.00000000 0.00000000
vn 0.00000000 -1.00000000 0.00000000
vn -0.00000000 0.00000000 1.00000000
vn -0.00000000 0.00000000 1.00000000
vn -0.00000000 0.00000000 1.00000000
vn -0.00000000 0.00000000 1.00000000
s 1
usemtl Sandstone_Trim
f 1/1/1 2/2/2 4/4/4
f 2/2/2 3/3/3 4/4/4
s 2
f 1/10/10 9/11/11 10/12/12
f 2/9/9 1/10/10 5/5/5
f 5/5/5 6/6/6 2/9/9
f 6/6/6 7/7/7 2/9/9
f 7/7/7 8/8/8 2/9/9
f 1/10/10 10/12/12 5/5/5
s 3
f 12/16/16 11/15/15 5/13/13
f 11/15/15 6/14/14 5/13/13
s 4
f 10/20/20 13/19/19 5/17/17
f 13/19/19 12/18/18 5/17/17
s 5
f 13/24/24 10/23/23 14/21/21
f 10/23/23 9/22/22 14/21/21
s 6
f 15/25/25 16/26/26 7/28/28
f 16/26/26 8/27/27 7/28/28
s 7
f 15/32/32 7/31/31 11/29/29
f 7/31/31 6/30/30 11/29/29
s 8
f 1/33/33 4/34/34 9/36/36
f 4/34/34 14/35/35 9/36/36
s 9
f 13/44/44 14/43/43 4/42/42
f 12/37/37 4/42/42 3/41/41
f 3/41/41 15/39/39 11/38/38
f 3/41/41 16/40/40 15/39/39
f 3/41/41 11/38/38 12/37/37
f 12/37/37 13/44/44 4/42/42
s 10
f 3/45/45 2/46/46 16/48/48
f 2/46/46 8/47/47 16/48/48
