mtllib 2_wall_etched_side.mtl
o object1
g object1
v -0.50000000 0.45000000 -0.60000000
v 0.50000000 0.45000000 -0.60000000
v 0.50000000 0.50000000 -0.55000000
v -0.50000000 0.50000000 -0.55000000
v 0.50000000 0.55000000 -0.60000000
v -0.50000000 0.55000000 -0.60000000
v -0.50000000 1.00000000 -0.60000000
v 0.50000000 1.00000000 -0.60000000
v -0.50000000 1.00000000 -0.40000000
v 0.50000000 1.00000000 -0.40000000
v -0.50000000 0.55000000 -0.40000000
v 0.50000000 0.55000000 -0.40000000
v -0.50000000 0.50000000 -0.45000000
v 0.50000000 0.50000000 -0.45000000
v -0.50000000 0.45000000 -0.40000000
v 0.50000000 0.45000000 -0.40000000
v 0.50000000 0.00000000 -0.40000000
v -0.50000000 0.00000000 -0.40000000
v -0.50000000 0.00000000 -0.60000000
v 0.50000000 0.00000000 -0.60000000
vt 1.00000000 1.00000000
vt 0.00000000 1.00000000
vt 0.00000000 0.00000000
vt 1.00000000 0.00000000
vt 1.00000000 1.00000000
vt 0.00000000 1.00000000
vt 0.00000000 0.00000000
vt 1.00000000 0.00000000
vt 1.00000000 1.00000000
vt 0.00000000 1.00000000
vt 0.00000000 0.00000000
vt 1.00000000 0.00000000
vt 1.00000000 0.00000000
vt 1.00000000 1.00000000
vt 0.00000000 1.00000000
vt 0.00000000 0.00000000
vt 1.00000000 1.00000000
vt 0.00000000 1.00000000
vt 0.00000000 0.00000000
vt 1.00000000 0.00000000
vt 1.00000000 1.00000000
vt 0.00000000 1.00000000
vt 0.00000000 0.00000000
vt 1.00000000 0.00000000
vt 1.00000000 1.00000000
vt 0.00000000 1.00000000
vt 0.00000000 0.00000000
vt 1.00000000 0.00000000
vt 0.00000000 0.00000000
vt 1.00000000 0.00000000
vt 1.00000000 1.00000000
vt 0.00000000 1.00000000
vt 1.00000000 0.00000000
vt 1.00000000 1.00000000
vt 0.00000000 1.00000000
vt 0.00000000 0.00000000
vt 1.00000000 1.00000000
vt 0.55000000 1.00000000
vt 0.50000000 0.75000000
vt 0.45000000 1.00000000
vt 0.00000000 1.00000000
vt 0.00000000 0.00000000
vt 0.45000000 0.00000000
vt 0.50000000 0.25000000
vt 0.55000000 0.00000000
vt 1.00000000 0.00000000
vt 0.00000000 0.00000000
vt 1.00000000 0.00000000
vt 1.00000000 1.00000000
vt 0.00000000 1.00000000
vt 1.00000000 1.00000000
vt 0.55000000 1.00000000
vt 0.50000000 0.75000000
vt 0.45000000 1.00000000
vt 0.00000000 1.00000000
vt 0.00000000 0.00000000
vt 0.45000000 0.00000000
vt 0.50000000 0.25000000
vt 0.55000000 0.00000000
vt 1.00000000 0.00000000
vn 0.00000000 0.70710678 -0.70710678
vn 0.00000000 0.70710678 -0.70710678
vn 0.00000000 0.70710678 -0.70710678
vn 0.00000000 0.70710678 -0.70710678
vn 0.00000000 -0.70710678 -0.70710678
vn 0.00000000 -0.70710678 -0.70710678
vn 0.00000000 -0.70710678 -0.70710678
vn 0.00000000 -0.70710678 -0.70710678
vn 0.00000000 0.00000000 -1.00000000
vn 0.00000000 0.00000000 -1.00000000
vn 0.00000000 0.00000000 -1.00000000
vn 0.00000000 0.00000000 -1.00000000
vn 0.00000000 1.00000000 0.00000000
vn 0.00000000 1.00000000 0.00000000
vn 0.00000000 1.00000000 0.00000000
vn 0.00000000 1.00000000 0.00000000
vn -0.00000000 0.00000000 1.00000000
vn -0.00000000 0.00000000 1.00000000
vn -0.00000000 0.00000000 1.00000000
vn -0.00000000 0.00000000 1.00000000
vn 0.00000000 -0.70710678 0.70710678
vn 0.00000000 -0.70710678 0.70710678
vn 0.00000000 -0.70710678 0.70710678
vn 0.00000000 -0.70710678 0.70710678
vn 0.00000000 0.70710678 0.70710678
vn 0.00000000 0.70710678 0.70710678
vn 0.00000000 0.70710678 0.70710678
vn 0.00000000 0.70710678 0.70710678
vn -0.00000000 0.00000000 1.00000000
vn -0.00000000 0.00000000 1.00000000
vn -0.00000000 0.00000000 1.00000000
vn -0.00000000 0.00000000 1.00000000
vn 0.00000000 -1.00000000 0.00000000
vn 0.00000000 -1.00000000 0.00000000
vn 0.00000000 -1.00000000 0.00000000
vn 0.00000000 -1.00000000 0.00000000
vn -1.00000000 0.00000000 0.00000000
vn -1.00000000 0.00000000 0.00000000
vn -1.00000000 0.00000000 0.00000000
vn -1.00000000 0.00000000 0.00000000
vn -1.00000000 0.00000000 0.00000000
vn -1.00000000 0.00000000 0.00000000
vn -1.00000000 0.00000000 0.00000000
vn -1.00000000 0.00000000 0.00000000
vn -1.00000000 0.00000000 0.00000000
vn -1.00000000 0.00000000 0.00000000
vn 0.00000000 0.00000000 -1.00000000
vn 0.00000000 0.00000000 -1.00000000
vn 0.00000000 0.00000000 -1.00000000
vn 0.00000000 0.00000000 -1.00000000
vn 1.00000000 0.00000000 0.00000000
vn 1.00000000 0.00000000 0.00000000
vn 1.00000000 0.00000000 0.00000000
vn 1.00000000 0.00000000 0.00000000
vn 1.00000000 0.00000000 0.00000000
vn 1.00000000 0.00000000 0.00000000
vn 1.00000000 0.00000000 0.00000000
vn 1.00000000 0.00000000 0.00000000
vn 1.00000000 0.00000000 0.00000000
vn 1.00000000 0.00000000 0.00000000
s 1
usemtl Sandstone_Trim
f 4/4/4 3/3/3 2/2/2
f 4/4/4 2/2/2 1/1/1
s 2
f 6/8/8 5/7/7 3/6/6
f 6/8/8 3/6/6 4/5/5
s 3
f 8/12/12 5/11/11 7/9/9
f 5/11/11 6/10/10 7/9/9
s 4
f 10/16/16 8/15/15 9/13/13
f 8/15/15 7/14/14 9/13/13
s 5
f 9/17/17 11/18/18 10/20/20
f 11/18/18 12/19/19 10/20/20
s 6
f 13/21/21 14/22/22 12/23/23
f 13/21/21 12/23/23 11/24/24
s 7
f 15/25/25 16/26/26 14/27/27
f 15/25/25 14/27/27 13/28/28
s 8
f 17/29/29 16/30/30 18/32/32
f 16/30/30 15/31/31 18/32/32
s 9
f 18/33/33 19/34/34 20/35/35
f 18/33/33 20/35/35 17/36/36
s 10
f 11/45/45 9/46/46 7/37/37
f 13/44/44 11/45/45 4/39/39
f 15/43/43 4/39/39 1/40/40
f 1/40/40 19/41/41 15/43/43
f 19/41/41 18/42/42 15/43/43
f 15/43/43 13/44/44 4/39/39
f 11/45/45 6/38/38 4/39/39
f 11/45/45 7/37/37 6/38/38
s 11
f 19/50/50 1/49/49 20/47/47
f 1/49/49 2/48/48 20/47/47
s 12
f 8/51/51 10/60/60 12/59/59
f 3/53/53 12/59/59 14/58/58
f 2/54/54 3/53/53 16/57/57
f 17/56/56 20/55/55 2/54/54
f 2/54/54 16/57/57 17/56/56
f 3/53/53 14/58/58 16/57/57
f 3/53/53 5/52/52 12/59/59
f 5/52/52 8/51/51 12/59/59
