mtllib 3_entrance_top.mtl
o object1
g object1
v 0.72961006 0.55432772 -0.65000000
v 0.72961006 0.55432772 -0.60000000
v 0.50000000 0.60000000 -0.60000000
v 0.50000000 0.60000000 -0.65000000
v 0.27038994 0.55432772 -0.60000000
v 0.27038994 0.55432772 -0.65000000
v 0.07573593 0.42426407 -0.60000000
v 0.07573593 0.42426407 -0.65000000
v -0.05432772 0.22961006 -0.60000000
v -0.05432772 0.22961006 -0.65000000
v -0.10000000 0.00000000 -0.60000000
v -0.10000000 -0.00000000 -0.65000000
v -0.50000000 0.00000000 -0.40000000
v -0.50000000 0.00000000 -0.60000000
v 0.05000000 -0.00000000 -0.65000000
v 0.05000000 -0.00000000 -0.35000000
v -0.10000000 -0.00000000 -0.35000000
v -0.10000000 0.00000000 -0.40000000
v -0.50000000 1.00000000 -0.40000000
v -0.50000000 1.00000000 -0.60000000
v 1.50000000 1.00000000 -0.40000000
v 1.50000000 1.00000000 -0.60000000
v 1.50000000 0.00000000 -0.40000000
v 1.50000000 0.00000000 -0.60000000
v 1.10000000 0.00000000 -0.40000000
v 1.10000000 -0.00000000 -0.35000000
v 0.95000000 0.00000000 -0.35000000
v 0.95000000 0.00000000 -0.65000000
v 1.10000000 -0.00000000 -0.65000000
v 1.10000000 0.00000000 -0.60000000
v 1.05432772 0.22961006 -0.60000000
v 1.05432772 0.22961006 -0.65000000
v 0.92426407 0.42426407 -0.60000000
v 0.92426407 0.42426407 -0.65000000
v 0.91574579 0.17220754 -0.35000000
v 0.91574579 0.17220754 -0.65000000
v 0.81819805 0.31819805 -0.35000000
v 0.81819805 0.31819805 -0.65000000
v 0.67220754 0.41574579 -0.35000000
v 0.67220754 0.41574579 -0.65000000
v 0.50000000 0.45000000 -0.35000000
v 0.50000000 0.45000000 -0.65000000
v 0.32779246 0.41574579 -0.35000000
v 0.32779246 0.41574579 -0.65000000
v 0.18180195 0.31819805 -0.35000000
v 0.18180195 0.31819805 -0.65000000
v 0.08425421 0.17220754 -0.35000000
v 0.08425421 0.17220754 -0.65000000
v 1.05432772 0.22961006 -0.35000000
v 1.05432772 0.22961006 -0.40000000
v 0.92426407 0.42426407 -0.35000000
v 0.92426407 0.42426407 -0.40000000
v 0.72961006 0.55432772 -0.35000000
v 0.72961006 0.55432772 -0.40000000
v 0.50000000 0.60000000 -0.35000000
v 0.50000000 0.60000000 -0.40000000
v 0.27038994 0.55432772 -0.35000000
v 0.27038994 0.55432772 -0.40000000
v 0.07573593 0.42426407 -0.35000000
v 0.07573593 0.42426407 -0.40000000
v -0.05432772 0.22961006 -0.35000000
v -0.05432772 0.22961006 -0.40000000
vt 0.00000000 0.00000000
vt 1.00000000 0.00000000
vt 1.00000000 1.00000000
vt 0.00000000 1.00000000
vt 0.00000000 0.00000000
vt 1.00000000 0.00000000
vt 1.00000000 1.00000000
vt 0.00000000 1.00000000
vt 0.00000000 0.00000000
vt 1.00000000 0.00000000
vt 1.00000000 1.00000000
vt 0.00000000 1.00000000
vt 0.00000000 0.00000000
vt 1.00000000 0.00000000
vt 1.00000000 1.00000000
vt 0.00000000 1.00000000
vt 0.00000000 0.00000000
vt 1.00000000 0.00000000
vt 1.00000000 1.00000000
vt 0.00000000 1.00000000
vt 0.83333333 1.00000000
vt 0.16666667 1.00000000
vt 0.16666667 0.27272727
vt 0.00000000 0.27272727
vt 0.00000000 0.00000000
vt 1.00000000 0.00000000
vt 1.00000000 0.27272727
vt 0.83333333 0.27272727
vt 1.00000000 0.00000000
vt 1.00000000 1.00000000
vt 0.00000000 1.00000000
vt 0.00000000 0.00000000
vt 1.00000000 0.00000000
vt 1.00000000 1.00000000
vt 0.00000000 1.00000000
vt 0.00000000 0.00000000
vt 1.00000000 0.00000000
vt 1.00000000 1.00000000
vt 0.00000000 1.00000000
vt 0.00000000 0.00000000
vt 0.16666667 0.00000000
vt 0.83333333 0.00000000
vt 0.83333333 0.72727273
vt 1.00000000 0.72727273
vt 1.00000000 1.00000000
vt 0.00000000 1.00000000
vt 0.00000000 0.72727273
vt 0.16666667 0.72727273
vt 0.00000000 0.00000000
vt 1.00000000 0.00000000
vt 1.00000000 1.00000000
vt 0.00000000 1.00000000
vt 0.00000000 0.00000000
vt 1.00000000 0.00000000
vt 1.00000000 1.00000000
vt 0.00000000 1.00000000
vt 1.00000000 0.00000000
vt 1.00000000 1.00000000
vt 0.00000000 1.00000000
vt 0.00000000 0.00000000
vt 1.00000000 0.00000000
vt 1.00000000 1.00000000
vt 0.00000000 1.00000000
vt 0.00000000 0.00000000
vt 1.00000000 0.00000000
vt 1.00000000 1.00000000
vt 0.00000000 1.00000000
vt 0.00000000 0.00000000
vt 1.00000000 0.00000000
vt 1.00000000 1.00000000
vt 0.00000000 1.00000000
vt 0.00000000 0.00000000
vt 1.00000000 0.00000000
vt 1.00000000 1.00000000
vt 0.00000000 1.00000000
vt 0.00000000 0.00000000
vt 1.00000000 0.00000000
vt 1.00000000 1.00000000
vt 0.00000000 1.00000000
vt 0.00000000 0.00000000
vt 1.00000000 0.00000000
vt 1.00000000 1.00000000
vt 0.00000000 1.00000000
vt 0.00000000 0.00000000
vt 1.00000000 1.00000000
vt 0.00000000 1.00000000
vt 0.00000000 0.00000000
vt 1.00000000 0.00000000
vt 1.00000000 1.00000000
vt 0.00000000 1.00000000
vt 0.00000000 0.00000000
vt 1.00000000 0.00000000
vt 1.00000000 1.00000000
vt 0.00000000 1.00000000
vt 0.00000000 0.00000000
vt 1.00000000 0.00000000
vt 1.00000000 1.00000000
vt 0.00000000 1.00000000
vt 0.00000000 0.00000000
vt 1.00000000 0.00000000
vt 1.00000000 1.00000000
vt 0.00000000 1.00000000
vt 0.00000000 0.00000000
vt 1.00000000 0.00000000
vt 1.00000000 1.00000000
vt 0.00000000 1.00000000
vt 0.00000000 0.00000000
vt 1.00000000 0.00000000
vt 1.00000000 1.00000000
vt 0.00000000 1.00000000
vt 0.00000000 0.00000000
vt 1.00000000 0.00000000
vt 0.42426407 0.71213203
vt 0.55432772 0.61480503
vt 0.60000000 0.50000000
vt 0.55432772 0.38519497
vt 0.42426407 0.28786797
vt 0.22961006 0.22283614
vt 0.00000000 0.20000000
vt 0.00000000 0.00000000
vt 1.00000000 0.00000000
vt 1.00000000 1.00000000
vt 0.00000000 1.00000000
vt 0.00000000 0.80000000
vt 0.22961006 0.77716386
vt 1.00000000 1.00000000
vt 0.00000000 1.00000000
vt 0.00000000 0.00000000
vt 1.00000000 0.00000000
vt 0.70710678 0.85355339
vt 0.38268343 0.96193977
vt 0.00000000 1.00000000
vt 0.00000000 0.87500000
vt 0.28701257 0.84645482
vt 0.53033009 0.76516504
vt 0.69290965 0.64350629
vt 0.75000000 0.50000000
vt 0.69290965 0.35649371
vt 0.53033009 0.23483496
vt 0.28701257 0.15354518
vt 0.00000000 0.12500000
vt 0.00000000 0.00000000
vt 0.38268343 0.03806023
vt 0.70710678 0.14644661
vt 0.92387953 0.30865828
vt 1.00000000 0.50000000
vt 0.92387953 0.69134172
vt 1.00000000 0.00000000
vt 1.00000000 1.00000000
vt 0.00000000 1.00000000
vt 0.00000000 0.00000000
vt 0.70710678 0.85355339
vt 0.38268343 0.96193977
vt 0.00000000 1.00000000
vt 0.00000000 0.87500000
vt 0.28701257 0.84645482
vt 0.53033009 0.76516504
vt 0.69290965 0.64350629
vt 0.75000000 0.50000000
vt 0.69290965 0.35649371
vt 0.53033009 0.23483496
vt 0.28701257 0.15354518
vt 0.00000000 0.12500000
vt 0.00000000 0.00000000
vt 0.38268343 0.03806023
vt 0.70710678 0.14644661
vt 0.92387953 0.30865828
vt 1.00000000 0.50000000
vt 0.92387953 0.69134172
vt 0.00000000 0.00000000
vt 1.00000000 0.00000000
vt 1.00000000 1.00000000
vt 0.00000000 1.00000000
vt 0.42426407 0.71213203
vt 0.55432772 0.61480503
vt 0.60000000 0.50000000
vt 0.55432772 0.38519497
vt 0.42426407 0.28786797
vt 0.22961006 0.22283614
vt 0.00000000 0.20000000
vt 0.00000000 0.00000000
vt 1.00000000 0.00000000
vt 1.00000000 1.00000000
vt 0.00000000 1.00000000
vt 0.00000000 0.80000000
vt 0.22961006 0.77716386
vn 0.19509032 0.98078528 0.00000000
vn 0.19509032 0.98078528 0.00000000
vn 0.19509032 0.98078528 0.00000000
vn 0.19509032 0.98078528 0.00000000
vn -0.19509032 0.98078528 0.00000000
vn -0.19509032 0.98078528 0.00000000
vn -0.19509032 0.98078528 0.00000000
vn -0.19509032 0.98078528 0.00000000
vn -0.55557023 0.83146961 0.00000000
vn -0.55557023 0.83146961 0.00000000
vn -0.55557023 0.83146961 0.00000000
vn -0.55557023 0.83146961 0.00000000
vn -0.83146961 0.55557023 0.00000000
vn -0.83146961 0.55557023 0.00000000
vn -0.83146961 0.55557023 0.00000000
vn -0.83146961 0.55557023 0.00000000
vn -0.98078528 0.19509032 0.00000000
vn -0.98078528 0.19509032 0.00000000
vn -0.98078528 0.19509032 0.00000000
vn -0.98078528 0.19509032 0.00000000
vn 0.00000000 -1.00000000 0.00000000
vn 0.00000000 -1.00000000 0.00000000
vn 0.00000000 -1.00000000 0.00000000
vn 0.00000000 -1.00000000 0.00000000
vn 0.00000000 -1.00000000 0.00000000
vn 0.00000000 -1.00000000 0.00000000
vn 0.00000000 -1.00000000 0.00000000
vn 0.00000000 -1.00000000 0.00000000
vn -1.00000000 0.00000000 0.00000000
vn -1.00000000 0.00000000 0.00000000
vn -1.00000000 0.00000000 0.00000000
vn -1.00000000 0.00000000 0.00000000
vn 0.00000000 1.00000000 0.00000000
vn 0.00000000 1.00000000 0.00000000
vn 0.00000000 1.00000000 0.00000000
vn 0.00000000 1.00000000 0.00000000
vn 1.00000000 0.00000000 0.00000000
vn 1.00000000 0.00000000 0.00000000
vn 1.00000000 0.00000000 0.00000000
vn 1.00000000 0.00000000 0.00000000
vn 0.00000000 -1.00000000 0.00000000
vn 0.00000000 -1.00000000 0.00000000
vn 0.00000000 -1.00000000 0.00000000
vn 0.00000000 -1.00000000 0.00000000
vn 0.00000000 -1.00000000 0.00000000
vn 0.00000000 -1.00000000 0.00000000
vn 0.00000000 -1.00000000 0.00000000
vn 0.00000000 -1.00000000 0.00000000
vn 0.98078528 0.19509032 0.00000000
vn 0.98078528 0.19509032 0.00000000
vn 0.98078528 0.19509032 0.00000000
vn 0.98078528 0.19509032 0.00000000
vn 0.83146961 0.55557023 0.00000000
vn 0.83146961 0.55557023 0.00000000
vn 0.83146961 0.55557023 0.00000000
vn 0.83146961 0.55557023 0.00000000
vn -0.98078528 -0.19509032 0.00000000
vn -0.98078528 -0.19509032 0.00000000
vn -0.98078528 -0.19509032 0.00000000
vn -0.98078528 -0.19509032 0.00000000
vn -0.83146961 -0.55557023 0.00000000
vn -0.83146961 -0.55557023 0.00000000
vn -0.83146961 -0.55557023 0.00000000
vn -0.83146961 -0.55557023 0.00000000
vn -0.55557023 -0.83146961 0.00000000
vn -0.55557023 -0.83146961 0.00000000
vn -0.55557023 -0.83146961 0.00000000
vn -0.55557023 -0.83146961 0.00000000
vn -0.19509032 -0.98078528 0.00000000
vn -0.19509032 -0.98078528 0.00000000
vn -0.19509032 -0.98078528 0.00000000
vn -0.19509032 -0.98078528 0.00000000
vn 0.19509032 -0.98078528 0.00000000
vn 0.19509032 -0.98078528 0.00000000
vn 0.19509032 -0.98078528 0.00000000
vn 0.19509032 -0.98078528 0.00000000
vn 0.55557023 -0.83146961 0.00000000
vn 0.55557023 -0.83146961 0.00000000
vn 0.55557023 -0.83146961 0.00000000
vn 0.55557023 -0.83146961 0.00000000
vn 0.83146961 -0.55557023 0.00000000
vn 0.83146961 -0.55557023 0.00000000
vn 0.83146961 -0.55557023 0.00000000
vn 0.83146961 -0.55557023 0.00000000
vn 0.98078528 0.19509032 0.00000000
vn 0.98078528 0.19509032 0.00000000
vn 0.98078528 0.19509032 0.00000000
vn 0.98078528 0.19509032 0.00000000
vn 0.83146961 0.55557023 0.00000000
vn 0.83146961 0.55557023 0.00000000
vn 0.83146961 0.55557023 0.00000000
vn 0.83146961 0.55557023 0.00000000
vn 0.55557023 0.83146961 0.00000000
vn 0.55557023 0.83146961 0.00000000
vn 0.55557023 0.83146961 0.00000000
vn 0.55557023 0.83146961 0.00000000
vn 0.19509032 0.98078528 0.00000000
vn 0.19509032 0.98078528 0.00000000
vn 0.19509032 0.98078528 0.00000000
vn 0.19509032 0.98078528 0.00000000
vn -0.19509032 0.98078528 0.00000000
vn -0.19509032 0.98078528 0.00000000
vn -0.19509032 0.98078528 0.00000000
vn -0.19509032 0.98078528 0.00000000
vn -0.55557023 0.83146961 0.00000000
vn -0.55557023 0.83146961 0.00000000
vn -0.55557023 0.83146961 0.00000000
vn -0.55557023 0.83146961 0.00000000
vn -0.83146961 0.55557023 0.00000000
vn -0.83146961 0.55557023 0.00000000
vn -0.83146961 0.55557023 0.00000000
vn -0.83146961 0.55557023 0.00000000
vn 0.00000000 0.00000000 1.00000000
vn 0.00000000 0.00000000 1.00000000
vn 0.00000000 0.00000000 1.00000000
vn 0.00000000 0.00000000 1.00000000
vn 0.00000000 0.00000000 1.00000000
vn 0.00000000 0.00000000 1.00000000
vn 0.00000000 0.00000000 1.00000000
vn 0.00000000 0.00000000 1.00000000
vn 0.00000000 0.00000000 1.00000000
vn 0.00000000 0.00000000 1.00000000
vn 0.00000000 0.00000000 1.00000000
vn 0.00000000 0.00000000 1.00000000
vn 0.00000000 0.00000000 1.00000000
vn -0.98078528 0.19509032 0.00000000
vn -0.98078528 0.19509032 0.00000000
vn -0.98078528 0.19509032 0.00000000
vn -0.98078528 0.19509032 0.00000000
vn 0.00000000 -0.00000000 1.00000000
vn 0.00000000 -0.00000000 1.00000000
vn 0.00000000 -0.00000000 1.00000000
vn 0.00000000 -0.00000000 1.00000000
vn 0.00000000 -0.00000000 1.00000000
vn 0.00000000 -0.00000000 1.00000000
vn 0.00000000 -0.00000000 1.00000000
vn 0.00000000 -0.00000000 1.00000000
vn 0.00000000 -0.00000000 1.00000000
vn 0.00000000 -0.00000000 1.00000000
vn 0.00000000 -0.00000000 1.00000000
vn 0.00000000 -0.00000000 1.00000000
vn 0.00000000 -0.00000000 1.00000000
vn 0.00000000 -0.00000000 1.00000000
vn 0.00000000 -0.00000000 1.00000000
vn 0.00000000 -0.00000000 1.00000000
vn 0.00000000 -0.00000000 1.00000000
vn 0.00000000 -0.00000000 1.00000000
vn 0.98078528 -0.19509032 0.00000000
vn 0.98078528 -0.19509032 0.00000000
vn 0.98078528 -0.19509032 0.00000000
vn 0.98078528 -0.19509032 0.00000000
vn 0.00000000 0.00000000 -1.00000000
vn 0.00000000 0.00000000 -1.00000000
vn 0.00000000 0.00000000 -1.00000000
vn 0.00000000 0.00000000 -1.00000000
vn 0.00000000 0.00000000 -1.00000000
vn 0.00000000 0.00000000 -1.00000000
vn 0.00000000 0.00000000 -1.00000000
vn 0.00000000 0.00000000 -1.00000000
vn 0.00000000 0.00000000 -1.00000000
vn 0.00000000 0.00000000 -1.00000000
vn 0.00000000 0.00000000 -1.00000000
vn 0.00000000 0.00000000 -1.00000000
vn 0.00000000 0.00000000 -1.00000000
vn 0.00000000 0.00000000 -1.00000000
vn 0.00000000 0.00000000 -1.00000000
vn 0.00000000 0.00000000 -1.00000000
vn 0.00000000 0.00000000 -1.00000000
vn 0.00000000 0.00000000 -1.00000000
vn 0.55557023 0.83146961 0.00000000
vn 0.55557023 0.83146961 0.00000000
vn 0.55557023 0.83146961 0.00000000
vn 0.55557023 0.83146961 0.00000000
vn 0.00000000 0.00000000 -1.00000000
vn 0.00000000 0.00000000 -1.00000000
vn 0.00000000 0.00000000 -1.00000000
vn 0.00000000 0.00000000 -1.00000000
vn 0.00000000 0.00000000 -1.00000000
vn 0.00000000 0.00000000 -1.00000000
vn 0.00000000 0.00000000 -1.00000000
vn 0.00000000 0.00000000 -1.00000000
vn 0.00000000 0.00000000 -1.00000000
vn 0.00000000 0.00000000 -1.00000000
vn 0.00000000 0.00000000 -1.00000000
vn 0.00000000 0.00000000 -1.00000000
vn 0.00000000 0.00000000 -1.00000000
s 1
usemtl Sandstone_5
f 4/4/4 3/3/3 2/2/2
f 4/4/4 2/2/2 1/1/1
s 2
f 6/8/8 5/7/7 3/6/6
f 6/8/8 3/6/6 4/5/5
s 3
f 8/12/12 7/11/11 5/10/10
f 8/12/12 5/10/10 6/9/9
s 4
f 10/16/16 9/15/15 7/14/14
f 10/16/16 7/14/14 8/13/13
s 5
f 12/20/20 11/19/19 9/18/18
f 12/20/20 9/18/18 10/17/17
s 6
usemtl Sandstone_Trim
f 16/26/26 17/27/27 18/28/28
f 13/21/21 14/22/22 18/28/28
f 14/22/22 11/23/23 18/28/28
f 11/23/23 12/24/24 15/25/25
f 11/23/23 16/26/26 18/28/28
f 11/23/23 15/25/25 16/26/26
s 7
f 13/29/29 19/30/30 14/32/32
f 19/30/30 20/31/31 14/32/32
s 8
f 22/36/36 20/35/35 21/33/33
f 20/35/35 19/34/34 21/33/33
s 9
f 24/40/40 22/39/39 23/37/37
f 22/39/39 21/38/38 23/37/37
s 10
f 25/43/43 26/44/44 27/45/45
f 27/45/45 28/46/46 30/48/48
f 24/41/41 23/42/42 30/48/48
f 28/46/46 29/47/47 30/48/48
f 23/42/42 25/43/43 30/48/48
f 25/43/43 27/45/45 30/48/48
s 11
usemtl Sandstone_5
f 32/52/52 31/51/51 30/50/50
f 32/52/52 30/50/50 29/49/49
s 12
f 34/56/56 33/55/55 31/54/54
f 34/56/56 31/54/54 32/53/53
s 13
f 27/57/57 35/58/58 28/60/60
f 35/58/58 36/59/59 28/60/60
s 14
f 35/61/61 37/62/62 36/64/64
f 37/62/62 38/63/63 36/64/64
s 15
f 37/65/65 39/66/66 38/68/68
f 39/66/66 40/67/67 38/68/68
s 16
f 39/69/69 41/70/70 40/72/72
f 41/70/70 42/71/71 40/72/72
s 17
f 41/73/73 43/74/74 42/76/76
f 43/74/74 44/75/75 42/76/76
s 18
f 43/77/77 45/78/78 44/80/80
f 45/78/78 46/79/79 44/80/80
s 19
f 45/81/81 47/82/82 46/84/84
f 47/82/82 48/83/83 46/84/84
s 20
f 26/88/88 25/87/87 49/85/85
f 25/87/87 50/86/86 49/85/85
s 21
f 49/92/92 50/91/91 51/89/89
f 50/91/91 52/90/90 51/89/89
s 22
f 51/96/96 52/95/95 53/93/93
f 52/95/95 54/94/94 53/93/93
s 23
f 53/100/100 54/99/99 55/97/97
f 54/99/99 56/98/98 55/97/97
s 24
f 55/104/104 56/103/103 57/101/101
f 56/103/103 58/102/102 57/101/101
s 25
f 57/108/108 58/107/107 59/105/105
f 58/107/107 60/106/106 59/105/105
s 26
f 59/112/112 60/111/111 61/109/109
f 60/111/111 62/110/110 61/109/109
s 27
usemtl Sandstone_Trim
f 50/118/118 25/119/119 23/120/120
f 52/117/117 50/118/118 21/121/121
f 54/116/116 21/121/121 19/122/122
f 19/122/122 58/114/114 56/115/115
f 19/122/122 60/113/113 58/114/114
f 19/122/122 62/125/125 60/113/113
f 13/123/123 18/124/124 62/125/125
f 19/122/122 13/123/123 62/125/125
f 56/115/115 54/116/116 19/122/122
f 54/116/116 52/117/117 21/121/121
f 50/118/118 23/120/120 21/121/121
s 28
usemtl Sandstone_5
f 61/129/129 62/128/128 17/126/126
f 62/128/128 18/127/127 17/126/126
s 29
f 17/132/132 16/133/133 47/134/134
f 61/131/131 47/134/134 45/135/135
f 59/130/130 45/135/135 43/136/136
f 57/147/147 43/136/136 41/137/137
f 55/146/146 41/137/137 39/138/138
f 53/145/145 39/138/138 37/139/139
f 51/144/144 37/139/139 35/140/140
f 35/140/140 26/142/142 49/143/143
f 35/140/140 27/141/141 26/142/142
f 49/143/143 51/144/144 35/140/140
f 51/144/144 53/145/145 37/139/139
f 53/145/145 55/146/146 39/138/138
f 55/146/146 57/147/147 41/137/137
f 57/147/147 59/130/130 43/136/136
f 59/130/130 61/131/131 45/135/135
f 61/131/131 17/132/132 47/134/134
s 30
f 47/148/148 16/149/149 48/151/151
f 16/149/149 15/150/150 48/151/151
s 31
f 48/156/156 15/155/155 12/154/154
f 46/157/157 48/156/156 10/153/153
f 44/158/158 46/157/157 8/152/152
f 42/159/159 44/158/158 6/169/169
f 40/160/160 42/159/159 4/168/168
f 38/161/161 40/160/160 1/167/167
f 36/162/162 38/161/161 34/166/166
f 32/165/165 29/164/164 36/162/162
f 36/162/162 34/166/166 32/165/165
f 29/164/164 28/163/163 36/162/162
f 38/161/161 1/167/167 34/166/166
f 40/160/160 4/168/168 1/167/167
f 42/159/159 6/169/169 4/168/168
f 44/158/158 8/152/152 6/169/169
f 46/157/157 10/153/153 8/152/152
f 48/156/156 12/154/154 10/153/153
s 32
f 1/173/173 2/172/172 33/171/171
f 1/173/173 33/171/171 34/170/170
s 33
usemtl Sandstone_Trim
f 9/186/186 11/185/185 14/184/184
f 7/174/174 9/186/186 20/183/183
f 20/183/183 2/177/177 3/176/176
f 22/182/182 33/178/178 2/177/177
f 22/182/182 31/179/179 33/178/178
f 24/181/181 30/180/180 31/179/179
f 22/182/182 24/181/181 31/179/179
f 3/176/176 5/175/175 20/183/183
f 20/183/183 22/182/182 2/177/177
f 5/175/175 7/174/174 20/183/183
f 9/186/186 14/184/184 20/183/183
