mtllib 3_steps_top_curved.mtl
o object1
g object1
v 0.12216020 0.35796048 -0.72105815
v 0.04759968 0.46769790 -0.57472489
v 0.35290650 0.46769790 -0.35290650
v 0.46903724 0.35796048 -0.46903724
v 0.57472489 0.46769790 -0.04759968
v 0.72105815 0.35796048 -0.12216020
v 0.69134172 0.46769790 0.31131001
v 0.85355339 0.35796048 0.28561820
v 0.69134172 0.46769790 0.50000000
v 0.85355339 0.35796048 0.50000000
v 0.96193977 0.19372681 0.50000000
v 1.00000000 0.00000000 0.50000000
v 1.50000000 0.00000000 0.50000000
v 1.50000000 1.00000000 0.50000000
v -0.50000000 1.00000000 0.50000000
v -0.50000000 0.00000000 0.50000000
v 0.00000000 0.00000000 0.50000000
v 0.03806023 0.19372681 0.50000000
v 0.14644661 0.35796048 0.50000000
v 0.30865828 0.46769790 0.50000000
v 0.50000000 0.50623256 0.50000000
v 0.50000000 0.50623256 0.34161556
v 0.30865828 0.46769790 0.37192111
v 0.40211303 0.50623256 0.04035045
v 0.22950118 0.46769790 0.12830059
v 0.21592096 0.50623256 -0.21592096
v 0.07893541 0.46769790 -0.07893541
v -0.04035045 0.50623256 -0.40211303
v -0.12830059 0.46769790 -0.22950118
v -0.34161556 0.50623256 -0.50000000
v -0.37192111 0.46769790 -0.30865828
v -0.31131001 0.46769790 -0.69134172
v -0.50000000 0.46769790 -0.69134172
v -0.50000000 0.50623256 -0.50000000
v -0.28561820 0.35796048 -0.85355339
v -0.50000000 0.35796048 -0.85355339
v -0.26845149 0.19372681 -0.96193977
v -0.50000000 0.19372681 -0.96193977
v 0.17197995 0.19372681 -0.81883492
v -0.26242334 0.00000000 -1.00000000
v 0.18947432 0.00000000 -0.85316955
v 0.54663332 0.19372681 -0.54663332
v 0.57388143 0.00000000 -0.57388143
v 0.81883492 0.19372681 -0.17197995
v 0.85316955 0.00000000 -0.18947432
v 0.96193977 0.19372681 0.26845149
v 1.00000000 0.00000000 0.26242334
v -0.50000000 0.00000000 -1.00000000
v -0.50000000 0.46769790 -0.30865828
v -0.39761292 0.35796048 -0.14644661
v -0.50000000 0.35796048 -0.14644661
v -0.41477963 0.19372681 -0.03806023
v -0.50000000 0.19372681 -0.03806023
v -0.42080778 0.00000000 -0.00000000
v -0.50000000 0.00000000 -0.00000000
v -0.27017523 0.00000000 0.04894348
v -0.25268086 0.19372681 0.01460885
v -0.14203952 0.00000000 0.14203952
v -0.11479140 0.19372681 0.11479140
v -0.04894348 0.00000000 0.27017523
v -0.01460885 0.19372681 0.25268086
v 0.00000000 0.00000000 0.42080778
v 0.03806023 0.19372681 0.41477963
v 0.08316791 0.35796048 0.20286111
v 0.14644661 0.35796048 0.39761292
v -0.03719533 0.35796048 0.03719533
v -0.20286111 0.35796048 -0.08316791
v -0.50000000 1.00000000 -1.50000000
v -0.50000000 0.00000000 -1.50000000
v 1.50000000 1.00000000 -1.50000000
v 1.50000000 0.00000000 -1.50000000
vt 1.00000000 0.00000000
vt 1.00000000 1.00000000
vt 0.00000000 1.00000000
vt 0.00000000 0.00000000
vt 1.00000000 0.00000000
vt 1.00000000 1.00000000
vt 0.00000000 1.00000000
vt 0.00000000 0.00000000
vt 1.00000000 0.00000000
vt 1.00000000 1.00000000
vt 0.00000000 1.00000000
vt 0.00000000 0.00000000
vt 1.00000000 0.00000000
vt 1.00000000 1.00000000
vt 0.00000000 1.00000000
vt 0.00000000 0.00000000
vt 0.46769790 0.40432914
vt 0.35796048 0.32322330
vt 0.19372681 0.26903012
vt 0.00000000 0.25000000
vt 0.00000000 0.00000000
vt 1.00000000 0.00000000
vt 1.00000000 1.00000000
vt 0.00000000 1.00000000
vt 0.00000000 0.75000000
vt 0.19372681 0.73096988
vt 0.35796048 0.67677670
vt 0.46769790 0.59567086
vt 0.50623256 0.50000000
vt 1.00000000 0.00000000
vt 1.00000000 1.00000000
vt 0.00000000 1.00000000
vt 0.00000000 0.00000000
vt 1.00000000 0.00000000
vt 1.00000000 1.00000000
vt 0.00000000 1.00000000
vt 0.00000000 0.00000000
vt 1.00000000 0.00000000
vt 1.00000000 1.00000000
vt 0.00000000 1.00000000
vt 0.00000000 0.00000000
vt 1.00000000 0.00000000
vt 1.00000000 1.00000000
vt 0.00000000 1.00000000
vt 0.00000000 0.00000000
vt 1.00000000 0.00000000
vt 1.00000000 1.00000000
vt 0.00000000 1.00000000
vt 0.00000000 0.00000000
vt 1.00000000 0.00000000
vt 1.00000000 1.00000000
vt 0.00000000 1.00000000
vt 0.00000000 0.00000000
vt 0.00000000 1.00000000
vt 0.00000000 0.00000000
vt 1.00000000 0.00000000
vt 1.00000000 1.00000000
vt 0.00000000 1.00000000
vt 0.00000000 0.00000000
vt 1.00000000 0.00000000
vt 1.00000000 1.00000000
vt 0.00000000 1.00000000
vt 0.00000000 0.00000000
vt 1.00000000 0.00000000
vt 1.00000000 1.00000000
vt 1.00000000 0.00000000
vt 1.00000000 1.00000000
vt 0.00000000 1.00000000
vt 0.00000000 0.00000000
vt 1.00000000 0.00000000
vt 1.00000000 1.00000000
vt 0.00000000 1.00000000
vt 0.00000000 0.00000000
vt 1.00000000 0.00000000
vt 1.00000000 1.00000000
vt 0.00000000 1.00000000
vt 0.00000000 0.00000000
vt 1.00000000 0.00000000
vt 1.00000000 1.00000000
vt 0.00000000 1.00000000
vt 0.00000000 0.00000000
vt 1.00000000 0.00000000
vt 1.00000000 1.00000000
vt 0.00000000 1.00000000
vt 0.00000000 0.00000000
vt 0.00000000 1.00000000
vt 0.00000000 0.00000000
vt 1.00000000 0.00000000
vt 1.00000000 1.00000000
vt 0.00000000 1.00000000
vt 0.00000000 0.00000000
vt 1.00000000 0.00000000
vt 1.00000000 1.00000000
vt 0.00000000 1.00000000
vt 0.00000000 0.00000000
vt 1.00000000 0.00000000
vt 1.00000000 1.00000000
vt 0.00000000 1.00000000
vt 0.00000000 0.00000000
vt 1.00000000 0.00000000
vt 1.00000000 1.00000000
vt 0.00000000 1.00000000
vt 0.00000000 0.00000000
vt 1.00000000 0.00000000
vt 1.00000000 1.00000000
vt 1.00000000 0.00000000
vt 1.00000000 1.00000000
vt 0.00000000 1.00000000
vt 0.00000000 0.00000000
vt 1.00000000 0.00000000
vt 1.00000000 1.00000000
vt 0.00000000 1.00000000
vt 0.00000000 0.00000000
vt 1.00000000 0.00000000
vt 1.00000000 1.00000000
vt 0.00000000 1.00000000
vt 0.00000000 0.00000000
vt 1.00000000 0.00000000
vt 1.00000000 1.00000000
vt 0.00000000 1.00000000
vt 0.00000000 0.00000000
vt 1.00000000 0.00000000
vt 1.00000000 1.00000000
vt 0.00000000 1.00000000
vt 0.00000000 0.00000000
vt 1.00000000 0.00000000
vt 1.00000000 1.00000000
vt 0.00000000 1.00000000
vt 0.00000000 0.00000000
vt 1.00000000 0.00000000
vt 1.00000000 1.00000000
vt 0.00000000 1.00000000
vt 0.00000000 0.00000000
vt 1.00000000 0.00000000
vt 1.00000000 1.00000000
vt 0.00000000 1.00000000
vt 0.00000000 0.00000000
vt 1.00000000 0.00000000
vt 1.00000000 1.00000000
vt 0.00000000 1.00000000
vt 0.00000000 0.00000000
vt 1.00000000 0.00000000
vt 1.00000000 1.00000000
vt 0.00000000 1.00000000
vt 0.00000000 0.00000000
vt 1.00000000 0.00000000
vt 1.00000000 1.00000000
vt 0.00000000 1.00000000
vt 0.00000000 0.00000000
vt 1.00000000 0.00000000
vt 1.00000000 1.00000000
vt 0.00000000 1.00000000
vt 0.00000000 0.00000000
vt 1.00000000 0.00000000
vt 1.00000000 1.00000000
vt 0.00000000 1.00000000
vt 0.00000000 0.00000000
vt 1.00000000 0.00000000
vt 1.00000000 1.00000000
vt 0.00000000 1.00000000
vt 0.00000000 0.00000000
vt 1.00000000 0.00000000
vt 1.00000000 1.00000000
vt 0.00000000 1.00000000
vt 0.00000000 0.00000000
vt 0.28407904 0.71592096
vt 0.09788697 0.45964955
vt 0.00000000 0.15838444
vt 0.00000000 0.00000000
vt 1.00000000 0.00000000
vt 1.00000000 1.00000000
vt 0.84161556 1.00000000
vt 0.54035045 0.90211303
vt 0.46769790 0.40432914
vt 0.35796048 0.32322330
vt 0.19372681 0.26903012
vt 0.00000000 0.25000000
vt 0.00000000 0.00000000
vt 1.00000000 0.00000000
vt 1.00000000 1.00000000
vt 0.00000000 1.00000000
vt 0.00000000 0.75000000
vt 0.19372681 0.73096988
vt 0.35796048 0.67677670
vt 0.46769790 0.59567086
vt 0.50623256 0.50000000
vt 1.00000000 0.00000000
vt 1.00000000 1.00000000
vt 0.00000000 1.00000000
vt 0.00000000 0.00000000
vt 1.00000000 0.00000000
vt 1.00000000 1.00000000
vt 0.00000000 1.00000000
vt 0.00000000 0.00000000
vt 1.00000000 0.00000000
vt 1.00000000 1.00000000
vt 0.00000000 1.00000000
vt 0.00000000 0.00000000
vt 0.00000000 1.00000000
vt 0.00000000 0.00000000
vt 0.25000000 0.00000000
vt 0.25000000 0.11878833
vt 0.32341523 0.34473716
vt 0.46305928 0.53694072
vt 0.65526284 0.67658477
vt 0.88121167 0.75000000
vt 1.00000000 0.75000000
vt 1.00000000 1.00000000
vt 1.00000000 0.00000000
vt 1.00000000 1.00000000
vt 0.00000000 1.00000000
vt 0.00000000 0.00000000
vt 1.00000000 0.00000000
vt 1.00000000 1.00000000
vt 0.00000000 1.00000000
vt 0.00000000 0.00000000
vt 1.00000000 0.00000000
vt 1.00000000 1.00000000
vt 0.00000000 1.00000000
vt 0.00000000 0.00000000
vt 1.00000000 0.00000000
vt 1.00000000 1.00000000
vt 0.00000000 1.00000000
vt 0.00000000 0.00000000
vt 1.00000000 0.00000000
vt 1.00000000 1.00000000
vt 0.00000000 1.00000000
vt 0.00000000 0.00000000
vt 1.00000000 0.00000000
vt 1.00000000 1.00000000
vt 0.00000000 1.00000000
vt 0.00000000 0.00000000
vt 1.00000000 0.00000000
vt 1.00000000 1.00000000
vt 0.00000000 1.00000000
vt 0.00000000 0.00000000
vt 1.00000000 0.00000000
vt 1.00000000 1.00000000
vt 0.00000000 1.00000000
vt 0.00000000 0.00000000
vt 1.00000000 0.00000000
vt 1.00000000 1.00000000
vt 0.00000000 1.00000000
vt 0.00000000 0.00000000
vt 1.00000000 0.00000000
vt 1.00000000 1.00000000
vt 0.00000000 1.00000000
vt 0.00000000 0.00000000
vn -0.32935393 -0.82826920 0.45331680
vn -0.32935393 -0.82826920 0.45331680
vn -0.32935393 -0.82826920 0.45331680
vn -0.32935393 -0.82826920 0.45331680
vn -0.45331680 -0.82826920 0.32935393
vn -0.45331680 -0.82826920 0.32935393
vn -0.45331680 -0.82826920 0.32935393
vn -0.45331680 -0.82826920 0.32935393
vn -0.53290586 -0.82826920 0.17315161
vn -0.53290586 -0.82826920 0.17315161
vn -0.53290586 -0.82826920 0.17315161
vn -0.53290586 -0.82826920 0.17315161
vn -0.56033038 -0.82826920 -0.00000000
vn -0.56033038 -0.82826920 0.00000000
vn -0.56033038 -0.82826920 0.00000000
vn -0.56033038 -0.82826920 -0.00000000
vn 0.00000000 0.00000000 1.00000000
vn 0.00000000 0.00000000 1.00000000
vn 0.00000000 0.00000000 1.00000000
vn 0.00000000 0.00000000 1.00000000
vn 0.00000000 0.00000000 1.00000000
vn 0.00000000 0.00000000 1.00000000
vn 0.00000000 0.00000000 1.00000000
vn 0.00000000 0.00000000 1.00000000
vn 0.00000000 0.00000000 1.00000000
vn 0.00000000 0.00000000 1.00000000
vn 0.00000000 0.00000000 1.00000000
vn 0.00000000 0.00000000 1.00000000
vn 0.00000000 0.00000000 1.00000000
vn 0.19742792 -0.98031741 0.00000000
vn 0.19742792 -0.98031741 0.00000000
vn 0.19742792 -0.98031741 0.00000000
vn 0.19742792 -0.98031741 0.00000000
vn 0.18776511 -0.98031741 -0.06100858
vn 0.18776511 -0.98031741 -0.06100858
vn 0.18776511 -0.98031741 -0.06100858
vn 0.18776511 -0.98031741 -0.06100858
vn 0.15972254 -0.98031741 -0.11604522
vn 0.15972254 -0.98031741 -0.11604522
vn 0.15972254 -0.98031741 -0.11604522
vn 0.15972254 -0.98031741 -0.11604522
vn 0.11604522 -0.98031741 -0.15972254
vn 0.11604522 -0.98031741 -0.15972254
vn 0.11604522 -0.98031741 -0.15972254
vn 0.11604522 -0.98031741 -0.15972254
vn 0.06100858 -0.98031741 -0.18776511
vn 0.06100858 -0.98031741 -0.18776511
vn 0.06100858 -0.98031741 -0.18776511
vn 0.06100858 -0.98031741 -0.18776511
vn -0.06100858 -0.98031741 0.18776511
vn -0.06100858 -0.98031741 0.18776511
vn -0.06100858 -0.98031741 0.18776511
vn -0.06100858 -0.98031741 0.18776511
vn 0.00000000 -0.98031741 0.19742792
vn 0.00000000 -0.98031741 0.19742792
vn 0.00000000 -0.98031741 0.19742792
vn 0.00000000 -0.98031741 0.19742792
vn 0.00000000 -0.82826920 0.56033038
vn 0.00000000 -0.82826920 0.56033038
vn 0.00000000 -0.82826920 0.56033038
vn 0.00000000 -0.82826920 0.56033038
vn 0.00000000 -0.55081445 0.83462773
vn -0.00000000 -0.55081445 0.83462773
vn -0.00000000 -0.55081445 0.83462773
vn 0.00000000 -0.55081445 0.83462773
vn -0.25791415 -0.55081445 0.79377814
vn -0.25791415 -0.55081445 0.79377814
vn -0.25791415 -0.55081445 0.79377814
vn -0.25791415 -0.55081445 0.79377814
vn -0.30322056 -0.19277823 0.93321693
vn -0.30322056 -0.19277823 0.93321693
vn -0.30322056 -0.19277823 0.93321693
vn -0.30322056 -0.19277823 0.93321693
vn -0.57675978 -0.19277823 0.79384174
vn -0.57675978 -0.19277823 0.79384174
vn -0.57675978 -0.19277823 0.79384174
vn -0.57675978 -0.19277823 0.79384174
vn -0.79384174 -0.19277823 0.57675978
vn -0.79384174 -0.19277823 0.57675978
vn -0.79384174 -0.19277823 0.57675978
vn -0.79384174 -0.19277823 0.57675978
vn -0.93321693 -0.19277823 0.30322056
vn -0.93321693 -0.19277823 0.30322056
vn -0.93321693 -0.19277823 0.30322056
vn -0.93321693 -0.19277823 0.30322056
vn -0.00000000 -0.19277823 0.98124235
vn 0.00000000 -0.19277823 0.98124235
vn 0.00000000 -0.19277823 0.98124235
vn -0.00000000 -0.19277823 0.98124235
vn 0.00000000 -0.98031741 -0.19742792
vn 0.00000000 -0.98031741 -0.19742792
vn 0.00000000 -0.98031741 -0.19742792
vn 0.00000000 -0.98031741 -0.19742792
vn 0.00000000 -0.82826920 -0.56033038
vn 0.00000000 -0.82826920 -0.56033038
vn 0.00000000 -0.82826920 -0.56033038
vn 0.00000000 -0.82826920 -0.56033038
vn 0.00000000 -0.55081445 -0.83462773
vn 0.00000000 -0.55081445 -0.83462773
vn 0.00000000 -0.55081445 -0.83462773
vn 0.00000000 -0.55081445 -0.83462773
vn 0.00000000 -0.19277823 -0.98124235
vn 0.00000000 -0.19277823 -0.98124235
vn 0.00000000 -0.19277823 -0.98124235
vn 0.00000000 -0.19277823 -0.98124235
vn 0.30322056 -0.19277823 -0.93321693
vn 0.30322056 -0.19277823 -0.93321693
vn 0.30322056 -0.19277823 -0.93321693
vn 0.30322056 -0.19277823 -0.93321693
vn 0.57675978 -0.19277823 -0.79384174
vn 0.57675978 -0.19277823 -0.79384174
vn 0.57675978 -0.19277823 -0.79384174
vn 0.57675978 -0.19277823 -0.79384174
vn 0.79384174 -0.19277823 -0.57675978
vn 0.79384174 -0.19277823 -0.57675978
vn 0.79384174 -0.19277823 -0.57675978
vn 0.79384174 -0.19277823 -0.57675978
vn 0.93321693 -0.19277823 -0.30322056
vn 0.93321693 -0.19277823 -0.30322056
vn 0.93321693 -0.19277823 -0.30322056
vn 0.93321693 -0.19277823 -0.30322056
vn 0.79377814 -0.55081445 -0.25791415
vn 0.79377814 -0.55081445 -0.25791415
vn 0.79377814 -0.55081445 -0.25791415
vn 0.79377814 -0.55081445 -0.25791415
vn 0.67522802 -0.55081445 -0.49058187
vn 0.67522802 -0.55081445 -0.49058187
vn 0.67522802 -0.55081445 -0.49058187
vn 0.67522802 -0.55081445 -0.49058187
vn 0.49058187 -0.55081445 -0.67522802
vn 0.49058187 -0.55081445 -0.67522802
vn 0.49058187 -0.55081445 -0.67522802
vn 0.49058187 -0.55081445 -0.67522802
vn 0.25791415 -0.55081445 -0.79377814
vn 0.25791415 -0.55081445 -0.79377814
vn 0.25791415 -0.55081445 -0.79377814
vn 0.25791415 -0.55081445 -0.79377814
vn 0.17315161 -0.82826920 -0.53290586
vn 0.17315161 -0.82826920 -0.53290586
vn 0.17315161 -0.82826920 -0.53290586
vn 0.17315161 -0.82826920 -0.53290586
vn 0.32935393 -0.82826920 -0.45331680
vn 0.32935393 -0.82826920 -0.45331680
vn 0.32935393 -0.82826920 -0.45331680
vn 0.32935393 -0.82826920 -0.45331680
vn 0.45331680 -0.82826920 -0.32935393
vn 0.45331680 -0.82826920 -0.32935393
vn 0.45331680 -0.82826920 -0.32935393
vn 0.45331680 -0.82826920 -0.32935393
vn 0.53290586 -0.82826920 -0.17315161
vn 0.53290586 -0.82826920 -0.17315161
vn 0.53290586 -0.82826920 -0.17315161
vn 0.53290586 -0.82826920 -0.17315161
vn 0.56033038 -0.82826920 0.00000000
vn 0.56033038 -0.82826920 0.00000000
vn 0.56033038 -0.82826920 0.00000000
vn 0.56033038 -0.82826920 0.00000000
vn 0.83462773 -0.55081445 0.00000000
vn 0.83462773 -0.55081445 0.00000000
vn 0.83462773 -0.55081445 0.00000000
vn 0.83462773 -0.55081445 0.00000000
vn 0.98124235 -0.19277823 0.00000000
vn 0.98124235 -0.19277823 0.00000000
vn 0.98124235 -0.19277823 0.00000000
vn 0.98124235 -0.19277823 0.00000000
vn 0.00000000 -1.00000000 0.00000000
vn 0.00000000 -1.00000000 0.00000000
vn 0.00000000 -1.00000000 0.00000000
vn 0.00000000 -1.00000000 0.00000000
vn 0.00000000 -1.00000000 0.00000000
vn 0.00000000 -1.00000000 0.00000000
vn 0.00000000 -1.00000000 0.00000000
vn 0.00000000 -1.00000000 0.00000000
vn -1.00000000 0.00000000 0.00000000
vn -1.00000000 0.00000000 0.00000000
vn -1.00000000 0.00000000 0.00000000
vn -1.00000000 0.00000000 0.00000000
vn -1.00000000 0.00000000 0.00000000
vn -1.00000000 0.00000000 0.00000000
vn -1.00000000 0.00000000 0.00000000
vn -1.00000000 0.00000000 0.00000000
vn -1.00000000 0.00000000 0.00000000
vn -1.00000000 0.00000000 0.00000000
vn -1.00000000 0.00000000 0.00000000
vn -1.00000000 0.00000000 0.00000000
vn -1.00000000 0.00000000 0.00000000
vn 0.00000000 0.00000000 -1.00000000
vn 0.00000000 0.00000000 -1.00000000
vn 0.00000000 0.00000000 -1.00000000
vn 0.00000000 0.00000000 -1.00000000
vn 0.00000000 1.00000000 0.00000000
vn 0.00000000 1.00000000 0.00000000
vn 0.00000000 1.00000000 0.00000000
vn 0.00000000 1.00000000 0.00000000
vn 1.00000000 0.00000000 0.00000000
vn 1.00000000 0.00000000 0.00000000
vn 1.00000000 0.00000000 0.00000000
vn 1.00000000 0.00000000 0.00000000
vn 0.00000000 -1.00000000 0.00000000
vn 0.00000000 -1.00000000 0.00000000
vn 0.00000000 -1.00000000 0.00000000
vn 0.00000000 -1.00000000 0.00000000
vn 0.00000000 -1.00000000 0.00000000
vn 0.00000000 -1.00000000 0.00000000
vn 0.00000000 -1.00000000 0.00000000
vn 0.00000000 -1.00000000 0.00000000
vn 0.00000000 -1.00000000 0.00000000
vn 0.00000000 -1.00000000 0.00000000
vn -0.98124235 -0.19277823 -0.00000000
vn -0.98124235 -0.19277823 0.00000000
vn -0.98124235 -0.19277823 0.00000000
vn -0.98124235 -0.19277823 -0.00000000
vn -0.83462773 -0.55081445 0.00000000
vn -0.83462773 -0.55081445 -0.00000000
vn -0.83462773 -0.55081445 -0.00000000
vn -0.83462773 -0.55081445 0.00000000
vn -0.19742792 -0.98031741 0.00000000
vn -0.19742792 -0.98031741 -0.00000000
vn -0.19742792 -0.98031741 -0.00000000
vn -0.19742792 -0.98031741 0.00000000
vn -0.79377814 -0.55081445 0.25791415
vn -0.79377814 -0.55081445 0.25791415
vn -0.79377814 -0.55081445 0.25791415
vn -0.79377814 -0.55081445 0.25791415
vn -0.18776511 -0.98031741 0.06100858
vn -0.18776511 -0.98031741 0.06100858
vn -0.18776511 -0.98031741 0.06100858
vn -0.18776511 -0.98031741 0.06100858
vn -0.67522802 -0.55081445 0.49058187
vn -0.67522802 -0.55081445 0.49058187
vn -0.67522802 -0.55081445 0.49058187
vn -0.67522802 -0.55081445 0.49058187
vn -0.15972254 -0.98031741 0.11604522
vn -0.15972254 -0.98031741 0.11604522
vn -0.15972254 -0.98031741 0.11604522
vn -0.15972254 -0.98031741 0.11604522
vn -0.49058187 -0.55081445 0.67522802
vn -0.49058187 -0.55081445 0.67522802
vn -0.49058187 -0.55081445 0.67522802
vn -0.49058187 -0.55081445 0.67522802
vn -0.17315161 -0.82826920 0.53290586
vn -0.17315161 -0.82826920 0.53290586
vn -0.17315161 -0.82826920 0.53290586
vn -0.17315161 -0.82826920 0.53290586
vn -0.11604522 -0.98031741 0.15972254
vn -0.11604522 -0.98031741 0.15972254
vn -0.11604522 -0.98031741 0.15972254
vn -0.11604522 -0.98031741 0.15972254
s 1
usemtl Sandstone_Trim
f 4/4/4 3/3/3 1/1/1
f 3/3/3 2/2/2 1/1/1
s 2
f 6/8/8 5/7/7 4/5/5
f 5/7/7 3/6/6 4/5/5
s 3
f 8/12/12 7/11/11 6/9/9
f 7/11/11 5/10/10 6/9/9
s 4
f 10/16/16 9/15/15 7/14/14
f 10/16/16 7/14/14 8/13/13
s 5
f 11/19/19 12/20/20 13/21/21
f 10/18/18 11/19/19 14/22/22
f 9/17/17 14/22/22 15/23/23
f 15/23/23 20/28/28 21/29/29
f 15/23/23 19/27/27 20/28/28
f 15/23/23 18/26/26 19/27/27
f 16/24/24 17/25/25 18/26/26
f 15/23/23 16/24/24 18/26/26
f 9/17/17 15/23/23 21/29/29
f 9/17/17 10/18/18 14/22/22
f 11/19/19 13/21/21 14/22/22
s 6
f 21/33/33 20/32/32 23/31/31
f 21/33/33 23/31/31 22/30/30
s 7
f 22/37/37 23/36/36 24/34/34
f 23/36/36 25/35/35 24/34/34
s 8
f 24/41/41 25/40/40 26/38/38
f 25/40/40 27/39/39 26/38/38
s 9
f 26/45/45 27/44/44 28/42/42
f 27/44/44 29/43/43 28/42/42
s 10
f 28/49/49 29/48/48 30/46/46
f 29/48/48 31/47/47 30/46/46
s 11
f 2/53/53 28/52/52 32/50/50
f 28/52/52 30/51/51 32/50/50
s 12
f 34/57/57 33/56/56 30/54/54
f 33/56/56 32/55/55 30/54/54
s 13
f 33/61/61 36/60/60 32/58/58
f 36/60/60 35/59/59 32/58/58
s 14
f 36/65/65 38/64/64 35/62/62
f 38/64/64 37/63/63 35/62/62
s 15
f 39/69/69 1/68/68 37/66/66
f 1/68/68 35/67/67 37/66/66
s 16
f 41/73/73 39/72/72 40/70/70
f 39/72/72 37/71/71 40/70/70
s 17
f 43/77/77 42/76/76 41/74/74
f 42/76/76 39/75/75 41/74/74
s 18
f 45/81/81 44/80/80 43/78/78
f 44/80/80 42/79/79 43/78/78
s 19
f 47/85/85 46/84/84 45/82/82
f 46/84/84 44/83/83 45/82/82
s 20
f 38/89/89 48/88/88 37/86/86
f 48/88/88 40/87/87 37/86/86
s 21
f 49/93/93 34/92/92 31/90/90
f 34/92/92 30/91/91 31/90/90
s 22
f 51/97/97 49/96/96 50/94/94
f 49/96/96 31/95/95 50/94/94
s 23
f 53/101/101 51/100/100 52/98/98
f 51/100/100 50/99/99 52/98/98
s 24
f 55/105/105 53/104/104 54/102/102
f 53/104/104 52/103/103 54/102/102
s 25
f 57/109/109 56/108/108 52/106/106
f 56/108/108 54/107/107 52/106/106
s 26
f 59/113/113 58/112/112 57/110/110
f 58/112/112 56/111/111 57/110/110
s 27
f 61/117/117 60/116/116 59/114/114
f 60/116/116 58/115/115 59/114/114
s 28
f 63/121/121 62/120/120 61/118/118
f 62/120/120 60/119/119 61/118/118
s 29
f 65/125/125 63/124/124 64/122/122
f 63/124/124 61/123/123 64/122/122
s 30
f 64/129/129 61/128/128 66/126/126
f 61/128/128 59/127/127 66/126/126
s 31
f 66/133/133 59/132/132 67/130/130
f 59/132/132 57/131/131 67/130/130
s 32
f 67/137/137 57/136/136 50/134/134
f 57/136/136 52/135/135 50/134/134
s 33
f 29/141/141 67/140/140 31/138/138
f 67/140/140 50/139/139 31/138/138
s 34
f 27/145/145 66/144/144 29/142/142
f 66/144/144 67/143/143 29/142/142
s 35
f 25/149/149 64/148/148 27/146/146
f 64/148/148 66/147/147 27/146/146
s 36
f 23/153/153 65/152/152 25/150/150
f 65/152/152 64/151/151 25/150/150
s 37
f 20/157/157 19/156/156 65/155/155
f 20/157/157 65/155/155 23/154/154
s 38
f 19/161/161 18/160/160 63/159/159
f 19/161/161 63/159/159 65/158/158
s 39
f 18/165/165 17/164/164 62/163/163
f 18/165/165 62/163/163 63/162/162
s 40
f 17/169/169 16/170/170 55/171/171
f 55/171/171 54/172/172 56/173/173
f 58/166/166 60/167/167 56/173/173
f 60/167/167 17/169/169 56/173/173
f 60/167/167 62/168/168 17/169/169
f 17/169/169 55/171/171 56/173/173
s 41
f 53/176/176 55/177/177 16/178/178
f 51/175/175 53/176/176 15/179/179
f 49/174/174 15/179/179 68/180/180
f 68/180/180 33/185/185 34/186/186
f 68/180/180 36/184/184 33/185/185
f 68/180/180 38/183/183 36/184/184
f 69/181/181 48/182/182 38/183/183
f 68/180/180 69/181/181 38/183/183
f 49/174/174 68/180/180 34/186/186
f 49/174/174 51/175/175 15/179/179
f 53/176/176 16/178/178 15/179/179
s 42
f 71/190/190 69/189/189 70/187/187
f 69/189/189 68/188/188 70/187/187
s 43
f 14/194/194 70/193/193 15/191/191
f 70/193/193 68/192/192 15/191/191
s 44
f 13/198/198 71/197/197 14/195/195
f 71/197/197 70/196/196 14/195/195
s 45
f 13/200/200 12/201/201 47/202/202
f 71/199/199 13/200/200 45/203/203
f 45/203/203 43/204/204 71/199/199
f 43/204/204 41/205/205 71/199/199
f 41/205/205 40/206/206 69/208/208
f 40/206/206 48/207/207 69/208/208
f 41/205/205 69/208/208 71/199/199
f 13/200/200 47/202/202 45/203/203
s 46
f 12/212/212 11/211/211 46/210/210
f 12/212/212 46/210/210 47/209/209
s 47
f 11/216/216 10/215/215 8/214/214
f 11/216/216 8/214/214 46/213/213
s 48
f 9/220/220 21/219/219 22/218/218
f 9/220/220 22/218/218 7/217/217
s 49
f 46/224/224 8/223/223 44/221/221
f 8/223/223 6/222/222 44/221/221
s 50
f 7/228/228 22/227/227 5/225/225
f 22/227/227 24/226/226 5/225/225
s 51
f 44/232/232 6/231/231 42/229/229
f 6/231/231 4/230/230 42/229/229
s 52
f 5/236/236 24/235/235 3/233/233
f 24/235/235 26/234/234 3/233/233
s 53
f 42/240/240 4/239/239 39/237/237
f 4/239/239 1/238/238 39/237/237
s 54
f 1/244/244 2/243/243 35/241/241
f 2/243/243 32/242/242 35/241/241
s 55
f 3/248/248 26/247/247 2/245/245
f 26/247/247 28/246/246 2/245/245
