mtllib 3_steps_top_straight.mtl
o object1
g object1
v 1.50000000 0.00000000 0.50000000
v 1.00000000 0.00000000 0.50000000
v 1.00000000 0.00000000 -1.50000000
v 1.50000000 0.00000000 -1.50000000
v 0.69134172 0.46769790 0.50000000
v 0.85355339 0.35796048 0.50000000
v 0.96193977 0.19372681 0.50000000
v 1.50000000 1.00000000 0.50000000
v -0.50000000 1.00000000 0.50000000
v -0.50000000 0.00000000 0.50000000
v 0.00000000 0.00000000 0.50000000
v 0.03806023 0.19372681 0.50000000
v 0.14644661 0.35796048 0.50000000
v 0.30865828 0.46769790 0.50000000
v 0.50000000 0.50623256 0.50000000
v 0.85355339 0.35796048 -1.50000000
v 0.69134172 0.46769790 -1.50000000
v 0.50000000 0.50623256 -1.50000000
v 0.30865828 0.46769790 -1.50000000
v 0.14644661 0.35796048 -1.50000000
v 0.03806023 0.19372681 -1.50000000
v 0.00000000 0.00000000 -1.50000000
v -0.50000000 0.00000000 -1.50000000
v -0.50000000 1.00000000 -1.50000000
v 1.50000000 1.00000000 -1.50000000
v 0.96193977 0.19372681 -1.50000000
vt 1.00000000 0.00000000
vt 1.00000000 1.00000000
vt 0.00000000 1.00000000
vt 0.00000000 0.00000000
vt 0.46769790 0.40432914
vt 0.35796048 0.32322330
vt 0.19372681 0.26903012
vt 0.00000000 0.25000000
vt 0.00000000 0.00000000
vt 1.00000000 0.00000000
vt 1.00000000 1.00000000
vt 0.00000000 1.00000000
vt 0.00000000 0.75000000
vt 0.19372681 0.73096988
vt 0.35796048 0.67677670
vt 0.46769790 0.59567086
vt 0.50623256 0.50000000
vt 1.00000000 0.00000000
vt 1.00000000 1.00000000
vt 0.00000000 1.00000000
vt 0.00000000 0.00000000
vt 1.00000000 0.00000000
vt 1.00000000 1.00000000
vt 0.00000000 1.00000000
vt 0.00000000 0.00000000
vt 1.00000000 0.00000000
vt 1.00000000 1.00000000
vt 0.00000000 1.00000000
vt 0.00000000 0.00000000
vt 1.00000000 0.00000000
vt 1.00000000 1.00000000
vt 0.00000000 1.00000000
vt 0.00000000 0.00000000
vt 1.00000000 0.00000000
vt 1.00000000 1.00000000
vt 0.00000000 1.00000000
vt 0.00000000 0.00000000
vt 1.00000000 0.00000000
vt 1.00000000 1.00000000
vt 0.00000000 1.00000000
vt 0.00000000 0.00000000
vt 1.00000000 0.00000000
vt 1.00000000 1.00000000
vt 0.00000000 1.00000000
vt 0.00000000 0.00000000
vt 1.00000000 0.00000000
vt 1.00000000 1.00000000
vt 0.00000000 1.00000000
vt 0.00000000 0.00000000
vt 1.00000000 0.00000000
vt 1.00000000 1.00000000
vt 0.00000000 1.00000000
vt 0.00000000 0.00000000
vt 1.00000000 0.00000000
vt 1.00000000 1.00000000
vt 0.00000000 1.00000000
vt 0.00000000 0.00000000
vt 1.00000000 0.00000000
vt 1.00000000 1.00000000
vt 0.00000000 1.00000000
vt 0.00000000 0.00000000
vt 0.46769790 0.40432914
vt 0.35796048 0.32322330
vt 0.19372681 0.26903012
vt 0.00000000 0.25000000
vt 0.00000000 0.00000000
vt 1.00000000 0.00000000
vt 1.00000000 1.00000000
vt 0.00000000 1.00000000
vt 0.00000000 0.75000000
vt 0.19372681 0.73096988
vt 0.35796048 0.67677670
vt 0.46769790 0.59567086
vt 0.50623256 0.50000000
vt 1.00000000 0.00000000
vt 1.00000000 1.00000000
vt 0.00000000 1.00000000
vt 0.00000000 0.00000000
vn 0.00000000 -1.00000000 0.00000000
vn 0.00000000 -1.00000000 0.00000000
vn 0.00000000 -1.00000000 0.00000000
vn 0.00000000 -1.00000000 0.00000000
vn 0.00000000 0.00000000 1.00000000
vn 0.00000000 0.00000000 1.00000000
vn 0.00000000 0.00000000 1.00000000
vn 0.00000000 0.00000000 1.00000000
vn 0.00000000 0.00000000 1.00000000
vn 0.00000000 0.00000000 1.00000000
vn 0.00000000 0.00000000 1.00000000
vn 0.00000000 0.00000000 1.00000000
vn 0.00000000 0.00000000 1.00000000
vn 0.00000000 0.00000000 1.00000000
vn 0.00000000 0.00000000 1.00000000
vn 0.00000000 0.00000000 1.00000000
vn 0.00000000 0.00000000 1.00000000
vn -0.56033038 -0.82826920 0.00000000
vn -0.56033038 -0.82826920 0.00000000
vn -0.56033038 -0.82826920 0.00000000
vn -0.56033038 -0.82826920 0.00000000
vn -0.19742792 -0.98031741 0.00000000
vn -0.19742792 -0.98031741 0.00000000
vn -0.19742792 -0.98031741 0.00000000
vn -0.19742792 -0.98031741 0.00000000
vn 0.19742792 -0.98031741 0.00000000
vn 0.19742792 -0.98031741 0.00000000
vn 0.19742792 -0.98031741 0.00000000
vn 0.19742792 -0.98031741 0.00000000
vn 0.56033038 -0.82826920 0.00000000
vn 0.56033038 -0.82826920 0.00000000
vn 0.56033038 -0.82826920 0.00000000
vn 0.56033038 -0.82826920 0.00000000
vn 0.83462773 -0.55081445 0.00000000
vn 0.83462773 -0.55081445 0.00000000
vn 0.83462773 -0.55081445 0.00000000
vn 0.83462773 -0.55081445 0.00000000
vn 0.98124235 -0.19277823 0.00000000
vn 0.98124235 -0.19277823 0.00000000
vn 0.98124235 -0.19277823 0.00000000
vn 0.98124235 -0.19277823 0.00000000
vn 0.00000000 -1.00000000 0.00000000
vn 0.00000000 -1.00000000 0.00000000
vn 0.00000000 -1.00000000 0.00000000
vn 0.00000000 -1.00000000 0.00000000
vn -1.00000000 0.00000000 0.00000000
vn -1.00000000 0.00000000 0.00000000
vn -1.00000000 0.00000000 0.00000000
vn -1.00000000 0.00000000 0.00000000
vn 0.00000000 1.00000000 0.00000000
vn 0.00000000 1.00000000 0.00000000
vn 0.00000000 1.00000000 0.00000000
vn 0.00000000 1.00000000 0.00000000
vn -0.83462773 -0.55081445 0.00000000
vn -0.83462773 -0.55081445 0.00000000
vn -0.83462773 -0.55081445 0.00000000
vn -0.83462773 -0.55081445 0.00000000
vn 1.00000000 0.00000000 0.00000000
vn 1.00000000 0.00000000 0.00000000
vn 1.00000000 0.00000000 0.00000000
vn 1.00000000 0.00000000 0.00000000
vn 0.00000000 0.00000000 -1.00000000
vn 0.00000000 0.00000000 -1.00000000
vn 0.00000000 0.00000000 -1.00000000
vn 0.00000000 0.00000000 -1.00000000
vn 0.00000000 0.00000000 -1.00000000
vn 0.00000000 0.00000000 -1.00000000
vn 0.00000000 0.00000000 -1.00000000
vn 0.00000000 0.00000000 -1.00000000
vn 0.00000000 0.00000000 -1.00000000
vn 0.00000000 0.00000000 -1.00000000
vn 0.00000000 0.00000000 -1.00000000
vn 0.00000000 0.00000000 -1.00000000
vn 0.00000000 0.00000000 -1.00000000
vn -0.98124235 -0.19277823 0.00000000
vn -0.98124235 -0.19277823 0.00000000
vn -0.98124235 -0.19277823 0.00000000
vn -0.98124235 -0.19277823 0.00000000
s 1
usemtl Sandstone_Trim
f 1/1/1 2/2/2 4/4/4
f 2/2/2 3/3/3 4/4/4
s 2
f 7/7/7 2/8/8 1/9/9
f 6/6/6 7/7/7 8/10/10
f 5/5/5 8/10/10 9/11/11
f 9/11/11 14/16/16 15/17/17
f 9/11/11 13/15/15 14/16/16
f 9/11/11 12/14/14 13/15/15
f 10/12/12 11/13/13 12/14/14
f 9/11/11 10/12/12 12/14/14
f 5/5/5 9/11/11 15/17/17
f 5/5/5 6/6/6 8/10/10
f 7/7/7 1/9/9 8/10/10
s 3
f 17/21/21 16/20/20 6/19/19
f 17/21/21 6/19/19 5/18/18
s 4
f 18/25/25 17/24/24 5/23/23
f 18/25/25 5/23/23 15/22/22
s 5
f 19/29/29 18/28/28 15/27/27
f 19/29/29 15/27/27 14/26/26
s 6
f 20/33/33 19/32/32 14/31/31
f 20/33/33 14/31/31 13/30/30
s 7
f 21/37/37 20/36/36 13/35/35
f 21/37/37 13/35/35 12/34/34
s 8
f 22/41/41 21/40/40 12/39/39
f 22/41/41 12/39/39 11/38/38
s 9
f 11/42/42 10/43/43 22/45/45
f 10/43/43 23/44/44 22/45/45
s 10
f 10/46/46 9/47/47 23/49/49
f 9/47/47 24/48/48 23/49/49
s 11
f 25/53/53 24/52/52 8/50/50
f 24/52/52 9/51/51 8/50/50
s 12
f 16/57/57 26/56/56 7/55/55
f 16/57/57 7/55/55 6/54/54
s 13
f 4/61/61 25/60/60 1/58/58
f 25/60/60 8/59/59 1/58/58
s 14
f 4/66/66 3/65/65 26/64/64
f 25/67/67 26/64/64 16/63/63
f 24/68/68 25/67/67 17/62/62
f 18/74/74 24/68/68 17/62/62
f 18/74/74 19/73/73 24/68/68
f 19/73/73 20/72/72 24/68/68
f 20/72/72 21/71/71 24/68/68
f 21/71/71 22/70/70 23/69/69
f 21/71/71 23/69/69 24/68/68
f 25/67/67 16/63/63 17/62/62
f 25/67/67 4/66/66 26/64/64
s 15
f 2/75/75 7/76/76 3/78/78
f 7/76/76 26/77/77 3/78/78
