mtllib 4_pillar_corner_cap.mtl
o object1
g object1
v 0.50000000 0.15000000 -0.78284271
v 0.78284271 0.15000000 -0.50000000
v 0.85355339 0.10000000 -0.50000000
v 0.50000000 0.10000000 -0.85355339
v 0.21715729 0.15000000 -0.50000000
v 0.50000000 0.15000000 -0.21715729
v 0.14644661 0.10000000 -0.50000000
v 0.50000000 0.10000000 -0.14644661
v 0.50000000 0.00000000 -0.14644661
v 0.14644661 0.00000000 -0.50000000
v 0.85355339 0.00000000 -0.50000000
v 0.50000000 0.00000000 -0.85355339
vt 0.90000000 1.00000000
vt 0.10000000 1.00000000
vt 0.00000000 0.00000000
vt 1.00000000 0.00000000
vt 1.00000000 0.00000000
vt 1.00000000 1.00000000
vt 0.00000000 1.00000000
vt 0.00000000 0.00000000
vt 0.90000000 1.00000000
vt 0.10000000 1.00000000
vt 0.00000000 0.00000000
vt 1.00000000 0.00000000
vt 0.00000000 1.00000000
vt 0.00000000 0.00000000
vt 1.00000000 0.00000000
vt 1.00000000 1.00000000
vt 0.00000000 1.00000000
vt 0.00000000 0.00000000
vt 1.00000000 0.00000000
vt 1.00000000 1.00000000
vt 0.00000000 1.00000000
vt 0.00000000 0.00000000
vt 1.00000000 0.00000000
vt 1.00000000 1.00000000
vt 0.00000000 1.00000000
vt 0.00000000 0.00000000
vt 1.00000000 0.00000000
vt 1.00000000 1.00000000
vt 0.90000000 1.00000000
vt 0.10000000 1.00000000
vt 0.00000000 0.00000000
vt 1.00000000 0.00000000
vt 0.00000000 1.00000000
vt 0.00000000 0.00000000
vt 1.00000000 0.00000000
vt 1.00000000 1.00000000
vt 0.90000000 1.00000000
vt 0.10000000 1.00000000
vt 0.00000000 0.00000000
vt 1.00000000 0.00000000
vn 0.50000000 0.70710678 -0.50000000
vn 0.50000000 0.70710678 -0.50000000
vn 0.50000000 0.70710678 -0.50000000
vn 0.50000000 0.70710678 -0.50000000
vn 0.00000000 1.00000000 0.00000000
vn 0.00000000 1.00000000 0.00000000
vn 0.00000000 1.00000000 0.00000000
vn 0.00000000 1.00000000 0.00000000
vn -0.50000000 0.70710678 0.50000000
vn -0.50000000 0.70710678 0.50000000
vn -0.50000000 0.70710678 0.50000000
vn -0.50000000 0.70710678 0.50000000
vn -0.70710678 0.00000000 0.70710678
vn -0.70710678 0.00000000 0.70710678
vn -0.70710678 0.00000000 0.70710678
vn -0.70710678 0.00000000 0.70710678
vn 0.70710678 0.00000000 0.70710678
vn 0.70710678 0.00000000 0.70710678
vn 0.70710678 0.00000000 0.70710678
vn 0.70710678 0.00000000 0.70710678
vn 0.00000000 -1.00000000 0.00000000
vn 0.00000000 -1.00000000 0.00000000
vn 0.00000000 -1.00000000 0.00000000
vn 0.00000000 -1.00000000 0.00000000
vn -0.70710678 0.00000000 -0.70710678
vn -0.70710678 0.00000000 -0.70710678
vn -0.70710678 0.00000000 -0.70710678
vn -0.70710678 0.00000000 -0.70710678
vn -0.50000000 0.70710678 -0.50000000
vn -0.50000000 0.70710678 -0.50000000
vn -0.50000000 0.70710678 -0.50000000
vn -0.50000000 0.70710678 -0.50000000
vn 0.70710678 0.00000000 -0.70710678
vn 0.70710678 0.00000000 -0.70710678
vn 0.70710678 0.00000000 -0.70710678
vn 0.70710678 0.00000000 -0.70710678
vn 0.50000000 0.70710678 0.50000000
vn 0.50000000 0.70710678 0.50000000
vn 0.50000000 0.70710678 0.50000000
vn 0.50000000 0.70710678 0.50000000
s 1
usemtl Sandstone_5
f 1/1/1 2/2/2 3/3/3
f 1/1/1 3/3/3 4/4/4
s 2
f 2/5/5 1/6/6 6/8/8
f 1/6/6 5/7/7 6/8/8
s 3
f 6/9/9 5/10/10 8/12/12
f 5/10/10 7/11/11 8/12/12
s 4
f 8/16/16 7/15/15 9/13/13
f 7/15/15 10/14/14 9/13/13
s 5
f 3/20/20 8/19/19 11/17/17
f 8/19/19 9/18/18 11/17/17
s 6
f 12/24/24 11/23/23 10/21/21
f 11/23/23 9/22/22 10/21/21
s 7
f 7/28/28 4/27/27 10/25/25
f 4/27/27 12/26/26 10/25/25
s 8
f 5/29/29 1/30/30 7/32/32
f 1/30/30 4/31/31 7/32/32
s 9
f 4/36/36 3/35/35 12/33/33
f 3/35/35 11/34/34 12/33/33
s 10
f 2/37/37 6/38/38 8/39/39
f 2/37/37 8/39/39 3/40/40
