mtllib 4_wall_corner_cap.mtl
o object1
g object1
v -0.00294373 -0.00000000 -0.70000000
v -0.00294373 0.05000001 -0.70000000
v -0.50000000 0.05000001 -0.70000000
v -0.50000000 -0.00000000 -0.70000000
v -0.50000000 -0.00000000 -0.30000000
v -0.50000000 0.05000001 -0.30000000
v -0.50000000 0.10000001 -0.35000000
v -0.50000000 0.10000001 -0.65000000
v -0.16862915 -0.00000000 -0.30000000
v -0.16862915 0.05000001 -0.30000000
v 0.30000000 -0.00000000 0.16862915
v 0.30000000 0.05000001 0.16862915
v 0.30000000 -0.00000000 0.50000000
v 0.30000000 0.05000001 0.50000000
v 0.65000000 0.10000001 0.50000000
v 0.35000000 0.10000001 0.50000000
v 0.70000000 -0.00000000 0.50000000
v 0.70000000 0.05000001 0.50000000
v 0.70000000 0.05000001 0.00294373
v 0.65000000 0.10000001 0.02365440
v -0.02365440 0.10000001 -0.65000000
v 0.70000000 -0.00000000 0.00294373
v 0.35000000 0.10000001 0.14791847
v -0.14791847 0.10000001 -0.35000000
vt 0.00000000 0.00000000
vt 1.00000000 0.00000000
vt 1.00000000 1.00000000
vt 0.00000000 1.00000000
vt 0.00000000 0.00000000
vt 0.50000007 0.00000000
vt 1.00000000 0.12500000
vt 1.00000000 0.87500000
vt 0.50000007 1.00000000
vt 0.00000000 1.00000000
vt 0.00000000 0.00000000
vt 1.00000000 0.00000000
vt 1.00000000 1.00000000
vt 0.00000000 1.00000000
vt 0.00000000 0.00000000
vt 1.00000000 0.00000000
vt 1.00000000 1.00000000
vt 0.00000000 1.00000000
vt 0.00000000 0.00000000
vt 1.00000000 0.00000000
vt 1.00000000 1.00000000
vt 0.00000000 1.00000000
vt 1.00000000 0.12500000
vt 1.00000000 0.87500000
vt 0.50000007 1.00000000
vt 0.00000000 1.00000000
vt 0.00000000 0.00000000
vt 0.50000007 0.00000000
vt 0.00000000 1.00000000
vt 0.00000000 0.00000000
vt 1.00000000 0.00000000
vt 0.95833333 1.00000000
vt 0.02083333 1.00000000
vt 0.00000000 0.00000000
vt 1.00000000 0.00000000
vt 0.97916667 1.00000000
vt 0.00000000 0.00000000
vt 1.00000000 0.00000000
vt 1.00000000 1.00000000
vt 0.00000000 1.00000000
vt 0.00000000 1.00000000
vt 0.00000000 0.00000000
vt 1.00000000 0.00000000
vt 0.94117647 1.00000000
vt 0.02941176 1.00000000
vt 0.00000000 0.00000000
vt 1.00000000 0.00000000
vt 0.97058824 1.00000000
vt 0.00000000 1.00000000
vt 0.00000000 0.73913043
vt 0.30615785 0.73913043
vt 0.73913043 0.30615785
vt 0.73913043 0.00000000
vt 1.00000000 0.00000000
vt 1.00000000 0.41421356
vt 0.41421356 1.00000000
vt 0.05882353 1.00000000
vt 0.00000000 0.00000000
vt 1.00000000 0.00000000
vt 1.00000000 1.00000000
vt 1.00000000 0.00000000
vt 1.00000000 0.41421356
vt 0.41421356 1.00000000
vt 0.00000000 1.00000000
vt 0.00000000 0.66666667
vt 0.27614237 0.66666667
vt 0.66666667 0.27614237
vt 0.66666667 0.00000000
vt 0.00000000 0.00000000
vt 1.00000000 0.00000000
vt 1.00000000 1.00000000
vt 0.00000000 1.00000000
vt 0.04166667 1.00000000
vt 0.00000000 0.00000000
vt 1.00000000 0.00000000
vt 1.00000000 1.00000000
vn 0.00000000 0.00000000 -1.00000000
vn 0.00000000 0.00000000 -1.00000000
vn 0.00000000 0.00000000 -1.00000000
vn 0.00000000 0.00000000 -1.00000000
vn -1.00000000 0.00000000 0.00000000
vn -1.00000000 0.00000000 0.00000000
vn -1.00000000 0.00000000 0.00000000
vn -1.00000000 0.00000000 0.00000000
vn -1.00000000 0.00000000 0.00000000
vn -1.00000000 0.00000000 0.00000000
vn -0.00000000 0.00000000 1.00000000
vn -0.00000000 0.00000000 1.00000000
vn -0.00000000 0.00000000 1.00000000
vn -0.00000000 0.00000000 1.00000000
vn -0.70710678 -0.00000000 0.70710678
vn -0.70710678 -0.00000000 0.70710678
vn -0.70710678 0.00000000 0.70710678
vn -0.70710678 0.00000000 0.70710678
vn -1.00000000 0.00000000 -0.00000000
vn -1.00000000 0.00000000 -0.00000000
vn -1.00000000 0.00000000 -0.00000000
vn -1.00000000 0.00000000 -0.00000000
vn 0.00000000 0.00000000 1.00000000
vn 0.00000000 0.00000000 1.00000000
vn 0.00000000 0.00000000 1.00000000
vn 0.00000000 0.00000000 1.00000000
vn 0.00000000 0.00000000 1.00000000
vn 0.00000000 0.00000000 1.00000000
vn 0.70710678 0.70710678 0.00000000
vn 0.70710678 0.70710678 0.00000000
vn 0.70710678 0.70710678 0.00000000
vn 0.70710678 0.70710678 0.00000000
vn 0.50000000 0.70710678 -0.50000000
vn 0.50000000 0.70710678 -0.50000000
vn 0.50000000 0.70710678 -0.50000000
vn 0.50000000 0.70710678 -0.50000000
vn 1.00000000 -0.00000000 0.00000000
vn 1.00000000 -0.00000000 0.00000000
vn 1.00000000 -0.00000000 0.00000000
vn 1.00000000 -0.00000000 0.00000000
vn -0.70710678 0.70710678 -0.00000000
vn -0.70710678 0.70710678 -0.00000000
vn -0.70710678 0.70710678 -0.00000000
vn -0.70710678 0.70710678 -0.00000000
vn -0.50000000 0.70710678 0.50000000
vn -0.50000000 0.70710678 0.50000000
vn -0.50000000 0.70710678 0.50000000
vn -0.50000000 0.70710678 0.50000000
vn 0.00000000 1.00000000 0.00000000
vn 0.00000000 1.00000000 0.00000000
vn 0.00000000 1.00000000 0.00000000
vn 0.00000000 1.00000000 0.00000000
vn 0.00000000 1.00000000 0.00000000
vn 0.00000000 1.00000000 0.00000000
vn 0.00000000 1.00000000 0.00000000
vn 0.00000000 1.00000000 0.00000000
vn -0.00000000 0.70710678 0.70710678
vn -0.00000000 0.70710678 0.70710678
vn -0.00000000 0.70710678 0.70710678
vn -0.00000000 0.70710678 0.70710678
vn 0.00000000 -1.00000000 0.00000000
vn 0.00000000 -1.00000000 0.00000000
vn 0.00000000 -1.00000000 0.00000000
vn 0.00000000 -1.00000000 0.00000000
vn 0.00000000 -1.00000000 0.00000000
vn 0.00000000 -1.00000000 0.00000000
vn 0.00000000 -1.00000000 0.00000000
vn 0.00000000 -1.00000000 0.00000000
vn 0.70710678 0.00000000 -0.70710678
vn 0.70710678 0.00000000 -0.70710678
vn 0.70710678 0.00000000 -0.70710678
vn 0.70710678 0.00000000 -0.70710678
vn -0.00000000 0.70710678 -0.70710678
vn -0.00000000 0.70710678 -0.70710678
vn -0.00000000 0.70710678 -0.70710678
vn -0.00000000 0.70710678 -0.70710678
s 1
usemtl Sandstone_5
f 4/4/4 3/3/3 1/1/1
f 3/3/3 2/2/2 1/1/1
s 2
f 8/8/8 3/9/9 4/10/10
f 5/5/5 7/7/7 4/10/10
f 5/5/5 6/6/6 7/7/7
f 7/7/7 8/8/8 4/10/10
s 3
f 9/11/11 10/12/12 5/14/14
f 10/12/12 6/13/13 5/14/14
s 4
f 11/15/15 12/16/16 9/18/18
f 12/16/16 10/17/17 9/18/18
s 5
f 13/19/19 14/20/20 11/22/22
f 14/20/20 12/21/21 11/22/22
s 6
f 16/24/24 14/25/25 13/26/26
f 16/24/24 13/26/26 17/27/27
f 17/27/27 18/28/28 15/23/23
f 17/27/27 15/23/23 16/24/24
s 7
f 15/29/29 18/30/30 20/32/32
f 18/30/30 19/31/31 20/32/32
s 8
f 20/33/33 19/34/34 2/35/35
f 20/33/33 2/35/35 21/36/36
s 9
f 22/40/40 19/39/39 17/37/37
f 19/39/39 18/38/38 17/37/37
s 10
f 14/41/41 16/42/42 12/44/44
f 16/42/42 23/43/43 12/44/44
s 11
f 12/45/45 23/46/46 24/47/47
f 12/45/45 24/47/47 10/48/48
s 12
f 23/51/51 16/50/50 15/49/49
f 24/52/52 23/51/51 20/56/56
f 20/56/56 21/55/55 24/52/52
f 21/55/55 8/54/54 24/52/52
f 8/54/54 7/53/53 24/52/52
f 23/51/51 15/49/49 20/56/56
s 13
f 10/57/57 24/58/58 7/59/59
f 10/57/57 7/59/59 6/60/60
s 14
f 17/64/64 13/65/65 11/66/66
f 22/63/63 11/66/66 9/67/67
f 9/67/67 4/61/61 1/62/62
f 9/67/67 5/68/68 4/61/61
f 1/62/62 22/63/63 9/67/67
f 22/63/63 17/64/64 11/66/66
s 15
f 1/72/72 2/71/71 19/70/70
f 1/72/72 19/70/70 22/69/69
s 16
f 21/73/73 2/74/74 3/75/75
f 21/73/73 3/75/75 8/76/76
