mtllib rock3.mtl
o object1
g object1
v 0.28750000 0.00000000 -0.26666667
v 0.13750000 0.00000000 -0.40000000
v -0.08750000 0.00000000 -0.40000000
v -0.27500000 0.00000000 -0.26666667
v -0.35000000 0.00000000 0.04444444
v -0.20000000 0.00000000 0.26666667
v 0.13750000 0.00000000 0.40000000
v 0.36250000 0.00000000 0.26666667
v 0.40000000 0.00000000 0.04444444
v 0.28750000 0.15000000 -0.26666667
v 0.13750000 0.15000000 -0.40000000
v -0.08750000 0.15000000 -0.40000000
v -0.27500000 0.15000000 -0.26666667
v -0.35000000 0.15000000 0.04444444
v -0.20000000 0.15000000 0.26666667
v 0.13750000 0.15000000 0.40000000
v 0.36250000 0.15000000 0.26666667
v 0.40000000 0.15000000 0.04444444
v 0.13223895 0.24142136 0.31226239
v -0.15910809 0.24142136 0.19716232
v -0.27434879 0.24142136 0.02643536
v 0.11464466 0.24142136 -0.31873657
v 0.23169775 0.24142136 -0.21468938
v -0.06850831 0.24142136 -0.31873657
v -0.21650930 0.24142136 -0.21349143
v 0.30184215 0.24142136 0.21175678
v 0.32858902 0.24142136 0.05325683
v 0.21812207 0.30000000 0.06688887
v 0.14537625 0.30000000 -0.13428477
v 0.07928932 0.30000000 -0.19302870
v -0.03912973 0.30000000 -0.19302870
v -0.12602896 0.30000000 -0.13123369
v -0.15732256 0.30000000 -0.00142323
v -0.09585164 0.30000000 0.08964479
v 0.12410053 0.30000000 0.17653948
v 0.20800942 0.30000000 0.12681569
vt 0.83333333 0.15000000
vt 1.00000000 0.35000000
vt 1.00000000 0.65000000
vt 0.83333333 0.90000000
vt 0.44444444 1.00000000
vt 0.16666667 0.80000000
vt 0.00000000 0.35000000
vt 0.16666667 0.05000000
vt 0.44444444 0.00000000
vt 1.00000000 0.00000000
vt 1.00000000 1.00000000
vt 0.00000000 1.00000000
vt 0.00000000 0.00000000
vt 1.00000000 0.00000000
vt 1.00000000 1.00000000
vt 0.00000000 1.00000000
vt 0.00000000 0.00000000
vt 1.00000000 0.00000000
vt 1.00000000 1.00000000
vt 0.00000000 1.00000000
vt 0.00000000 0.00000000
vt 1.00000000 0.00000000
vt 1.00000000 1.00000000
vt 0.00000000 1.00000000
vt 0.00000000 0.00000000
vt 1.00000000 0.00000000
vt 1.00000000 1.00000000
vt 0.00000000 1.00000000
vt 0.00000000 0.00000000
vt 1.00000000 0.00000000
vt 1.00000000 1.00000000
vt 0.00000000 1.00000000
vt 0.00000000 0.00000000
vt 1.00000000 0.00000000
vt 1.00000000 1.00000000
vt 0.00000000 1.00000000
vt 0.00000000 0.00000000
vt 1.00000000 0.00000000
vt 1.00000000 1.00000000
vt 0.00000000 1.00000000
vt 0.00000000 0.00000000
vt 1.00000000 0.00000000
vt 1.00000000 1.00000000
vt 0.00000000 1.00000000
vt 0.00000000 0.00000000
vt 0.92016732 1.00000000
vt 0.05691684 1.00000000
vt 0.00000000 0.00000000
vt 1.00000000 0.00000000
vt 0.91567232 1.00000000
vt 0.14740098 1.00000000
vt 0.00000000 0.00000000
vt 1.00000000 0.00000000
vt 0.87810486 1.00000000
vt 0.09775090 1.00000000
vt 0.00000000 0.00000000
vt 1.00000000 0.00000000
vt 0.91559250 1.00000000
vt 0.10157928 1.00000000
vt 0.00000000 0.00000000
vt 1.00000000 0.00000000
vt 0.87619318 1.00000000
vt 0.08685460 1.00000000
vt 0.00000000 0.00000000
vt 1.00000000 0.00000000
vt 0.87035542 1.00000000
vt 0.09916219 1.00000000
vt 0.00000000 0.00000000
vt 1.00000000 0.00000000
vt 0.86669247 1.00000000
vt 0.11290046 1.00000000
vt 0.00000000 0.00000000
vt 1.00000000 0.00000000
vt 0.88862745 1.00000000
vt 0.17537766 1.00000000
vt 0.00000000 0.00000000
vt 1.00000000 0.00000000
vt 0.93582339 1.00000000
vt 0.07456772 1.00000000
vt 0.00000000 0.00000000
vt 1.00000000 0.00000000
vt 0.29669926 0.00000000
vt 0.84104710 0.19375913
vt 1.00000000 0.36978223
vt 1.00000000 0.68519238
vt 0.83279130 0.91664925
vt 0.48154229 1.00000000
vt 0.23512492 0.83627170
vt 0.00000000 0.25042718
vt 0.13454564 0.02693513
vt 0.00000000 0.00000000
vt 1.00000000 0.00000000
vt 0.85694230 1.00000000
vt 0.10199322 1.00000000
vt 0.00000000 0.00000000
vt 1.00000000 0.00000000
vt 0.83020581 1.00000000
vt 0.29679260 1.00000000
vt 0.00000000 0.00000000
vt 1.00000000 0.00000000
vt 0.75836374 1.00000000
vt 0.19377443 1.00000000
vt 0.00000000 0.00000000
vt 1.00000000 0.00000000
vt 0.83959536 1.00000000
vt 0.19303721 1.00000000
vt 0.00000000 0.00000000
vt 1.00000000 0.00000000
vt 0.75736772 1.00000000
vt 0.17021461 1.00000000
vt 0.00000000 0.00000000
vt 1.00000000 0.00000000
vt 0.73994903 1.00000000
vt 0.19890707 1.00000000
vt 0.00000000 0.00000000
vt 1.00000000 0.00000000
vt 0.72642873 1.00000000
vt 0.23169226 1.00000000
vt 0.00000000 0.00000000
vt 1.00000000 0.00000000
vt 0.75845177 1.00000000
vt 0.38036448 1.00000000
vt 0.00000000 0.00000000
vt 1.00000000 0.00000000
vt 0.88473114 1.00000000
vt 0.13393254 1.00000000
vn 0.00000000 -1.00000000 0.00000000
vn 0.00000000 -1.00000000 0.00000000
vn 0.00000000 -1.00000000 0.00000000
vn 0.00000000 -1.00000000 0.00000000
vn 0.00000000 -1.00000000 0.00000000
vn 0.00000000 -1.00000000 0.00000000
vn 0.00000000 -1.00000000 0.00000000
vn 0.00000000 -1.00000000 0.00000000
vn 0.00000000 -1.00000000 0.00000000
vn 0.66436384 0.00000000 -0.74740932
vn 0.66436384 0.00000000 -0.74740932
vn 0.66436384 0.00000000 -0.74740932
vn 0.66436384 0.00000000 -0.74740932
vn -0.00000000 0.00000000 -1.00000000
vn -0.00000000 0.00000000 -1.00000000
vn -0.00000000 0.00000000 -1.00000000
vn -0.00000000 0.00000000 -1.00000000
vn -0.57952379 0.00000000 -0.81495532
vn -0.57952379 0.00000000 -0.81495532
vn -0.57952379 0.00000000 -0.81495532
vn -0.57952379 0.00000000 -0.81495532
vn -0.97215044 0.00000000 -0.23435769
vn -0.97215044 0.00000000 -0.23435769
vn -0.97215044 0.00000000 -0.23435769
vn -0.97215044 0.00000000 -0.23435769
vn -0.82884867 0.00000000 0.55947286
vn -0.82884867 0.00000000 0.55947286
vn -0.82884867 0.00000000 0.55947286
vn -0.82884867 0.00000000 0.55947286
vn -0.36742795 0.00000000 0.93005199
vn -0.36742795 0.00000000 0.93005199
vn -0.36742795 0.00000000 0.93005199
vn -0.36742795 0.00000000 0.93005199
vn 0.50980239 0.00000000 0.86029153
vn 0.50980239 0.00000000 0.86029153
vn 0.50980239 0.00000000 0.86029153
vn 0.50980239 0.00000000 0.86029153
vn 0.98605877 0.00000000 0.16639742
vn 0.98605877 0.00000000 0.16639742
vn 0.98605877 0.00000000 0.16639742
vn 0.98605877 0.00000000 0.16639742
vn 0.94040479 0.00000000 -0.34005709
vn 0.94040479 0.00000000 -0.34005709
vn 0.94040479 0.00000000 -0.34005709
vn 0.94040479 0.00000000 -0.34005709
vn -0.27700697 0.65697970 0.70117388
vn -0.27700697 0.65697970 0.70117388
vn -0.27700697 0.65697970 0.70117388
vn -0.27700697 0.65697970 0.70117388
vn -0.64845921 0.62282473 0.43770996
vn -0.64845921 0.62282473 0.43770996
vn -0.64845921 0.62282473 0.43770996
vn -0.64845921 0.62282473 0.43770996
vn 0.51110125 0.63887656 -0.57498891
vn 0.51110125 0.63887656 -0.57498891
vn 0.51110125 0.63887656 -0.57498891
vn 0.51110125 0.63887656 -0.57498891
vn -0.00000000 0.66436384 -0.74740932
vn -0.00000000 0.66436384 -0.74740932
vn -0.00000000 0.66436384 -0.74740932
vn -0.00000000 0.66436384 -0.74740932
vn -0.44269726 0.64533660 -0.62254302
vn -0.44269726 0.64533660 -0.62254302
vn -0.44269726 0.64533660 -0.62254302
vn -0.44269726 0.64533660 -0.62254302
vn -0.77462755 0.60421861 -0.18674057
vn -0.77462755 0.60421861 -0.18674057
vn -0.77462755 0.60421861 -0.18674057
vn -0.77462755 0.60421861 -0.18674057
vn 0.38748758 0.64983643 0.65388530
vn 0.38748758 0.64983643 0.65388530
vn 0.38748758 0.64983643 0.65388530
vn 0.38748758 0.64983643 0.65388530
vn 0.78726088 0.60213879 0.13285027
vn 0.78726088 0.60213879 0.13285027
vn 0.78726088 0.60213879 0.13285027
vn 0.78726088 0.60213879 0.13285027
vn 0.74606591 0.60877165 -0.26978276
vn 0.74606591 0.60877165 -0.26978276
vn 0.74606591 0.60877165 -0.26978276
vn 0.74606591 0.60877165 -0.26978276
vn 0.00000000 1.00000000 0.00000000
vn 0.00000000 1.00000000 0.00000000
vn 0.00000000 1.00000000 0.00000000
vn 0.00000000 1.00000000 0.00000000
vn 0.00000000 1.00000000 0.00000000
vn 0.00000000 1.00000000 0.00000000
vn 0.00000000 1.00000000 0.00000000
vn 0.00000000 1.00000000 0.00000000
vn 0.00000000 1.00000000 0.00000000
vn -0.15773552 0.90316363 0.39926803
vn -0.15773552 0.90316363 0.39926803
vn -0.15773552 0.90316363 0.39926803
vn -0.15773552 0.90316363 0.39926803
vn -0.38257358 0.88710260 0.25823717
vn -0.38257358 0.88710260 0.25823717
vn -0.38257358 0.88710260 0.25823717
vn -0.38257358 0.88710260 0.25823717
vn 0.29653176 0.89486375 -0.33359823
vn 0.29653176 0.89486375 -0.33359823
vn 0.29653176 0.89486375 -0.33359823
vn 0.29653176 0.89486375 -0.33359823
vn 0.00000000 0.90641795 -0.42238193
vn 0.00000000 0.90641795 -0.42238193
vn 0.00000000 0.90641795 -0.42238193
vn 0.00000000 0.90641795 -0.42238193
vn -0.25513071 0.89787916 -0.35877756
vn -0.25513071 0.89787916 -0.35877756
vn -0.25513071 0.89787916 -0.35877756
vn -0.25513071 0.89787916 -0.35877756
vn -0.46603780 0.87760276 -0.11234840
vn -0.46603780 0.87760276 -0.11234840
vn -0.46603780 0.87760276 -0.11234840
vn -0.46603780 0.87760276 -0.11234840
vn 0.22227652 0.89994412 0.37509163
vn 0.22227652 0.89994412 0.37509163
vn 0.22227652 0.89994412 0.37509163
vn 0.22227652 0.89994412 0.37509163
vn 0.47468023 0.87650573 0.08010229
vn 0.47468023 0.87650573 0.08010229
vn 0.47468023 0.87650573 0.08010229
vn 0.47468023 0.87650573 0.08010229
vn 0.44670368 0.87997925 -0.16153124
vn 0.44670368 0.87997925 -0.16153124
vn 0.44670368 0.87997925 -0.16153124
vn 0.44670368 0.87997925 -0.16153124
s 1
usemtl Rock
f 3/3/3 2/2/2 1/1/1
f 9/9/9 5/5/5 3/3/3
f 7/7/7 6/6/6 5/5/5
f 9/9/9 7/7/7 5/5/5
f 9/9/9 8/8/8 7/7/7
f 3/3/3 1/1/1 9/9/9
f 5/5/5 4/4/4 3/3/3
s 2
f 1/13/13 2/12/12 10/10/10
f 2/12/12 11/11/11 10/10/10
s 3
f 2/17/17 3/16/16 11/14/14
f 3/16/16 12/15/15 11/14/14
s 4
f 3/21/21 4/20/20 12/18/18
f 4/20/20 13/19/19 12/18/18
s 5
f 4/25/25 5/24/24 13/22/22
f 5/24/24 14/23/23 13/22/22
s 6
f 5/29/29 6/28/28 15/27/27
f 5/29/29 15/27/27 14/26/26
s 7
f 6/33/33 7/32/32 15/30/30
f 7/32/32 16/31/31 15/30/30
s 8
f 7/37/37 8/36/36 16/34/34
f 8/36/36 17/35/35 16/34/34
s 9
f 8/41/41 9/40/40 17/38/38
f 9/40/40 18/39/39 17/38/38
s 10
f 9/45/45 1/44/44 18/42/42
f 1/44/44 10/43/43 18/42/42
s 11
f 19/46/46 20/47/47 15/48/48
f 19/46/46 15/48/48 16/49/49
s 12
f 20/50/50 21/51/51 14/52/52
f 20/50/50 14/52/52 15/53/53
s 13
f 22/54/54 23/55/55 10/56/56
f 22/54/54 10/56/56 11/57/57
s 14
f 24/58/58 22/59/59 12/61/61
f 22/59/59 11/60/60 12/61/61
s 15
f 25/62/62 24/63/63 13/65/65
f 24/63/63 12/64/64 13/65/65
s 16
f 21/66/66 25/67/67 14/69/69
f 25/67/67 13/68/68 14/69/69
s 17
f 26/70/70 19/71/71 17/73/73
f 19/71/71 16/72/72 17/73/73
s 18
f 27/74/74 26/75/75 18/77/77
f 26/75/75 17/76/76 18/77/77
s 19
f 23/78/78 27/79/79 18/80/80
f 23/78/78 18/80/80 10/81/81
s 20
f 35/89/89 36/90/90 28/82/82
f 29/83/83 34/88/88 35/89/89
f 31/85/85 33/87/87 34/88/88
f 31/85/85 32/86/86 33/87/87
f 29/83/83 31/85/85 34/88/88
f 29/83/83 30/84/84 31/85/85
f 35/89/89 28/82/82 29/83/83
s 21
f 20/91/91 19/92/92 35/93/93
f 20/91/91 35/93/93 34/94/94
s 22
f 21/95/95 20/96/96 34/97/97
f 21/95/95 34/97/97 33/98/98
s 23
f 23/99/99 22/100/100 30/101/101
f 23/99/99 30/101/101 29/102/102
s 24
f 22/103/103 24/104/104 30/106/106
f 24/104/104 31/105/105 30/106/106
s 25
f 24/107/107 25/108/108 31/110/110
f 25/108/108 32/109/109 31/110/110
s 26
f 25/111/111 21/112/112 32/114/114
f 21/112/112 33/113/113 32/114/114
s 27
f 19/115/115 26/116/116 35/118/118
f 26/116/116 36/117/117 35/118/118
s 28
f 26/119/119 27/120/120 36/122/122
f 27/120/120 28/121/121 36/122/122
s 29
f 27/123/123 23/124/124 29/125/125
f 27/123/123 29/125/125 28/126/126
