mtllib rock4.mtl
o object1
g object1
v 0.75000000 0.58786797 0.37500000
v 0.75000000 0.58786797 -0.22500000
v 0.66213203 0.80000000 -0.19684139
v 0.66213203 0.80000000 0.33860390
v -0.37500000 0.58786797 -0.60000000
v -0.75000000 0.58786797 0.15000000
v -0.64570847 0.80000000 0.13789569
v -0.31562742 0.80000000 -0.52226642
v -0.37500000 0.58786797 0.60000000
v -0.32735394 0.80000000 0.51992112
v 0.37500000 0.58786797 0.75000000
v 0.34612002 0.80000000 0.65461591
v 0.37500000 0.58786797 -0.75000000
v 0.33652146 0.80000000 -0.65269620
v 0.53786797 0.92426407 -0.15701910
v 0.53786797 0.92426407 0.28713203
v 0.28210458 0.92426407 -0.51508784
v -0.23166190 0.92426407 -0.41233454
v -0.49821798 0.92426407 0.12077760
v -0.25997225 0.92426407 0.40667247
v 0.30527756 0.92426407 0.51972244
v 0.23555513 1.01213203 0.28944487
v 0.32573593 1.01213203 0.19926407
v 0.32573593 1.01213203 -0.08903819
v 0.18920916 1.01213203 -0.28017568
v -0.08832381 1.01213203 -0.22466909
v -0.24643595 1.01213203 0.09155520
v -0.14494449 1.01213203 0.21334495
v 0.75000000 0.11213203 -0.22500000
v 0.75000000 0.11213203 0.37500000
v 0.37500000 0.11213203 0.75000000
v -0.37500000 0.11213203 0.60000000
v -0.75000000 0.11213203 0.15000000
v -0.37500000 0.11213203 -0.60000000
v 0.37500000 0.11213203 -0.75000000
v 0.45000000 -0.18786797 -0.12886048
v 0.24362603 -0.18786797 -0.41778404
v -0.17228932 -0.18786797 -0.33460097
v -0.39392645 -0.18786797 0.10867328
v -0.21232619 -0.18786797 0.32659359
v 0.27639759 -0.18786797 0.42433835
v 0.45000000 -0.18786797 0.25073593
vt 0.00000000 0.00000000
vt 1.00000000 0.00000000
vt 0.95306898 1.00000000
vt 0.06066017 1.00000000
vt 0.00000000 0.00000000
vt 1.00000000 0.00000000
vt 0.93146658 1.00000000
vt 0.05125044 1.00000000
vt 0.00000000 0.00000000
vt 1.00000000 0.00000000
vt 0.94705071 1.00000000
vt 0.09810530 1.00000000
vt 0.00000000 0.00000000
vt 1.00000000 0.00000000
vt 0.93851693 1.00000000
vt 0.04055164 1.00000000
vt 0.00000000 0.00000000
vt 1.00000000 0.00000000
vt 0.93137085 1.00000000
vt 0.08867215 1.00000000
vt 0.00000000 0.00000000
vt 1.00000000 0.00000000
vt 0.91193984 1.00000000
vt 0.04364496 1.00000000
vt 0.00000000 0.00000000
vt 1.00000000 0.00000000
vt 0.94381299 1.00000000
vt 0.07428116 1.00000000
vt 0.92562771 1.00000000
vt 0.09612908 1.00000000
vt 0.00000000 0.00000000
vt 1.00000000 0.00000000
vt 0.85657421 1.00000000
vt 0.07108564 1.00000000
vt 0.00000000 0.00000000
vt 1.00000000 0.00000000
vt 0.90861700 1.00000000
vt 0.12081147 1.00000000
vt 0.00000000 0.00000000
vt 1.00000000 0.00000000
vt 0.88988967 1.00000000
vt 0.08234235 1.00000000
vt 0.00000000 0.00000000
vt 1.00000000 0.00000000
vt 0.91179455 1.00000000
vt 0.16342847 1.00000000
vt 0.00000000 0.00000000
vt 1.00000000 0.00000000
vt 0.90316976 1.00000000
vt 0.06386514 1.00000000
vt 0.00000000 0.00000000
vt 1.00000000 0.00000000
vt 0.88482684 1.00000000
vt 0.14880924 1.00000000
vt 0.00000000 0.00000000
vt 1.00000000 0.00000000
vt 0.00000000 0.15761139
vt 0.15831733 0.00000000
vt 0.66444770 0.00000000
vt 1.00000000 0.23861147
vt 0.90255514 0.72366321
vt 0.34740613 1.00000000
vt 0.13359757 0.82262068
vt 0.00000000 0.00000000
vt 1.00000000 0.00000000
vt 0.84694196 1.00000000
vt 0.19783348 1.00000000
vt 0.00000000 0.00000000
vt 1.00000000 0.00000000
vt 0.68829192 1.00000000
vt 0.15449083 1.00000000
vt 0.00000000 0.00000000
vt 1.00000000 0.00000000
vt 0.80198089 1.00000000
vt 0.26178807 1.00000000
vt 0.00000000 0.00000000
vt 1.00000000 0.00000000
vt 0.76723334 1.00000000
vt 0.17406681 1.00000000
vt 0.00000000 0.00000000
vt 1.00000000 0.00000000
vt 0.79879350 1.00000000
vt 0.37279863 1.00000000
vt 0.00000000 0.00000000
vt 1.00000000 0.00000000
vt 0.80305177 1.00000000
vt 0.12989874 1.00000000
vt 0.00000000 0.00000000
vt 1.00000000 0.00000000
vt 0.73286931 1.00000000
vt 0.34514564 1.00000000
vt 0.00000000 1.00000000
vt 0.00000000 0.00000000
vt 1.00000000 0.00000000
vt 1.00000000 1.00000000
vt 0.00000000 1.00000000
vt 0.00000000 0.00000000
vt 1.00000000 0.00000000
vt 1.00000000 1.00000000
vt 0.00000000 1.00000000
vt 0.00000000 0.00000000
vt 1.00000000 0.00000000
vt 1.00000000 1.00000000
vt 0.00000000 1.00000000
vt 0.00000000 0.00000000
vt 1.00000000 0.00000000
vt 1.00000000 1.00000000
vt 0.00000000 1.00000000
vt 0.00000000 0.00000000
vt 1.00000000 0.00000000
vt 1.00000000 1.00000000
vt 0.00000000 1.00000000
vt 0.00000000 0.00000000
vt 1.00000000 0.00000000
vt 1.00000000 1.00000000
vt 0.65691026 0.00000000
vt 1.00000000 0.24454023
vt 0.90122211 0.73737388
vt 0.37484464 1.00000000
vt 0.11606954 0.78481507
vt 0.00000000 0.20570799
vt 0.20614868 0.00000000
vt 0.00000000 1.00000000
vt 0.00000000 0.00000000
vt 1.00000000 0.00000000
vt 1.00000000 1.00000000
vt 0.20710678 0.00000000
vt 0.83976747 0.00000000
vt 1.00000000 1.00000000
vt 0.00000000 1.00000000
vt 0.30274565 0.00000000
vt 0.76568542 0.00000000
vt 1.00000000 1.00000000
vt 0.00000000 1.00000000
vt 0.13845196 0.00000000
vt 0.79008366 0.00000000
vt 1.00000000 1.00000000
vt 0.00000000 1.00000000
vt 0.33495245 0.00000000
vt 0.81921980 0.00000000
vt 1.00000000 1.00000000
vt 0.00000000 1.00000000
vt 0.17497994 0.00000000
vt 0.76601227 0.00000000
vt 1.00000000 1.00000000
vt 0.00000000 1.00000000
vt 0.25361174 0.00000000
vt 0.80816555 0.00000000
vt 1.00000000 1.00000000
vt 0.00000000 1.00000000
vt 0.14901322 0.00000000
vt 0.69934380 0.00000000
vt 1.00000000 1.00000000
vt 0.00000000 1.00000000
vn 0.92387953 0.38268343 0.00000000
vn 0.92387953 0.38268343 0.00000000
vn 0.92387953 0.38268343 0.00000000
vn 0.92387953 0.38268343 0.00000000
vn -0.82634298 0.38268343 -0.41317149
vn -0.82634298 0.38268343 -0.41317149
vn -0.82634298 0.38268343 -0.41317149
vn -0.82634298 0.38268343 -0.41317149
vn -0.70974392 0.38268343 0.59145326
vn -0.70974392 0.38268343 0.59145326
vn -0.70974392 0.38268343 0.59145326
vn -0.70974392 0.38268343 0.59145326
vn -0.18118768 0.38268343 0.90593842
vn -0.18118768 0.38268343 0.90593842
vn -0.18118768 0.38268343 0.90593842
vn -0.18118768 0.38268343 0.90593842
vn 0.65328148 0.38268343 0.65328148
vn 0.65328148 0.38268343 0.65328148
vn 0.65328148 0.38268343 0.65328148
vn 0.65328148 0.38268343 0.65328148
vn 0.75179170 0.38268343 -0.53699407
vn 0.75179170 0.38268343 -0.53699407
vn 0.75179170 0.38268343 -0.53699407
vn 0.75179170 0.38268343 -0.53699407
vn -0.18118768 0.38268343 -0.90593842
vn -0.18118768 0.38268343 -0.90593842
vn -0.18118768 0.38268343 -0.90593842
vn -0.18118768 0.38268343 -0.90593842
vn 0.70710678 0.70710678 0.00000000
vn 0.70710678 0.70710678 0.00000000
vn 0.70710678 0.70710678 0.00000000
vn 0.70710678 0.70710678 0.00000000
vn 0.57539646 0.70710678 -0.41099747
vn 0.57539646 0.70710678 -0.41099747
vn 0.57539646 0.70710678 -0.41099747
vn 0.57539646 0.70710678 -0.41099747
vn -0.13867505 0.70710678 -0.69337525
vn -0.13867505 0.70710678 -0.69337525
vn -0.13867505 0.70710678 -0.69337525
vn -0.13867505 0.70710678 -0.69337525
vn -0.63245553 0.70710678 -0.31622777
vn -0.63245553 0.70710678 -0.31622777
vn -0.63245553 0.70710678 -0.31622777
vn -0.63245553 0.70710678 -0.31622777
vn -0.54321448 0.70710678 0.45267873
vn -0.54321448 0.70710678 0.45267873
vn -0.54321448 0.70710678 0.45267873
vn -0.54321448 0.70710678 0.45267873
vn -0.13867505 0.70710678 0.69337525
vn -0.13867505 0.70710678 0.69337525
vn -0.13867505 0.70710678 0.69337525
vn -0.13867505 0.70710678 0.69337525
vn 0.50000000 0.70710678 0.50000000
vn 0.50000000 0.70710678 0.50000000
vn 0.50000000 0.70710678 0.50000000
vn 0.50000000 0.70710678 0.50000000
vn 0.00000000 1.00000000 -0.00000000
vn 0.00000000 1.00000000 -0.00000000
vn 0.00000000 1.00000000 -0.00000000
vn 0.00000000 1.00000000 -0.00000000
vn 0.00000000 1.00000000 -0.00000000
vn 0.00000000 1.00000000 -0.00000000
vn 0.00000000 1.00000000 -0.00000000
vn 0.38268343 0.92387953 0.00000000
vn 0.38268343 0.92387953 0.00000000
vn 0.38268343 0.92387953 -0.00000000
vn 0.38268343 0.92387953 -0.00000000
vn 0.31140232 0.92387953 -0.22243023
vn 0.31140232 0.92387953 -0.22243023
vn 0.31140232 0.92387953 -0.22243023
vn 0.31140232 0.92387953 -0.22243023
vn -0.07505040 0.92387953 -0.37525198
vn -0.07505040 0.92387953 -0.37525198
vn -0.07505040 0.92387953 -0.37525198
vn -0.07505040 0.92387953 -0.37525198
vn -0.34228247 0.92387953 -0.17114123
vn -0.34228247 0.92387953 -0.17114123
vn -0.34228247 0.92387953 -0.17114123
vn -0.34228247 0.92387953 -0.17114123
vn -0.29398556 0.92387953 0.24498796
vn -0.29398556 0.92387953 0.24498796
vn -0.29398556 0.92387953 0.24498796
vn -0.29398556 0.92387953 0.24498796
vn -0.07505040 0.92387953 0.37525198
vn -0.07505040 0.92387953 0.37525198
vn -0.07505040 0.92387953 0.37525198
vn -0.07505040 0.92387953 0.37525198
vn 0.27059805 0.92387953 0.27059805
vn 0.27059805 0.92387953 0.27059805
vn 0.27059805 0.92387953 0.27059805
vn 0.27059805 0.92387953 0.27059805
vn 1.00000000 0.00000000 0.00000000
vn 1.00000000 0.00000000 0.00000000
vn 1.00000000 0.00000000 0.00000000
vn 1.00000000 0.00000000 0.00000000
vn 0.70710678 0.00000000 0.70710678
vn 0.70710678 0.00000000 0.70710678
vn 0.70710678 0.00000000 0.70710678
vn 0.70710678 0.00000000 0.70710678
vn -0.19611614 0.00000000 0.98058068
vn -0.19611614 0.00000000 0.98058068
vn -0.19611614 0.00000000 0.98058068
vn -0.19611614 0.00000000 0.98058068
vn -0.76822128 0.00000000 0.64018440
vn -0.76822128 -0.00000000 0.64018440
vn -0.76822128 -0.00000000 0.64018440
vn -0.76822128 0.00000000 0.64018440
vn -0.89442719 0.00000000 -0.44721360
vn -0.89442719 0.00000000 -0.44721360
vn -0.89442719 0.00000000 -0.44721360
vn -0.89442719 0.00000000 -0.44721360
vn -0.19611614 0.00000000 -0.98058068
vn -0.19611614 0.00000000 -0.98058068
vn -0.19611614 0.00000000 -0.98058068
vn -0.19611614 0.00000000 -0.98058068
vn -0.00000000 -1.00000000 0.00000000
vn -0.00000000 -1.00000000 0.00000000
vn -0.00000000 -1.00000000 0.00000000
vn -0.00000000 -1.00000000 0.00000000
vn -0.00000000 -1.00000000 0.00000000
vn -0.00000000 -1.00000000 0.00000000
vn -0.00000000 -1.00000000 0.00000000
vn 0.81373347 0.00000000 -0.58123819
vn 0.81373347 0.00000000 -0.58123819
vn 0.81373347 0.00000000 -0.58123819
vn 0.81373347 0.00000000 -0.58123819
vn 0.70710678 -0.70710678 0.00000000
vn 0.70710678 -0.70710678 0.00000000
vn 0.70710678 -0.70710678 0.00000000
vn 0.70710678 -0.70710678 0.00000000
vn 0.50000000 -0.70710678 0.50000000
vn 0.50000000 -0.70710678 0.50000000
vn 0.50000000 -0.70710678 0.50000000
vn 0.50000000 -0.70710678 0.50000000
vn -0.13867505 -0.70710678 0.69337525
vn -0.13867505 -0.70710678 0.69337525
vn -0.13867505 -0.70710678 0.69337525
vn -0.13867505 -0.70710678 0.69337525
vn -0.54321448 -0.70710678 0.45267873
vn -0.54321448 -0.70710678 0.45267873
vn -0.54321448 -0.70710678 0.45267873
vn -0.54321448 -0.70710678 0.45267873
vn -0.63245553 -0.70710678 -0.31622777
vn -0.63245553 -0.70710678 -0.31622777
vn -0.63245553 -0.70710678 -0.31622777
vn -0.63245553 -0.70710678 -0.31622777
vn -0.13867505 -0.70710678 -0.69337525
vn -0.13867505 -0.70710678 -0.69337525
vn -0.13867505 -0.70710678 -0.69337525
vn -0.13867505 -0.70710678 -0.69337525
vn 0.57539646 -0.70710678 -0.41099747
vn 0.57539646 -0.70710678 -0.41099747
vn 0.57539646 -0.70710678 -0.41099747
vn 0.57539646 -0.70710678 -0.41099747
s 1
usemtl Rock
f 1/1/1 2/2/2 4/4/4
f 2/2/2 3/3/3 4/4/4
s 2
f 5/5/5 6/6/6 7/7/7
f 5/5/5 7/7/7 8/8/8
s 3
f 6/9/9 9/10/10 7/12/12
f 9/10/10 10/11/11 7/12/12
s 4
f 9/13/13 11/14/14 12/15/15
f 9/13/13 12/15/15 10/16/16
s 5
f 11/17/17 1/18/18 12/20/20
f 1/18/18 4/19/19 12/20/20
s 6
f 2/21/21 13/22/22 14/23/23
f 2/21/21 14/23/23 3/24/24
s 7
f 13/25/25 5/26/26 14/28/28
f 5/26/26 8/27/27 14/28/28
s 8
f 15/29/29 16/30/30 3/32/32
f 16/30/30 4/31/31 3/32/32
s 9
f 17/33/33 15/34/34 3/35/35
f 17/33/33 3/35/35 14/36/36
s 10
f 18/37/37 17/38/38 8/40/40
f 17/38/38 14/39/39 8/40/40
s 11
f 19/41/41 18/42/42 8/43/43
f 19/41/41 8/43/43 7/44/44
s 12
f 20/45/45 19/46/46 10/48/48
f 19/46/46 7/47/47 10/48/48
s 13
f 21/49/49 20/50/50 10/51/51
f 21/49/49 10/51/51 12/52/52
s 14
f 16/53/53 21/54/54 4/56/56
f 21/54/54 12/55/55 4/56/56
s 15
f 22/57/57 23/58/58 24/59/59
f 24/59/59 26/61/61 28/63/63
f 26/61/61 27/62/62 28/63/63
f 24/59/59 25/60/60 26/61/61
f 28/63/63 22/57/57 24/59/59
s 16
f 16/64/64 15/65/65 23/67/67
f 15/65/65 24/66/66 23/67/67
s 17
f 15/68/68 17/69/69 25/70/70
f 15/68/68 25/70/70 24/71/71
s 18
f 17/72/72 18/73/73 25/75/75
f 18/73/73 26/74/74 25/75/75
s 19
f 18/76/76 19/77/77 27/78/78
f 18/76/76 27/78/78 26/79/79
s 20
f 19/80/80 20/81/81 27/83/83
f 20/81/81 28/82/82 27/83/83
s 21
f 20/84/84 21/85/85 22/86/86
f 20/84/84 22/86/86 28/87/87
s 22
f 21/88/88 16/89/89 22/91/91
f 16/89/89 23/90/90 22/91/91
s 23
f 2/95/95 1/94/94 29/92/92
f 1/94/94 30/93/93 29/92/92
s 24
f 1/99/99 11/98/98 30/96/96
f 11/98/98 31/97/97 30/96/96
s 25
f 11/103/103 9/102/102 31/100/100
f 9/102/102 32/101/101 31/100/100
s 26
f 9/107/107 6/106/106 32/104/104
f 6/106/106 33/105/105 32/104/104
s 27
f 6/111/111 5/110/110 33/108/108
f 5/110/110 34/109/109 33/108/108
s 28
f 5/115/115 13/114/114 34/112/112
f 13/114/114 35/113/113 34/112/112
s 29
f 36/116/116 42/122/122 41/121/121
f 40/120/120 38/118/118 36/116/116
f 40/120/120 39/119/119 38/118/118
f 36/116/116 41/121/121 40/120/120
f 38/118/118 37/117/117 36/116/116
s 30
f 13/126/126 2/125/125 35/123/123
f 2/125/125 29/124/124 35/123/123
s 31
f 42/127/127 36/128/128 29/129/129
f 42/127/127 29/129/129 30/130/130
s 32
f 41/131/131 42/132/132 30/133/133
f 41/131/131 30/133/133 31/134/134
s 33
f 40/135/135 41/136/136 32/138/138
f 41/136/136 31/137/137 32/138/138
s 34
f 39/139/139 40/140/140 32/141/141
f 39/139/139 32/141/141 33/142/142
s 35
f 38/143/143 39/144/144 34/146/146
f 39/144/144 33/145/145 34/146/146
s 36
f 37/147/147 38/148/148 34/149/149
f 37/147/147 34/149/149 35/150/150
s 37
f 36/151/151 37/152/152 29/154/154
f 37/152/152 35/153/153 29/154/154
