mtllib rock2.mtl
o object1
g object1
v -0.16998444 0.44142136 0.34092362
v -0.35857864 0.44142136 0.18376178
v -0.50000000 0.30000000 0.25000000
v -0.20000000 0.30000000 0.50000000
v 0.16165065 0.44142136 0.23037858
v 0.25000000 0.30000000 0.35000000
v 0.10974615 0.44142136 -0.34196123
v 0.32123985 0.44142136 -0.25132107
v 0.45000000 0.30000000 -0.35000000
v 0.10000000 0.30000000 -0.50000000
v -0.35857864 0.44142136 -0.06877177
v -0.50000000 0.30000000 -0.15000000
v 0.35198685 0.44142136 -0.03609208
v 0.50000000 0.30000000 -0.00000000
v -0.50000000 0.05000000 -0.15000000
v -0.50000000 0.05000000 0.25000000
v -0.20000000 0.05000000 0.50000000
v 0.25000000 0.05000000 0.35000000
v 0.50000000 0.05000000 -0.00000000
v 0.45000000 0.05000000 -0.35000000
v 0.10000000 0.05000000 -0.50000000
v -0.40000000 -0.05000000 -0.09256297
v 0.10689157 -0.05000000 -0.38824971
v 0.35895282 -0.05000000 -0.28022346
v 0.39533889 -0.05000000 -0.02552096
v 0.18752758 -0.05000000 0.26541489
v -0.17877579 -0.05000000 0.38751601
v -0.40000000 -0.05000000 0.20316251
v 0.19247969 0.50000000 -0.15264214
v 0.20397369 0.50000000 -0.07218417
v 0.07330131 0.50000000 0.11075717
v -0.13996888 0.50000000 0.18184723
v -0.21715729 0.50000000 0.11752356
v -0.21715729 0.50000000 0.01245646
v 0.11949229 0.50000000 -0.18392246
vt 0.20173396 0.00000000
vt 0.83038130 0.00000000
vt 1.00000000 1.00000000
vt 0.00000000 1.00000000
vt 0.09695108 0.00000000
vt 0.83391796 0.00000000
vt 1.00000000 1.00000000
vt 0.00000000 1.00000000
vt 0.18701356 0.00000000
vt 0.79128128 0.00000000
vt 1.00000000 1.00000000
vt 0.00000000 1.00000000
vt 0.11693872 0.00000000
vt 0.89748004 0.00000000
vt 1.00000000 1.00000000
vt 0.00000000 1.00000000
vt 0.16559555 0.00000000
vt 0.79692942 0.00000000
vt 1.00000000 1.00000000
vt 0.00000000 1.00000000
vt 0.13173546 0.00000000
vt 0.89308022 0.00000000
vt 1.00000000 1.00000000
vt 0.00000000 1.00000000
vt 0.22479694 0.00000000
vt 0.83973690 0.00000000
vt 1.00000000 1.00000000
vt 0.00000000 1.00000000
vt 0.00000000 1.00000000
vt 0.00000000 0.00000000
vt 1.00000000 0.00000000
vt 1.00000000 1.00000000
vt 0.00000000 1.00000000
vt 0.00000000 0.00000000
vt 1.00000000 0.00000000
vt 1.00000000 1.00000000
vt 0.00000000 1.00000000
vt 0.00000000 0.00000000
vt 1.00000000 0.00000000
vt 1.00000000 1.00000000
vt 0.00000000 1.00000000
vt 0.00000000 0.00000000
vt 1.00000000 0.00000000
vt 1.00000000 1.00000000
vt 0.00000000 1.00000000
vt 0.00000000 0.00000000
vt 1.00000000 0.00000000
vt 1.00000000 1.00000000
vt 0.00000000 1.00000000
vt 0.00000000 0.00000000
vt 1.00000000 0.00000000
vt 1.00000000 1.00000000
vt 0.00000000 1.00000000
vt 0.00000000 0.00000000
vt 1.00000000 0.00000000
vt 1.00000000 1.00000000
vt 0.61884531 0.00000000
vt 1.00000000 0.63732777
vt 0.86074887 0.95425086
vt 0.53242487 1.00000000
vt 0.15739433 0.73871350
vt 0.00000000 0.27815087
vt 0.23764069 0.00000000
vt 0.00000000 0.00000000
vt 1.00000000 0.00000000
vt 0.85640742 1.00000000
vt 0.11709374 1.00000000
vt 0.00000000 0.00000000
vt 1.00000000 0.00000000
vt 0.88006147 1.00000000
vt 0.14264745 1.00000000
vt 0.00000000 0.00000000
vt 1.00000000 0.00000000
vt 0.88256226 1.00000000
vt 0.06855477 1.00000000
vt 0.00000000 0.00000000
vt 1.00000000 0.00000000
vt 0.92439630 1.00000000
vt 0.09315103 1.00000000
vt 0.00000000 0.00000000
vt 1.00000000 0.00000000
vt 0.88667688 1.00000000
vt 0.15895544 1.00000000
vt 0.00000000 0.00000000
vt 1.00000000 0.00000000
vt 0.85241358 1.00000000
vt 0.13223856 1.00000000
vt 0.00000000 0.00000000
vt 1.00000000 0.00000000
vt 0.92750744 1.00000000
vt 0.08268816 1.00000000
vt 0.91448084 0.97270684
vt 0.69451189 1.00000000
vt 0.19435745 0.68971083
vt 0.00000000 0.18328836
vt 0.17585840 0.00000000
vt 0.46310772 0.00000000
vt 1.00000000 0.79939400
vt 0.32090163 0.00000000
vt 0.73018465 0.00000000
vt 1.00000000 1.00000000
vt 0.00000000 1.00000000
vt 0.30948792 0.00000000
vt 0.65459231 0.00000000
vt 1.00000000 1.00000000
vt 0.00000000 1.00000000
vt 0.13155419 0.00000000
vt 0.77464111 0.00000000
vt 1.00000000 1.00000000
vt 0.00000000 1.00000000
vt 0.14981746 0.00000000
vt 0.86865530 0.00000000
vt 1.00000000 1.00000000
vt 0.00000000 1.00000000
vt 0.17302996 0.00000000
vt 0.85956457 0.00000000
vt 1.00000000 1.00000000
vt 0.00000000 1.00000000
vt 0.26229473 0.00000000
vt 0.67834677 0.00000000
vt 1.00000000 1.00000000
vt 0.00000000 1.00000000
vt 0.36555917 0.00000000
vt 0.73938415 0.00000000
vt 1.00000000 1.00000000
vt 0.00000000 1.00000000
vn -0.45267873 0.70710678 0.54321448
vn -0.45267873 0.70710678 0.54321448
vn -0.45267873 0.70710678 0.54321448
vn -0.45267873 0.70710678 0.54321448
vn 0.22360680 0.70710678 0.67082039
vn 0.22360680 0.70710678 0.67082039
vn 0.22360680 0.70710678 0.67082039
vn 0.22360680 0.70710678 0.67082039
vn 0.27854301 0.70710678 -0.64993368
vn 0.27854301 0.70710678 -0.64993368
vn 0.27854301 0.70710678 -0.64993368
vn 0.27854301 0.70710678 -0.64993368
vn -0.35629062 0.70710678 -0.61078392
vn -0.35629062 0.70710678 -0.61078392
vn -0.35629062 0.70710678 -0.61078392
vn -0.35629062 0.70710678 -0.61078392
vn -0.70710678 0.70710678 0.00000000
vn -0.70710678 0.70710678 0.00000000
vn -0.70710678 0.70710678 0.00000000
vn -0.70710678 0.70710678 0.00000000
vn 0.57539646 0.70710678 0.41099747
vn 0.57539646 0.70710678 0.41099747
vn 0.57539646 0.70710678 0.41099747
vn 0.57539646 0.70710678 0.41099747
vn 0.70000000 0.70710678 -0.10000000
vn 0.70000000 0.70710678 -0.10000000
vn 0.70000000 0.70710678 -0.10000000
vn 0.70000000 0.70710678 -0.10000000
vn -1.00000000 0.00000000 0.00000000
vn -1.00000000 0.00000000 0.00000000
vn -1.00000000 0.00000000 0.00000000
vn -1.00000000 0.00000000 0.00000000
vn -0.64018440 0.00000000 0.76822128
vn -0.64018440 0.00000000 0.76822128
vn -0.64018440 0.00000000 0.76822128
vn -0.64018440 0.00000000 0.76822128
vn 0.31622777 0.00000000 0.94868330
vn 0.31622777 0.00000000 0.94868330
vn 0.31622777 0.00000000 0.94868330
vn 0.31622777 0.00000000 0.94868330
vn 0.81373347 0.00000000 0.58123819
vn 0.81373347 0.00000000 0.58123819
vn 0.81373347 0.00000000 0.58123819
vn 0.81373347 0.00000000 0.58123819
vn 0.98994949 0.00000000 -0.14142136
vn 0.98994949 0.00000000 -0.14142136
vn 0.98994949 0.00000000 -0.14142136
vn 0.98994949 0.00000000 -0.14142136
vn 0.39391930 0.00000000 -0.91914503
vn 0.39391930 0.00000000 -0.91914503
vn 0.39391930 0.00000000 -0.91914503
vn 0.39391930 0.00000000 -0.91914503
vn -0.50387103 0.00000000 -0.86377890
vn -0.50387103 0.00000000 -0.86377890
vn -0.50387103 0.00000000 -0.86377890
vn -0.50387103 0.00000000 -0.86377890
vn 0.00000000 -1.00000000 0.00000000
vn 0.00000000 -1.00000000 0.00000000
vn 0.00000000 -1.00000000 0.00000000
vn 0.00000000 -1.00000000 0.00000000
vn 0.00000000 -1.00000000 0.00000000
vn 0.00000000 -1.00000000 0.00000000
vn 0.00000000 -1.00000000 0.00000000
vn -0.70710678 -0.70710678 0.00000000
vn -0.70710678 -0.70710678 0.00000000
vn -0.70710678 -0.70710678 0.00000000
vn -0.70710678 -0.70710678 0.00000000
vn -0.45267873 -0.70710678 0.54321448
vn -0.45267873 -0.70710678 0.54321448
vn -0.45267873 -0.70710678 0.54321448
vn -0.45267873 -0.70710678 0.54321448
vn 0.22360680 -0.70710678 0.67082039
vn 0.22360680 -0.70710678 0.67082039
vn 0.22360680 -0.70710678 0.67082039
vn 0.22360680 -0.70710678 0.67082039
vn 0.57539646 -0.70710678 0.41099747
vn 0.57539646 -0.70710678 0.41099747
vn 0.57539646 -0.70710678 0.41099747
vn 0.57539646 -0.70710678 0.41099747
vn 0.70000000 -0.70710678 -0.10000000
vn 0.70000000 -0.70710678 -0.10000000
vn 0.70000000 -0.70710678 -0.10000000
vn 0.70000000 -0.70710678 -0.10000000
vn 0.27854301 -0.70710678 -0.64993368
vn 0.27854301 -0.70710678 -0.64993368
vn 0.27854301 -0.70710678 -0.64993368
vn 0.27854301 -0.70710678 -0.64993368
vn -0.35629062 -0.70710678 -0.61078392
vn -0.35629062 -0.70710678 -0.61078392
vn -0.35629062 -0.70710678 -0.61078392
vn -0.35629062 -0.70710678 -0.61078392
vn 0.00000000 1.00000000 0.00000000
vn 0.00000000 1.00000000 0.00000000
vn 0.00000000 1.00000000 0.00000000
vn 0.00000000 1.00000000 0.00000000
vn 0.00000000 1.00000000 0.00000000
vn 0.00000000 1.00000000 0.00000000
vn 0.00000000 1.00000000 0.00000000
vn -0.24498796 0.92387953 0.29398556
vn -0.24498796 0.92387953 0.29398556
vn -0.24498796 0.92387953 0.29398556
vn -0.24498796 0.92387953 0.29398556
vn 0.15074639 0.92387953 -0.35174157
vn 0.15074639 0.92387953 -0.35174157
vn 0.15074639 0.92387953 -0.35174157
vn 0.15074639 0.92387953 -0.35174157
vn 0.12101513 0.92387953 0.36304538
vn 0.12101513 0.92387953 0.36304538
vn 0.12101513 0.92387953 0.36304538
vn 0.12101513 0.92387953 0.36304538
vn -0.19282309 0.92387953 -0.33055387
vn -0.19282309 0.92387953 -0.33055387
vn -0.19282309 0.92387953 -0.33055387
vn -0.19282309 0.92387953 -0.33055387
vn 0.31140232 0.92387953 0.22243023
vn 0.31140232 0.92387953 0.22243023
vn 0.31140232 0.92387953 0.22243023
vn 0.31140232 0.92387953 0.22243023
vn -0.38268343 0.92387953 0.00000000
vn -0.38268343 0.92387953 0.00000000
vn -0.38268343 0.92387953 0.00000000
vn -0.38268343 0.92387953 0.00000000
vn 0.37883727 0.92387953 -0.05411961
vn 0.37883727 0.92387953 -0.05411961
vn 0.37883727 0.92387953 -0.05411961
vn 0.37883727 0.92387953 -0.05411961
s 1
usemtl Rock
f 1/1/1 2/2/2 3/3/3
f 1/1/1 3/3/3 4/4/4
s 2
f 5/5/5 1/6/6 6/8/8
f 1/6/6 4/7/7 6/8/8
s 3
f 7/9/9 8/10/10 10/12/12
f 8/10/10 9/11/11 10/12/12
s 4
f 11/13/13 7/14/14 10/15/15
f 11/13/13 10/15/15 12/16/16
s 5
f 2/17/17 11/18/18 3/20/20
f 11/18/18 12/19/19 3/20/20
s 6
f 13/21/21 5/22/22 6/23/23
f 13/21/21 6/23/23 14/24/24
s 7
f 8/25/25 13/26/26 14/27/27
f 8/25/25 14/27/27 9/28/28
s 8
f 15/29/29 16/30/30 12/32/32
f 16/30/30 3/31/31 12/32/32
s 9
f 16/33/33 17/34/34 3/36/36
f 17/34/34 4/35/35 3/36/36
s 10
f 17/37/37 18/38/38 6/39/39
f 17/37/37 6/39/39 4/40/40
s 11
f 18/41/41 19/42/42 6/44/44
f 19/42/42 14/43/43 6/44/44
s 12
f 19/45/45 20/46/46 14/48/48
f 20/46/46 9/47/47 14/48/48
s 13
f 20/49/49 21/50/50 9/52/52
f 21/50/50 10/51/51 9/52/52
s 14
f 21/53/53 15/54/54 10/56/56
f 15/54/54 12/55/55 10/56/56
s 15
f 23/58/58 24/59/59 25/60/60
f 22/57/57 25/60/60 27/62/62
f 27/62/62 28/63/63 22/57/57
f 25/60/60 26/61/61 27/62/62
f 22/57/57 23/58/58 25/60/60
s 16
f 16/64/64 15/65/65 22/66/66
f 16/64/64 22/66/66 28/67/67
s 17
f 17/68/68 16/69/69 27/71/71
f 16/69/69 28/70/70 27/71/71
s 18
f 18/72/72 17/73/73 27/74/74
f 18/72/72 27/74/74 26/75/75
s 19
f 19/76/76 18/77/77 25/79/79
f 18/77/77 26/78/78 25/79/79
s 20
f 20/80/80 19/81/81 24/83/83
f 19/81/81 25/82/82 24/83/83
s 21
f 21/84/84 20/85/85 24/86/86
f 21/84/84 24/86/86 23/87/87
s 22
f 15/88/88 21/89/89 22/91/91
f 21/89/89 23/90/90 22/91/91
s 23
f 30/93/93 29/92/92 35/98/98
f 35/98/98 34/97/97 31/94/94
f 34/97/97 32/95/95 31/94/94
f 34/97/97 33/96/96 32/95/95
f 31/94/94 30/93/93 35/98/98
s 24
f 32/99/99 33/100/100 2/101/101
f 32/99/99 2/101/101 1/102/102
s 25
f 35/103/103 29/104/104 7/106/106
f 29/104/104 8/105/105 7/106/106
s 26
f 31/107/107 32/108/108 5/110/110
f 32/108/108 1/109/109 5/110/110
s 27
f 34/111/111 35/112/112 7/113/113
f 34/111/111 7/113/113 11/114/114
s 28
f 30/115/115 31/116/116 5/117/117
f 30/115/115 5/117/117 13/118/118
s 29
f 33/119/119 34/120/120 2/122/122
f 34/120/120 11/121/121 2/122/122
s 30
f 29/123/123 30/124/124 13/125/125
f 29/123/123 13/125/125 8/126/126
