mtllib tree_cedar1.mtl
o object1
g object1
v -0.00000000 0.00000000 0.10000000
v 0.08660254 0.00000000 0.05000000
v 0.08660254 0.00000000 -0.05000000
v -0.00000000 0.00000000 -0.10000000
v -0.08660254 0.00000000 -0.05000000
v -0.08660254 0.00000000 0.05000000
v -0.00000000 0.00000000 -0.00000000
v -0.08660254 0.40000000 0.05000000
v -0.00000000 0.40000000 0.10000000
v 0.08660254 0.40000000 0.05000000
v 0.08660254 0.40000000 -0.05000000
v -0.00000000 0.40000000 -0.10000000
v -0.08660254 0.40000000 -0.05000000
v -0.00000000 0.40000000 -0.00000000
vt 0.00000000 0.50000000
vt 0.25000000 0.00000000
vt 0.75000000 0.00000000
vt 1.00000000 0.50000000
vt 0.75000000 1.00000000
vt 0.25000000 1.00000000
vt 0.50000000 0.50000000
vt 0.25000000 1.00000000
vt 0.00000000 0.50000000
vt 0.25000000 0.00000000
vt 0.75000000 0.00000000
vt 1.00000000 0.50000000
vt 0.75000000 1.00000000
vt 0.50000000 0.50000000
vt 0.00000000 1.00000000
vt 0.00000000 0.00000000
vt 1.00000000 0.00000000
vt 1.00000000 1.00000000
vt 0.00000000 1.00000000
vt 0.00000000 0.00000000
vt 1.00000000 0.00000000
vt 1.00000000 1.00000000
vt 0.00000000 1.00000000
vt 0.00000000 0.00000000
vt 1.00000000 0.00000000
vt 1.00000000 1.00000000
vt 0.00000000 1.00000000
vt 0.00000000 0.00000000
vt 1.00000000 0.00000000
vt 1.00000000 1.00000000
vt 0.00000000 1.00000000
vt 0.00000000 0.00000000
vt 1.00000000 0.00000000
vt 1.00000000 1.00000000
vt 0.00000000 1.00000000
vt 0.00000000 0.00000000
vt 1.00000000 0.00000000
vt 1.00000000 1.00000000
vn 0.00000000 -1.00000000 0.00000000
vn 0.00000000 -1.00000000 0.00000000
vn 0.00000000 -1.00000000 0.00000000
vn 0.00000000 -1.00000000 0.00000000
vn 0.00000000 -1.00000000 0.00000000
vn 0.00000000 -1.00000000 0.00000000
vn 0.00000000 -1.00000000 0.00000000
vn 0.00000000 1.00000000 0.00000000
vn 0.00000000 1.00000000 0.00000000
vn 0.00000000 1.00000000 0.00000000
vn 0.00000000 1.00000000 0.00000000
vn 0.00000000 1.00000000 0.00000000
vn 0.00000000 1.00000000 0.00000000
vn 0.00000000 1.00000000 0.00000000
vn -0.50000000 0.00000000 0.86602540
vn -0.50000000 0.00000000 0.86602540
vn -0.50000000 0.00000000 0.86602540
vn -0.50000000 0.00000000 0.86602540
vn 0.50000000 0.00000000 0.86602540
vn 0.50000000 0.00000000 0.86602540
vn 0.50000000 0.00000000 0.86602540
vn 0.50000000 0.00000000 0.86602540
vn 1.00000000 0.00000000 0.00000000
vn 1.00000000 0.00000000 0.00000000
vn 1.00000000 0.00000000 0.00000000
vn 1.00000000 0.00000000 0.00000000
vn 0.50000000 0.00000000 -0.86602540
vn 0.50000000 0.00000000 -0.86602540
vn 0.50000000 0.00000000 -0.86602540
vn 0.50000000 0.00000000 -0.86602540
vn -0.50000000 0.00000000 -0.86602540
vn -0.50000000 0.00000000 -0.86602540
vn -0.50000000 0.00000000 -0.86602540
vn -0.50000000 0.00000000 -0.86602540
vn -1.00000000 0.00000000 0.00000000
vn -1.00000000 0.00000000 0.00000000
vn -1.00000000 0.00000000 0.00000000
vn -1.00000000 0.00000000 0.00000000
s 1
usemtl Wood_Dark
f 6/6/6 5/5/5 7/7/7
f 2/2/2 1/1/1 7/7/7
f 3/3/3 2/2/2 7/7/7
f 4/4/4 3/3/3 7/7/7
f 5/5/5 4/4/4 7/7/7
f 1/1/1 6/6/6 7/7/7
s 2
f 8/8/8 9/9/9 14/14/14
f 12/12/12 13/13/13 14/14/14
f 11/11/11 12/12/12 14/14/14
f 10/10/10 11/11/11 14/14/14
f 9/9/9 10/10/10 14/14/14
f 13/13/13 8/8/8 14/14/14
s 3
f 9/18/18 8/17/17 1/15/15
f 8/17/17 6/16/16 1/15/15
s 4
f 10/22/22 9/21/21 2/19/19
f 9/21/21 1/20/20 2/19/19
s 5
f 11/26/26 10/25/25 3/23/23
f 10/25/25 2/24/24 3/23/23
s 6
f 12/30/30 11/29/29 4/27/27
f 11/29/29 3/28/28 4/27/27
s 7
f 13/34/34 12/33/33 5/31/31
f 12/33/33 4/32/32 5/31/31
s 8
f 8/38/38 13/37/37 6/35/35
f 13/37/37 5/36/36 6/35/35
o object2
g object2
v 0.21650635 0.40000000 0.12500000
v 0.00000000 0.30000000 0.00000000
v 0.00000000 0.40000000 0.25000000
v 0.00000000 0.70000000 0.45000000
v 0.38971143 0.70000000 0.22500000
v 0.00000000 1.30000000 0.50000000
v 0.43301270 1.30000000 0.25000000
v 0.00000000 2.05000000 0.25000000
v 0.21650635 2.05000000 0.12500000
v 0.00000000 2.30000000 0.00000000
v 0.43301270 1.30000000 -0.25000000
v 0.21650635 2.05000000 -0.12500000
v 0.00000000 2.05000000 -0.25000000
v -0.21650635 2.05000000 -0.12500000
v -0.21650635 2.05000000 0.12500000
v -0.43301270 1.30000000 0.25000000
v -0.38971143 0.70000000 0.22500000
v -0.21650635 0.40000000 0.12500000
v -0.21650635 0.40000000 -0.12500000
v -0.38971143 0.70000000 -0.22500000
v 0.00000000 0.40000000 -0.25000000
v 0.00000000 0.70000000 -0.45000000
v 0.00000000 1.30000000 -0.50000000
v -0.43301270 1.30000000 -0.25000000
v 0.38971143 0.70000000 -0.22500000
v 0.21650635 0.40000000 -0.12500000
vt 0.50000000 0.00000000
vt 1.00000000 1.00000000
vt 0.00000000 0.90361446
vt 1.00000000 0.66666667
vt 0.61538462 1.00000000
vt 0.00000000 0.60000000
vt 0.69230769 0.00000000
vt 0.00000000 0.90566038
vt 0.18181818 0.00000000
vt 1.00000000 0.08490566
vt 0.90909091 1.00000000
vt 0.66666667 1.00000000
vt 0.00000000 0.25000000
vt 0.66666667 0.00000000
vt 1.00000000 0.87500000
vt 0.50000000 1.00000000
vt 0.00000000 0.40000000
vt 1.00000000 0.00000000
vt 0.50000000 1.00000000
vt 0.00000000 0.40000000
vt 1.00000000 0.00000000
vt 0.66666667 1.00000000
vt 0.00000000 0.25000000
vt 0.66666667 0.00000000
vt 1.00000000 0.87500000
vt 0.66666667 1.00000000
vt 0.00000000 0.25000000
vt 0.66666667 0.00000000
vt 1.00000000 0.87500000
vt 0.50000000 1.00000000
vt 0.00000000 0.40000000
vt 1.00000000 0.00000000
vt 0.50000000 1.00000000
vt 0.00000000 0.40000000
vt 1.00000000 0.00000000
vt 0.50000000 1.00000000
vt 0.00000000 0.40000000
vt 1.00000000 0.00000000
vt 0.50000000 1.00000000
vt 0.00000000 0.40000000
vt 1.00000000 0.00000000
vt 0.50000000 1.00000000
vt 0.00000000 0.40000000
vt 1.00000000 0.00000000
vt 0.66666667 1.00000000
vt 0.00000000 0.25000000
vt 0.66666667 0.00000000
vt 1.00000000 0.87500000
vt 0.00000000 0.90566038
vt 0.18181818 0.00000000
vt 1.00000000 0.08490566
vt 0.90909091 1.00000000
vt 1.00000000 0.66666667
vt 0.61538462 1.00000000
vt 0.00000000 0.60000000
vt 0.69230769 0.00000000
vt 1.00000000 0.66666667
vt 0.61538462 1.00000000
vt 0.00000000 0.60000000
vt 0.69230769 0.00000000
vt 1.00000000 0.66666667
vt 0.61538462 1.00000000
vt 0.00000000 0.60000000
vt 0.69230769 0.00000000
vt 0.00000000 0.90566038
vt 0.18181818 0.00000000
vt 1.00000000 0.08490566
vt 0.90909091 1.00000000
vt 0.00000000 0.90566038
vt 0.18181818 0.00000000
vt 1.00000000 0.08490566
vt 0.90909091 1.00000000
vt 1.00000000 0.66666667
vt 0.61538462 1.00000000
vt 0.00000000 0.60000000
vt 0.69230769 0.00000000
vt 1.00000000 0.66666667
vt 0.61538462 1.00000000
vt 0.00000000 0.60000000
vt 0.69230769 0.00000000
vt 0.50000000 0.00000000
vt 1.00000000 1.00000000
vt 0.00000000 0.90361446
vt 0.50000000 0.00000000
vt 1.00000000 1.00000000
vt 0.00000000 0.90361446
vt 0.50000000 0.00000000
vt 1.00000000 1.00000000
vt 0.00000000 0.90361446
vt 0.50000000 0.00000000
vt 1.00000000 1.00000000
vt 0.00000000 0.90361446
vt 0.50000000 0.00000000
vt 1.00000000 1.00000000
vt 0.00000000 0.90361446
vt 0.00000000 0.90566038
vt 0.18181818 0.00000000
vt 1.00000000 0.08490566
vt 0.90909091 1.00000000
vt 0.66666667 1.00000000
vt 0.00000000 0.25000000
vt 0.66666667 0.00000000
vt 1.00000000 0.87500000
vt 0.66666667 1.00000000
vt 0.00000000 0.25000000
vt 0.66666667 0.00000000
vt 1.00000000 0.87500000
vt 0.66666667 1.00000000
vt 0.00000000 0.25000000
vt 0.66666667 0.00000000
vt 1.00000000 0.87500000
vt 0.00000000 0.90566038
vt 0.18181818 0.00000000
vt 1.00000000 0.08490566
vt 0.90909091 1.00000000
vt 0.00000000 0.90566038
vt 0.18181818 0.00000000
vt 1.00000000 0.08490566
vt 0.90909091 1.00000000
vt 1.00000000 0.66666667
vt 0.61538462 1.00000000
vt 0.00000000 0.60000000
vt 0.69230769 0.00000000
vt 0.50000000 0.00000000
vt 1.00000000 1.00000000
vt 0.00000000 0.90361446
vn -0.20965697 0.90784130 -0.36313652
vn -0.20965697 0.90784130 -0.36313652
vn -0.20965697 0.90784130 -0.36313652
vn -0.43301270 0.50000000 -0.75000000
vn -0.43301270 0.50000000 -0.75000000
vn -0.43301270 0.50000000 -0.75000000
vn -0.43301270 0.50000000 -0.75000000
vn -0.49870298 0.07198158 -0.86377890
vn -0.49870298 0.07198158 -0.86377890
vn -0.49870298 0.07198158 -0.86377890
vn -0.49870298 0.07198158 -0.86377890
vn -0.48038446 -0.27735010 -0.83205029
vn -0.48038446 -0.27735010 -0.83205029
vn -0.48038446 -0.27735010 -0.83205029
vn -0.48038446 -0.27735010 -0.83205029
vn -0.37796447 -0.65465367 -0.65465367
vn -0.37796447 -0.65465367 -0.65465367
vn -0.37796447 -0.65465367 -0.65465367
vn 0.37796447 0.65465367 0.65465367
vn 0.37796447 0.65465367 0.65465367
vn 0.37796447 0.65465367 0.65465367
vn 0.48038446 0.27735010 0.83205029
vn 0.48038446 0.27735010 0.83205029
vn 0.48038446 0.27735010 0.83205029
vn 0.48038446 0.27735010 0.83205029
vn 0.96076892 0.27735010 -0.00000000
vn 0.96076892 0.27735010 -0.00000000
vn 0.96076892 0.27735010 -0.00000000
vn 0.96076892 0.27735010 -0.00000000
vn 0.75592895 0.65465367 -0.00000000
vn 0.75592895 0.65465367 -0.00000000
vn 0.75592895 0.65465367 -0.00000000
vn 0.37796447 0.65465367 -0.65465367
vn 0.37796447 0.65465367 -0.65465367
vn 0.37796447 0.65465367 -0.65465367
vn -0.37796447 0.65465367 -0.65465367
vn -0.37796447 0.65465367 -0.65465367
vn -0.37796447 0.65465367 -0.65465367
vn -0.75592895 0.65465367 -0.00000000
vn -0.75592895 0.65465367 -0.00000000
vn -0.75592895 0.65465367 -0.00000000
vn -0.37796447 0.65465367 0.65465367
vn -0.37796447 0.65465367 0.65465367
vn -0.37796447 0.65465367 0.65465367
vn -0.48038446 0.27735010 0.83205029
vn -0.48038446 0.27735010 0.83205029
vn -0.48038446 0.27735010 0.83205029
vn -0.48038446 0.27735010 0.83205029
vn -0.49870298 -0.07198158 0.86377890
vn -0.49870298 -0.07198158 0.86377890
vn -0.49870298 -0.07198158 0.86377890
vn -0.49870298 -0.07198158 0.86377890
vn -0.43301270 -0.50000000 0.75000000
vn -0.43301270 -0.50000000 0.75000000
vn -0.43301270 -0.50000000 0.75000000
vn -0.43301270 -0.50000000 0.75000000
vn -0.86602540 -0.50000000 -0.00000000
vn -0.86602540 -0.50000000 -0.00000000
vn -0.86602540 -0.50000000 -0.00000000
vn -0.86602540 -0.50000000 -0.00000000
vn -0.43301270 -0.50000000 -0.75000000
vn -0.43301270 -0.50000000 -0.75000000
vn -0.43301270 -0.50000000 -0.75000000
vn -0.43301270 -0.50000000 -0.75000000
vn -0.49870298 -0.07198158 -0.86377890
vn -0.49870298 -0.07198158 -0.86377890
vn -0.49870298 -0.07198158 -0.86377890
vn -0.49870298 -0.07198158 -0.86377890
vn 0.49870298 -0.07198158 -0.86377890
vn 0.49870298 -0.07198158 -0.86377890
vn 0.49870298 -0.07198158 -0.86377890
vn 0.49870298 -0.07198158 -0.86377890
vn 0.43301270 -0.50000000 -0.75000000
vn 0.43301270 -0.50000000 -0.75000000
vn 0.43301270 -0.50000000 -0.75000000
vn 0.43301270 -0.50000000 -0.75000000
vn 0.86602540 -0.50000000 -0.00000000
vn 0.86602540 -0.50000000 -0.00000000
vn 0.86602540 -0.50000000 -0.00000000
vn 0.86602540 -0.50000000 -0.00000000
vn 0.41931393 -0.90784130 -0.00000000
vn 0.41931393 -0.90784130 -0.00000000
vn 0.41931393 -0.90784130 -0.00000000
vn 0.20965697 -0.90784130 -0.36313652
vn 0.20965697 -0.90784130 -0.36313652
vn 0.20965697 -0.90784130 -0.36313652
vn -0.20965697 -0.90784130 -0.36313652
vn -0.20965697 -0.90784130 -0.36313652
vn -0.20965697 -0.90784130 -0.36313652
vn -0.41931393 -0.90784130 -0.00000000
vn -0.41931393 -0.90784130 -0.00000000
vn -0.41931393 -0.90784130 -0.00000000
vn -0.20965697 -0.90784130 0.36313652
vn -0.20965697 -0.90784130 0.36313652
vn -0.20965697 -0.90784130 0.36313652
vn -0.99740596 -0.07198158 -0.00000000
vn -0.99740596 -0.07198158 -0.00000000
vn -0.99740596 -0.07198158 -0.00000000
vn -0.99740596 -0.07198158 -0.00000000
vn -0.96076892 0.27735010 -0.00000000
vn -0.96076892 0.27735010 -0.00000000
vn -0.96076892 0.27735010 -0.00000000
vn -0.96076892 0.27735010 -0.00000000
vn -0.48038446 0.27735010 -0.83205029
vn -0.48038446 0.27735010 -0.83205029
vn -0.48038446 0.27735010 -0.83205029
vn -0.48038446 0.27735010 -0.83205029
vn 0.48038446 0.27735010 -0.83205029
vn 0.48038446 0.27735010 -0.83205029
vn 0.48038446 0.27735010 -0.83205029
vn 0.48038446 0.27735010 -0.83205029
vn 0.99740596 -0.07198158 -0.00000000
vn 0.99740596 -0.07198158 -0.00000000
vn 0.99740596 -0.07198158 -0.00000000
vn 0.99740596 -0.07198158 -0.00000000
vn 0.49870298 -0.07198158 0.86377890
vn 0.49870298 -0.07198158 0.86377890
vn 0.49870298 -0.07198158 0.86377890
vn 0.49870298 -0.07198158 0.86377890
vn 0.43301270 -0.50000000 0.75000000
vn 0.43301270 -0.50000000 0.75000000
vn 0.43301270 -0.50000000 0.75000000
vn 0.43301270 -0.50000000 0.75000000
vn 0.20965697 -0.90784130 0.36313652
vn 0.20965697 -0.90784130 0.36313652
vn 0.20965697 -0.90784130 0.36313652
s 1
usemtl Cedar_Leaves
f 15/39/39 16/40/40 17/41/41
s 2
f 19/45/45 15/42/42 17/43/43
f 17/43/43 18/44/44 19/45/45
s 3
f 21/49/49 19/48/48 18/47/47
f 21/49/49 18/47/47 20/46/46
s 4
f 22/50/50 23/53/53 21/52/52
f 21/52/52 20/51/51 22/50/50
s 5
f 23/54/54 22/55/55 24/56/56
s 6
f 24/59/59 22/58/58 23/57/57
s 7
f 21/62/62 23/63/63 22/60/60
f 22/60/60 20/61/61 21/62/62
s 8
f 26/67/67 23/64/64 21/65/65
f 21/65/65 25/66/66 26/67/67
s 9
f 24/70/70 23/69/69 26/68/68
s 10
f 24/73/73 26/72/72 27/71/71
s 11
f 24/76/76 27/75/75 28/74/74
s 12
f 24/79/79 28/78/78 29/77/77
s 13
f 24/82/82 29/81/81 22/80/80
s 14
f 22/86/86 29/83/83 30/84/84
f 30/84/84 20/85/85 22/86/86
s 15
f 30/87/87 31/88/88 18/89/89
f 30/87/87 18/89/89 20/90/90
s 16
f 32/92/92 17/91/91 18/94/94
f 18/94/94 31/93/93 32/92/92
s 17
f 34/97/97 33/96/96 32/95/95
f 31/98/98 34/97/97 32/95/95
s 18
f 35/100/100 33/99/99 34/102/102
f 34/102/102 36/101/101 35/100/100
s 19
f 36/104/104 34/105/105 38/106/106
f 37/103/103 36/104/104 38/106/106
s 20
f 39/108/108 36/109/109 37/110/110
f 25/107/107 39/108/108 37/110/110
s 21
f 39/113/113 40/112/112 35/111/111
f 36/114/114 39/113/113 35/111/111
s 22
f 15/116/116 40/115/115 39/118/118
f 39/118/118 19/117/117 15/116/116
s 23
f 15/121/121 16/120/120 40/119/119
s 24
f 40/124/124 16/123/123 35/122/122
s 25
f 35/127/127 16/126/126 33/125/125
s 26
f 33/130/130 16/129/129 32/128/128
s 27
f 32/133/133 16/132/132 17/131/131
s 28
f 34/135/135 31/136/136 30/137/137
f 38/134/134 34/135/135 30/137/137
s 29
f 29/141/141 28/138/138 38/139/139
f 38/139/139 30/140/140 29/141/141
s 30
f 38/144/144 28/145/145 27/142/142
f 27/142/142 37/143/143 38/144/144
s 31
f 37/148/148 27/149/149 26/146/146
f 26/146/146 25/147/147 37/148/148
s 32
f 21/150/150 19/151/151 39/152/152
f 21/150/150 39/152/152 25/153/153
s 33
f 18/155/155 19/156/156 21/157/157
f 20/154/154 18/155/155 21/157/157
s 34
f 17/159/159 15/158/158 19/161/161
f 19/161/161 18/160/160 17/159/159
s 35
f 17/164/164 16/163/163 15/162/162
