mtllib tree_pine3.mtl
o object1
g object1
v 0.32427089 2.10515492 0.54062351
v 0.65841454 2.06545305 0.00450882
v -0.02461967 3.33468408 0.03869530
v -0.28949226 2.08665426 0.54630007
v -0.63048808 2.02660167 0.01642960
v -0.30001899 2.10962901 -0.51699690
v 0.31374416 2.12812967 -0.52267346
vt 1.00000000 0.85714286
vt 0.00000000 1.00000000
vt 0.00000000 0.00000000
vt 1.00000000 0.85714286
vt 0.00000000 1.00000000
vt 0.00000000 0.00000000
vt 1.00000000 0.00000000
vt 1.00000000 1.00000000
vt 0.00000000 0.50000000
vt 0.73809524 1.00000000
vt 0.26190476 1.00000000
vt 0.00000000 0.00000000
vt 1.00000000 0.00000000
vt 1.00000000 1.00000000
vt 0.00000000 0.85714286
vt 1.00000000 0.00000000
vt 0.00000000 1.00000000
vt 0.00000000 0.00000000
vt 1.00000000 0.50000000
vt 0.00000000 0.14285714
vt 1.00000000 0.00000000
vt 1.00000000 1.00000000
vt 0.73809524 0.00000000
vt 1.00000000 1.00000000
vt 0.00000000 1.00000000
vt 0.26190476 0.00000000
vn 0.78697693 0.41111867 0.46005298
vn 0.78697693 0.41111867 0.46005298
vn 0.78697693 0.41111867 0.46005298
vn -0.80167242 0.36323204 0.47474605
vn -0.80167242 0.36323204 0.47474605
vn -0.80167242 0.36323204 0.47474605
vn -0.00280656 0.37726414 0.92610145
vn -0.00280656 0.37726414 0.92610145
vn -0.00280656 0.37726414 0.92610145
vn 0.03085763 -0.99519422 0.09293152
vn 0.03085763 -0.99519422 0.09293152
vn 0.03085763 -0.99519422 0.09293152
vn 0.03085763 -0.99519422 0.09293152
vn -0.81075480 0.38305446 -0.44265781
vn -0.81075480 0.38305446 -0.44265781
vn -0.81075480 0.38305446 -0.44265781
vn -0.02097131 0.41690899 -0.90870628
vn -0.02097131 0.41690899 -0.90870628
vn -0.02097131 0.41690899 -0.90870628
vn 0.77789456 0.43094110 -0.45735088
vn 0.77789456 0.43094110 -0.45735088
vn 0.77789456 0.43094110 -0.45735088
vn 0.02858703 -0.99023862 -0.13641945
vn 0.02858703 -0.99023862 -0.13641945
vn 0.02858703 -0.99023862 -0.13641945
vn 0.02858703 -0.99023862 -0.13641945
s 1
usemtl Pine_Leaves
f 1/1/1 2/2/2 3/3/3
s 2
f 3/6/6 5/5/5 4/4/4
s 3
f 4/7/7 1/8/8 3/9/9
s 4
f 1/10/10 4/11/11 2/13/13
f 4/11/11 5/12/12 2/13/13
s 5
f 3/16/16 6/15/15 5/14/14
s 6
f 3/19/19 7/18/18 6/17/17
s 7
f 3/22/22 2/21/21 7/20/20
s 8
f 7/23/23 2/24/24 6/26/26
f 2/24/24 5/25/25 6/26/26
o object2
g object2
v -0.50802179 1.28361630 0.88893153
v 0.51691293 1.27396807 0.88297100
v 0.01486935 2.84631214 0.01325975
v 0.97382590 1.35927853 -0.00642599
v -0.51818778 1.30735560 -0.88597410
v 0.50674694 1.29770737 -0.89193463
v -0.97355007 1.37761017 0.00489902
vt 1.00000000 0.00000000
vt 1.00000000 1.00000000
vt 0.00000000 0.50000000
vt 1.00000000 0.94736842
vt 0.00000000 1.00000000
vt 0.00000000 0.00000000
vt 0.00000000 1.00000000
vt 0.00000000 0.00000000
vt 1.00000000 0.50000000
vt 1.00000000 1.00000000
vt 0.00000000 0.94736842
vt 1.00000000 0.00000000
vt 1.00000000 0.94736842
vt 0.00000000 1.00000000
vt 0.00000000 0.00000000
vt 0.00000000 0.05263158
vt 1.00000000 0.00000000
vt 1.00000000 1.00000000
vt 0.76315789 0.00000000
vt 1.00000000 1.00000000
vt 0.00000000 1.00000000
vt 0.23684211 0.00000000
vt 1.00000000 0.00000000
vt 0.76315789 1.00000000
vt 0.23684211 1.00000000
vt 0.00000000 0.00000000
vn 0.00965939 0.48635774 0.87370638
vn 0.00965939 0.48635774 0.87370638
vn 0.00965939 0.48635774 0.87370638
vn 0.75884519 0.48358831 0.43622967
vn 0.75884519 0.48358831 0.43622967
vn 0.75884519 0.48358831 0.43622967
vn -0.00027115 0.50457263 -0.86336921
vn -0.00027115 0.50457263 -0.86336921
vn -0.00027115 0.50457263 -0.86336921
vn -0.75040236 0.50742336 -0.42357743
vn -0.75040236 0.50742336 -0.42357743
vn -0.75040236 0.50742336 -0.42357743
vn -0.74417931 0.49829164 0.44486245
vn -0.74417931 0.49829164 0.44486245
vn -0.74417931 0.49829164 0.44486245
vn 0.75509905 0.49267361 -0.43254842
vn 0.75509905 0.49267361 -0.43254842
vn 0.75509905 0.49267361 -0.43254842
vn -0.00895656 -0.99721338 0.07406253
vn -0.00895656 -0.99721338 0.07406253
vn -0.00895656 -0.99721338 0.07406253
vn -0.00895656 -0.99721338 0.07406253
vn -0.00995003 -0.99488323 -0.10054031
vn -0.00995003 -0.99488323 -0.10054031
vn -0.00995003 -0.99488323 -0.10054031
vn -0.00995003 -0.99488323 -0.10054031
s 1
usemtl Pine_Leaves
f 8/27/27 9/28/28 10/29/29
s 2
f 9/30/30 11/31/31 10/32/32
s 3
f 10/35/35 13/34/34 12/33/33
s 4
f 10/38/38 12/37/37 14/36/36
s 5
f 10/41/41 14/40/40 8/39/39
s 6
f 10/44/44 11/43/43 13/42/42
s 7
f 13/45/45 11/46/46 14/47/47
f 13/45/45 14/47/47 12/48/48
s 8
f 11/49/49 9/50/50 14/52/52
f 9/50/50 8/51/51 14/52/52
o object3
g object3
v 0.62409620 0.69506556 1.02238422
v 1.24472728 0.65059350 -0.00047324
v 0.00000000 2.49062513 -0.00047324
v 0.60776006 0.69376931 1.05219805
v -0.62409620 0.69506556 1.02238422
v -1.24472728 0.65059350 -0.00047324
v -0.60776006 0.69376931 1.05219805
v -0.63863041 0.60250044 -1.10661356
v 0.63863041 0.60250044 -1.10661356
vt 0.97167793 0.88094304
vt 0.00000000 1.00000000
vt 0.00000000 0.00000000
vt 1.00000000 0.87888176
vt 0.97167793 0.88094304
vt 0.00000000 1.00000000
vt 0.00000000 0.00000000
vt 1.00000000 0.87888176
vt 1.00000000 1.00000000
vt 0.00000000 0.92352337
vt 1.00000000 0.00000000
vt 0.00000000 1.00000000
vt 0.00000000 0.00000000
vt 1.00000000 0.50000000
vt 0.00000000 0.07647663
vt 1.00000000 0.00000000
vt 1.00000000 1.00000000
vt 1.00000000 0.00000000
vt 1.00000000 1.00000000
vt 0.00000000 0.50000000
vt 0.98691216 1.00000000
vt 0.01308784 1.00000000
vt 0.00000000 0.00000000
vt 1.00000000 0.00000000
vt 1.00000000 0.51955917
vt 0.75069596 1.00000000
vt 0.24930404 1.00000000
vt 0.00000000 0.51955917
vt 0.24346573 0.00000000
vt 0.75653427 0.00000000
vn 0.74723771 0.50548433 0.43141789
vn 0.74723771 0.50548433 0.43141789
vn 0.74723771 0.50548433 0.43141789
vn 0.74723771 0.50548433 0.43141789
vn -0.74723771 0.50548433 0.43141789
vn -0.74723771 0.50548433 0.43141789
vn -0.74723771 0.50548433 0.43141789
vn -0.74723771 0.50548433 0.43141789
vn -0.74723771 0.50548433 -0.43141789
vn -0.74723771 0.50548433 -0.43141789
vn -0.74723771 0.50548433 -0.43141789
vn 0.00000000 0.50548433 -0.86283578
vn 0.00000000 0.50548433 -0.86283578
vn 0.00000000 0.50548433 -0.86283578
vn 0.74723771 0.50548433 -0.43141789
vn 0.74723771 0.50548433 -0.43141789
vn 0.74723771 0.50548433 -0.43141789
vn 0.00000000 0.50548433 0.86283578
vn 0.00000000 0.50548433 0.86283578
vn 0.00000000 0.50548433 0.86283578
vn -0.00000000 -0.99905616 -0.04343722
vn -0.00000000 -0.99905616 -0.04343722
vn -0.00000000 -0.99905616 -0.04343722
vn -0.00000000 -0.99905616 -0.04343722
vn -0.00000000 -0.99905616 0.04343722
vn -0.00000000 -0.99905616 0.04343722
vn -0.00000000 -0.99905616 0.04343722
vn -0.00000000 -0.99905616 0.04343722
vn -0.00000000 -0.99905616 0.04343722
vn -0.00000000 -0.99905616 0.04343722
s 1
usemtl Pine_Leaves
f 15/53/53 16/54/54 17/55/55
f 15/53/53 17/55/55 18/56/56
s 2
f 17/59/59 20/58/58 19/57/57
f 21/60/60 17/59/59 19/57/57
s 3
f 17/63/63 22/62/62 20/61/61
s 4
f 17/66/66 23/65/65 22/64/64
s 5
f 17/69/69 16/68/68 23/67/67
s 6
f 21/70/70 18/71/71 17/72/72
s 7
f 18/73/73 21/74/74 19/75/75
f 18/73/73 19/75/75 15/76/76
s 8
f 15/78/78 19/79/79 20/80/80
f 20/80/80 22/81/81 23/82/82
f 15/78/78 20/80/80 23/82/82
f 23/82/82 16/77/77 15/78/78
o object4
g object4
v -0.13928591 0.75000000 0.24125028
v -0.27857182 0.75000000 -0.00000000
v -0.13928591 0.75000000 -0.24125028
v 0.13928591 0.75000000 -0.24125028
v 0.27857182 0.75000000 0.00000000
v 0.13928591 0.75000000 0.24125028
v 0.00000000 0.75000000 0.00000000
v -0.13928591 0.00000000 0.24125028
v -0.27857182 0.00000000 -0.00000000
v -0.13928591 0.00000000 -0.24125028
v 0.13928591 -0.00000000 -0.24125028
v 0.27857182 -0.00000000 0.00000000
v 0.13928591 -0.00000000 0.24125028
v 0.00000000 -0.00000000 0.00000000
vt 1.00000000 0.75000000
vt 0.50000000 1.00000000
vt 0.00000000 0.75000000
vt 0.00000000 0.25000000
vt 0.50000000 0.00000000
vt 1.00000000 0.25000000
vt 0.50000000 0.50000000
vt 1.00000000 0.75000000
vt 0.50000000 1.00000000
vt 0.00000000 0.75000000
vt 0.00000000 0.25000000
vt 0.50000000 0.00000000
vt 1.00000000 0.25000000
vt 0.50000000 0.50000000
vt 0.00000000 1.00000000
vt 0.00000000 0.00000000
vt 1.00000000 0.00000000
vt 1.00000000 1.00000000
vt 0.00000000 1.00000000
vt 0.00000000 0.00000000
vt 1.00000000 0.00000000
vt 1.00000000 1.00000000
vt 0.00000000 1.00000000
vt 0.00000000 0.00000000
vt 1.00000000 0.00000000
vt 1.00000000 1.00000000
vt 0.00000000 1.00000000
vt 0.00000000 0.00000000
vt 1.00000000 0.00000000
vt 1.00000000 1.00000000
vt 0.00000000 1.00000000
vt 0.00000000 0.00000000
vt 1.00000000 0.00000000
vt 1.00000000 1.00000000
vt 0.00000000 1.00000000
vt 0.00000000 0.00000000
vt 1.00000000 0.00000000
vt 1.00000000 1.00000000
vn 0.00000000 1.00000000 0.00000000
vn 0.00000000 1.00000000 0.00000000
vn 0.00000000 1.00000000 0.00000000
vn 0.00000000 1.00000000 0.00000000
vn 0.00000000 1.00000000 0.00000000
vn 0.00000000 1.00000000 0.00000000
vn 0.00000000 1.00000000 0.00000000
vn -0.00000000 -1.00000000 -0.00000000
vn -0.00000000 -1.00000000 -0.00000000
vn -0.00000000 -1.00000000 -0.00000000
vn -0.00000000 -1.00000000 -0.00000000
vn -0.00000000 -1.00000000 -0.00000000
vn -0.00000000 -1.00000000 -0.00000000
vn -0.00000000 -1.00000000 -0.00000000
vn -0.86602540 0.00000000 0.50000000
vn -0.86602540 0.00000000 0.50000000
vn -0.86602540 0.00000000 0.50000000
vn -0.86602540 0.00000000 0.50000000
vn -0.86602540 0.00000000 -0.50000000
vn -0.86602540 0.00000000 -0.50000000
vn -0.86602540 0.00000000 -0.50000000
vn -0.86602540 0.00000000 -0.50000000
vn 0.00000000 -0.00000000 -1.00000000
vn 0.00000000 -0.00000000 -1.00000000
vn 0.00000000 -0.00000000 -1.00000000
vn 0.00000000 -0.00000000 -1.00000000
vn 0.86602540 -0.00000000 -0.50000000
vn 0.86602540 -0.00000000 -0.50000000
vn 0.86602540 -0.00000000 -0.50000000
vn 0.86602540 -0.00000000 -0.50000000
vn 0.86602540 -0.00000000 0.50000000
vn 0.86602540 -0.00000000 0.50000000
vn 0.86602540 -0.00000000 0.50000000
vn 0.86602540 -0.00000000 0.50000000
vn -0.00000000 -0.00000000 1.00000000
vn -0.00000000 -0.00000000 1.00000000
vn -0.00000000 -0.00000000 1.00000000
vn -0.00000000 -0.00000000 1.00000000
s 1
usemtl Wood_Dark
f 29/88/88 28/87/87 30/89/89
f 25/84/84 24/83/83 30/89/89
f 26/85/85 25/84/84 30/89/89
f 27/86/86 26/85/85 30/89/89
f 28/87/87 27/86/86 30/89/89
f 24/83/83 29/88/88 30/89/89
s 2
f 31/90/90 32/91/91 37/96/96
f 35/94/94 36/95/95 37/96/96
f 34/93/93 35/94/94 37/96/96
f 33/92/92 34/93/93 37/96/96
f 32/91/91 33/92/92 37/96/96
f 36/95/95 31/90/90 37/96/96
s 3
f 32/100/100 31/99/99 24/98/98
f 32/100/100 24/98/98 25/97/97
s 4
f 33/104/104 32/103/103 25/102/102
f 33/104/104 25/102/102 26/101/101
s 5
f 34/108/108 33/107/107 26/106/106
f 34/108/108 26/106/106 27/105/105
s 6
f 35/112/112 34/111/111 27/110/110
f 35/112/112 27/110/110 28/109/109
s 7
f 36/116/116 35/115/115 28/114/114
f 36/116/116 28/114/114 29/113/113
s 8
f 31/120/120 36/119/119 24/117/117
f 36/119/119 29/118/118 24/117/117
